<svg width="175" height="42" viewBox="0 0 175 42" fill="none" xmlns="http://www.w3.org/2000/svg">
<path d="M166.761 25.7833C165.68 25.7833 164.691 25.5659 163.794 25.1312C162.897 24.6965 162.178 24.0631 161.638 23.231C161.109 22.3989 160.845 21.3805 160.845 20.1758C160.845 19.3933 160.98 18.6978 161.251 18.0893C161.533 17.4683 161.963 16.9342 162.541 16.4871C163.118 16.0276 163.856 15.6488 164.753 15.3507C165.662 15.0527 166.737 14.8291 167.978 14.6801C168.973 14.5683 169.839 14.4565 170.577 14.3447C171.314 14.233 171.879 14.0591 172.272 13.8231C172.678 13.5871 172.881 13.227 172.881 12.7426V11.9974C172.881 10.7182 172.469 9.69978 171.646 8.94218C170.822 8.18458 169.71 7.80578 168.31 7.80578C167.106 7.80578 166.055 8.07901 165.158 8.62547C164.273 9.17194 163.671 9.9047 163.352 10.8238L161.38 10.4325C161.859 9.05395 162.719 7.97965 163.96 7.20963C165.201 6.43961 166.645 6.0546 168.291 6.0546C169.532 6.0546 170.657 6.28436 171.664 6.74389C172.684 7.20342 173.495 7.88029 174.097 8.77451C174.699 9.66873 175 10.7679 175 12.0719V25.4107H172.954V22.0015H172.862C172.346 23.0944 171.56 24.001 170.503 24.7214C169.459 25.4293 168.211 25.7833 166.761 25.7833ZM167.167 24.1439C168.273 24.1439 169.256 23.8706 170.116 23.3242C170.988 22.7653 171.67 22.0077 172.162 21.0514C172.666 20.0826 172.917 18.9835 172.917 17.7539V15.0527C172.598 15.2886 172.192 15.4811 171.701 15.6302C171.222 15.7792 170.687 15.9034 170.097 16.0028C169.52 16.1021 168.936 16.1829 168.347 16.245C166.393 16.4809 164.986 16.9218 164.126 17.5676C163.266 18.2135 162.836 19.0891 162.836 20.1944C162.836 21.3867 163.253 22.343 164.089 23.0634C164.937 23.7837 165.963 24.1439 167.167 24.1439Z" fill="#100102"/>
<path d="M154.995 25.4107V7.5426H157.041V25.4107H154.995ZM156.064 5.54688C155.659 5.54688 155.315 5.41027 155.032 5.13703C154.75 4.85138 154.608 4.52226 154.608 4.14967C154.608 3.77708 154.75 3.45416 155.032 3.18093C155.315 2.9077 155.659 2.77108 156.064 2.77108C156.433 2.77108 156.753 2.9077 157.023 3.18093C157.293 3.45416 157.428 3.77708 157.428 4.14967C157.428 4.53468 157.293 4.8638 157.023 5.13703C156.753 5.41027 156.433 5.54688 156.064 5.54688Z" fill="#100102"/>
<path d="M151.203 25.4107H149.194V21.2563H149.028C148.733 22.0884 148.309 22.846 147.756 23.5291C147.216 24.2122 146.546 24.7586 145.747 25.1685C144.949 25.5784 144.027 25.7833 142.983 25.7833C141.496 25.7833 140.193 25.3672 139.075 24.5351C137.957 23.6906 137.085 22.5293 136.458 21.0514C135.844 19.5734 135.536 17.8719 135.536 15.9469C135.536 13.997 135.85 12.2769 136.476 10.7865C137.115 9.29614 137.994 8.1349 139.112 7.30278C140.23 6.47066 141.52 6.0546 142.983 6.0546C144.027 6.0546 144.949 6.25952 145.747 6.66937C146.546 7.07922 147.216 7.62569 147.756 8.30877C148.309 8.99185 148.733 9.74946 149.028 10.5816H149.12V0H151.203V25.4107ZM149.194 15.9282C149.194 13.6306 148.678 11.718 147.646 10.1904C146.613 8.65031 145.194 7.88029 143.388 7.88029C141.582 7.88029 140.163 8.65031 139.131 10.1904C138.111 11.7304 137.601 13.643 137.601 15.9282C137.601 17.431 137.828 18.791 138.283 20.0081C138.75 21.2252 139.413 22.194 140.273 22.9143C141.146 23.6347 142.184 23.9948 143.388 23.9948C144.592 23.9948 145.624 23.6409 146.484 22.933C147.357 22.225 148.027 21.2625 148.493 20.0454C148.96 18.8282 149.194 17.4559 149.194 15.9282Z" fill="#100102"/>
<path d="M125.139 25.7833C123.419 25.7833 121.914 25.3672 120.623 24.5351C119.346 23.6906 118.35 22.5293 117.638 21.0514C116.937 19.561 116.587 17.8595 116.587 15.9469C116.587 14.0467 116.937 12.3514 117.638 10.861C118.35 9.37066 119.321 8.19699 120.55 7.34003C121.791 6.48308 123.198 6.0546 124.77 6.0546C126.269 6.0546 127.621 6.44582 128.825 7.22826C130.042 7.99828 131.006 9.07879 131.719 10.4698C132.444 11.8484 132.806 13.4692 132.806 15.3321V16.3008H117.601V14.7546H130.797C130.797 13.4629 130.533 12.2955 130.005 11.2522C129.489 10.1966 128.776 9.36444 127.867 8.75588C126.957 8.13489 125.938 7.8244 124.807 7.8244C123.652 7.8244 122.608 8.15973 121.674 8.8304C120.752 9.48864 120.021 10.3829 119.481 11.5131C118.952 12.6308 118.688 13.879 118.688 15.2576V16.245C118.664 18.5178 119.235 20.3931 120.402 21.8711C121.582 23.3366 123.173 24.0694 125.176 24.0694C126.134 24.0694 126.964 23.9017 127.664 23.5664C128.364 23.231 128.936 22.8274 129.378 22.3554C129.82 21.8711 130.152 21.4178 130.373 20.9955L132.216 21.4053C131.811 22.4858 131.006 23.4856 129.802 24.4047C128.61 25.3237 127.056 25.7833 125.139 25.7833Z" fill="#100102"/>
<path d="M89.1777 25.4107V6.33404H91.1683V9.3334H91.3157C91.6721 8.33982 92.3049 7.55738 93.2141 6.98607C94.1234 6.40235 95.1862 6.11049 96.4027 6.11049C97.7666 6.11049 98.8847 6.45203 99.7571 7.13511C100.629 7.80577 101.225 8.71241 101.545 9.85502H101.711C102.055 8.71241 102.712 7.80577 103.683 7.13511C104.654 6.45203 105.833 6.11049 107.222 6.11049C109.04 6.11049 110.441 6.69421 111.424 7.86166C112.407 9.01669 112.898 10.594 112.898 12.5936V25.4107H110.816V12.8171C110.816 11.3143 110.459 10.1345 109.747 9.27751C109.034 8.40813 107.99 7.97344 106.613 7.97344C105.139 7.97344 104.009 8.44539 103.222 9.38928C102.436 10.3208 102.043 11.4944 102.043 12.9103V25.4107H100.052V12.7985C100.052 11.3578 99.6957 10.1966 98.983 9.31477C98.2703 8.42055 97.2075 7.97344 95.7944 7.97344C94.406 7.97344 93.294 8.44539 92.4584 9.38928C91.6352 10.3332 91.2236 11.5441 91.2236 13.022V25.4107H89.1777Z" fill="#100102"/>
<path d="M8.76114 41.9998C7.07762 41.9998 5.57735 41.708 4.26032 41.1243C2.94328 40.5292 1.90111 39.6537 1.13379 38.4978C0.377931 37.3304 0 35.8769 0 34.1373C0 32.6724 0.269133 31.4421 0.807399 30.4464C1.34566 29.4507 2.07862 28.6496 3.00627 28.043C3.93392 27.4364 4.98755 26.9787 6.16715 26.6696C7.35821 26.3606 8.60653 26.1432 9.91211 26.0173C11.4467 25.8571 12.6836 25.7083 13.6227 25.571C14.5618 25.4222 15.2432 25.2047 15.667 24.9186C16.0907 24.6325 16.3026 24.209 16.3026 23.6482V23.5452C16.3026 22.458 15.959 21.6168 15.2719 21.0217C14.5962 20.4266 13.6342 20.129 12.3858 20.129C11.0688 20.129 10.0209 20.4208 9.24214 21.0045C8.46337 21.5768 7.94801 22.2978 7.69606 23.1676L0.92765 22.6182C1.27122 21.016 1.94692 19.6311 2.95474 18.4638C3.96255 17.285 5.26241 16.3809 6.8543 15.7514C8.45765 15.1105 10.3129 14.79 12.4202 14.79C13.8861 14.79 15.289 14.9617 16.629 15.305C17.9804 15.6484 19.1772 16.1806 20.2193 16.9016C21.273 17.6226 22.1033 18.5496 22.7102 19.6827C23.3172 20.8042 23.6207 22.149 23.6207 23.7169V41.502H16.6805V37.8454H16.4744C16.0506 38.6694 15.4837 39.3962 14.7737 40.0256C14.0636 40.6436 13.2104 41.13 12.2141 41.4848C11.2177 41.8282 10.0667 41.9998 8.76114 41.9998ZM10.8569 36.9527C11.9335 36.9527 12.884 36.741 13.7086 36.3175C14.5332 35.8826 15.1802 35.299 15.6498 34.5665C16.1193 33.834 16.3541 33.0043 16.3541 32.0773V29.279C16.1251 29.4278 15.8101 29.5652 15.4093 29.691C15.0199 29.8055 14.579 29.9142 14.0865 30.0172C13.5941 30.1088 13.1016 30.1946 12.6092 30.2747C12.1167 30.3434 11.6701 30.4063 11.2692 30.4636C10.4103 30.5895 9.66016 30.7897 9.01882 31.0644C8.37748 31.3391 7.8793 31.711 7.52427 32.1803C7.16924 32.6381 6.99173 33.2103 6.99173 33.897C6.99173 34.8927 7.35248 35.6537 8.07399 36.1802C8.80695 36.6952 9.7346 36.9527 10.8569 36.9527Z" fill="#F74251"/>
<path d="M76.2285 41.8193C74.2243 41.8193 72.4091 41.3042 70.7828 40.2742C69.168 39.2328 67.8853 37.7049 66.9348 35.6906C65.9957 33.6649 65.5261 31.1814 65.5261 28.2401C65.5261 25.2187 66.0129 22.7066 66.9863 20.7038C67.9598 18.6895 69.2539 17.1845 70.8687 16.1888C72.4949 15.1817 74.2758 14.6781 76.2113 14.6781C77.6886 14.6781 78.9198 14.9299 79.9047 15.4335C80.9011 15.9256 81.7027 16.5436 82.3097 17.2875C82.9281 18.02 83.3977 18.741 83.7184 19.4506H83.9417V6.23193H91.2426V41.3901H84.0276V37.167H83.7184C83.3748 37.8994 82.8881 38.6262 82.2582 39.3472C81.6397 40.0568 80.8323 40.6462 79.836 41.1154C78.8511 41.5846 77.6486 41.8193 76.2285 41.8193ZM78.5476 35.9996C79.7272 35.9996 80.7235 35.6792 81.5367 35.0383C82.3612 34.3859 82.9911 33.4761 83.4263 32.3087C83.873 31.1413 84.0963 29.7737 84.0963 28.2058C84.0963 26.6379 83.8787 25.2759 83.4435 24.12C83.0083 22.9641 82.3784 22.0714 81.5538 21.442C80.7293 20.8125 79.7272 20.4978 78.5476 20.4978C77.3451 20.4978 76.3315 20.8239 75.5069 21.4763C74.6824 22.1286 74.0582 23.0328 73.6345 24.1887C73.2107 25.3446 72.9989 26.6836 72.9989 28.2058C72.9989 29.7394 73.2107 31.0956 73.6345 32.2744C74.0697 33.4417 74.6938 34.3573 75.5069 35.0211C76.3315 35.6735 77.3451 35.9996 78.5476 35.9996Z" fill="#F74251"/>
<path d="M25.5955 41.502V15.1334H32.57V19.7857H32.8792C33.4289 18.2406 34.3451 17.0218 35.6278 16.1291C36.9105 15.2364 38.4451 14.79 40.2317 14.79C42.0412 14.79 43.5816 15.2421 44.8528 16.1462C46.124 17.0389 46.9715 18.2521 47.3952 19.7857H47.6701C48.2084 18.275 49.1818 17.0675 50.5905 16.1634C52.0106 15.2478 53.6884 14.79 55.6238 14.79C58.0861 14.79 60.0846 15.574 61.6192 17.1419C63.1653 18.6984 63.9383 20.9072 63.9383 23.7684V41.502H56.6374V25.2104C56.6374 23.7455 56.248 22.6468 55.4692 21.9144C54.6904 21.1819 53.717 20.8157 52.5488 20.8157C51.2204 20.8157 50.1839 21.2391 49.4395 22.086C48.6951 22.9215 48.3229 24.0259 48.3229 25.3993V41.502H41.2281V25.0559C41.2281 23.7627 40.8559 22.7327 40.1115 21.9659C39.3785 21.1991 38.4108 20.8157 37.2083 20.8157C36.3951 20.8157 35.6622 21.0217 35.0094 21.4337C34.368 21.8343 33.8584 22.4008 33.4805 23.1332C33.1026 23.8542 32.9136 24.7012 32.9136 25.674V41.502H25.5955Z" fill="#F74251"/>
</svg>
