<svg width="142" height="34" viewBox="0 0 142 34" fill="none" xmlns="http://www.w3.org/2000/svg">
<path d="M135.315 20.8722C134.438 20.8722 133.635 20.6962 132.907 20.3443C132.179 19.9924 131.596 19.4797 131.157 18.8061C130.729 18.1325 130.514 17.308 130.514 16.3328C130.514 15.6994 130.624 15.1363 130.843 14.6437C131.073 14.141 131.422 13.7087 131.89 13.3467C132.359 12.9747 132.957 12.6681 133.685 12.4268C134.423 12.1855 135.295 12.0045 136.302 11.8839C137.11 11.7934 137.813 11.7029 138.411 11.6124C139.009 11.5219 139.468 11.3812 139.787 11.1901C140.116 10.9991 140.28 10.7075 140.28 10.3154V9.7122C140.28 8.67663 139.946 7.8522 139.278 7.23891C138.61 6.62561 137.708 6.31896 136.571 6.31896C135.594 6.31896 134.742 6.54015 134.014 6.98253C133.296 7.4249 132.807 8.01809 132.548 8.76209L130.948 8.44539C131.337 7.32939 132.035 6.45971 133.042 5.83636C134.049 5.21302 135.22 4.90134 136.556 4.90134C137.563 4.90134 138.476 5.08734 139.293 5.45934C140.121 5.83134 140.779 6.37928 141.267 7.10317C141.756 7.82706 142 8.71685 142 9.77252V20.5706H140.34V17.8107H140.265C139.846 18.6955 139.208 19.4294 138.351 20.0126C137.503 20.5856 136.491 20.8722 135.315 20.8722ZM135.644 19.545C136.541 19.545 137.339 19.3239 138.037 18.8815C138.745 18.429 139.298 17.8157 139.697 17.0416C140.106 16.2574 140.31 15.3676 140.31 14.3722V12.1855C140.051 12.3765 139.722 12.5324 139.323 12.653C138.934 12.7736 138.5 12.8742 138.022 12.9546C137.553 13.0351 137.08 13.1004 136.601 13.1507C135.016 13.3417 133.874 13.6986 133.176 14.2214C132.478 14.7442 132.129 15.453 132.129 16.3479C132.129 17.313 132.468 18.0872 133.146 18.6703C133.834 19.2535 134.667 19.545 135.644 19.545Z" fill="#100102"/>
<path d="M125.768 20.5706V6.10592H127.428V20.5706H125.768ZM126.635 4.49033C126.306 4.49033 126.027 4.37974 125.798 4.15855C125.568 3.92731 125.454 3.66088 125.454 3.35926C125.454 3.05763 125.568 2.79623 125.798 2.57504C126.027 2.35385 126.306 2.24326 126.635 2.24326C126.934 2.24326 127.193 2.35385 127.413 2.57504C127.632 2.79623 127.742 3.05763 127.742 3.35926C127.742 3.67093 127.632 3.93736 127.413 4.15855C127.193 4.37974 126.934 4.49033 126.635 4.49033Z" fill="#100102"/>
<path d="M122.69 20.5706H121.06V17.2075H120.925C120.686 17.8811 120.342 18.4944 119.894 19.0474C119.455 19.6003 118.911 20.0427 118.263 20.3745C117.615 20.7063 116.868 20.8722 116.02 20.8722C114.814 20.8722 113.757 20.5354 112.85 19.8617C111.942 19.1781 111.234 18.238 110.726 17.0416C110.227 15.8452 109.978 14.4678 109.978 12.9094C109.978 11.3309 110.232 9.93841 110.741 8.73193C111.259 7.52544 111.972 6.58539 112.879 5.91177C113.787 5.23815 114.834 4.90134 116.02 4.90134C116.868 4.90134 117.615 5.06723 118.263 5.39902C118.911 5.7308 119.455 6.17318 119.894 6.72615C120.342 7.27912 120.686 7.89242 120.925 8.56604H121V0H122.69V20.5706ZM121.06 12.8943C121.06 11.0343 120.641 9.48598 119.804 8.24933C118.966 7.00263 117.815 6.37928 116.349 6.37928C114.884 6.37928 113.732 7.00263 112.894 8.24933C112.067 9.49603 111.653 11.0444 111.653 12.8943C111.653 14.1108 111.838 15.2118 112.206 16.197C112.585 17.1823 113.124 17.9666 113.822 18.5497C114.53 19.1328 115.372 19.4244 116.349 19.4244C117.326 19.4244 118.164 19.1379 118.862 18.5648C119.57 17.9917 120.113 17.2125 120.492 16.2272C120.871 15.2419 121.06 14.1309 121.06 12.8943Z" fill="#100102"/>
<path d="M101.541 20.8722C100.145 20.8722 98.9241 20.5354 97.8772 19.8617C96.8403 19.1781 96.0327 18.238 95.4545 17.0416C94.8861 15.8351 94.602 14.4577 94.602 12.9094C94.602 11.3711 94.8861 9.99874 95.4545 8.79225C96.0327 7.58577 96.8204 6.63566 97.8174 5.94193C98.8244 5.24821 99.966 4.90134 101.242 4.90134C102.459 4.90134 103.555 5.21804 104.532 5.85145C105.519 6.4748 106.302 7.3495 106.88 8.47555C107.469 9.59155 107.763 10.9036 107.763 12.4117V13.1959H95.4245V11.9442H106.133C106.133 10.8986 105.918 9.95349 105.49 9.10895C105.071 8.25436 104.492 7.58074 103.755 7.08809C103.017 6.58539 102.189 6.33404 101.272 6.33404C100.335 6.33404 99.4874 6.6055 98.7297 7.14842C97.9819 7.68128 97.3887 8.40517 96.95 9.32009C96.5213 10.225 96.3069 11.2354 96.3069 12.3514V13.1507C96.287 14.9906 96.7506 16.5087 97.6978 17.7052C98.6549 18.8915 99.9461 19.4847 101.571 19.4847C102.349 19.4847 103.022 19.349 103.59 19.0775C104.158 18.8061 104.622 18.4793 104.981 18.0973C105.34 17.7052 105.609 17.3382 105.789 16.9963L107.284 17.3281C106.955 18.2028 106.302 19.0122 105.325 19.7562C104.358 20.5002 103.097 20.8722 101.541 20.8722Z" fill="#100102"/>
<path d="M72.3613 20.5706V5.12756H73.9765V7.55561H74.0962C74.3853 6.75128 74.8988 6.11788 75.6366 5.65539C76.3744 5.18285 77.2368 4.94658 78.2238 4.94658C79.3305 4.94658 80.2378 5.22307 80.9457 5.77604C81.6536 6.31896 82.1372 7.0529 82.3964 7.97788H82.531C82.8102 7.0529 83.3436 6.31896 84.1312 5.77604C84.9189 5.22307 85.876 4.94658 87.0027 4.94658C88.4783 4.94658 89.6149 5.41912 90.4125 6.3642C91.2101 7.29923 91.6089 8.57609 91.6089 10.1948V20.5706H89.919V10.3758C89.919 9.15922 89.6298 8.20409 89.0516 7.51036C88.4733 6.80658 87.6258 6.45469 86.5091 6.45469C85.3127 6.45469 84.3954 6.83674 83.7573 7.60085C83.1192 8.3549 82.8002 9.30501 82.8002 10.4512V20.5706H81.185V10.3607C81.185 9.19441 80.8959 8.25436 80.3176 7.54053C79.7393 6.81664 78.8769 6.45469 77.7303 6.45469C76.6037 6.45469 75.7014 6.83674 75.0234 7.60085C74.3554 8.36495 74.0214 9.34522 74.0214 10.5417V20.5706H72.3613Z" fill="#100102"/>
<path d="M7.10904 34.0001C5.74299 34.0001 4.52562 33.7639 3.45694 33.2914C2.38826 32.8096 1.54261 32.1008 0.919993 31.1651C0.306664 30.2201 0 29.0435 0 27.6352C0 26.4493 0.218382 25.4534 0.655147 24.6473C1.09191 23.8413 1.68665 23.1928 2.43938 22.7017C3.1921 22.2107 4.04704 21.8401 5.0042 21.59C5.97066 21.3398 6.98358 21.1638 8.04297 21.0619C9.28821 20.9322 10.2918 20.8117 11.0539 20.7006C11.8159 20.5801 12.3688 20.4041 12.7126 20.1725C13.0565 19.9408 13.2284 19.598 13.2284 19.1441V19.0607C13.2284 18.1805 12.9496 17.4996 12.392 17.0178C11.8437 16.536 11.0631 16.2952 10.0502 16.2952C8.98155 16.2952 8.13125 16.5314 7.49934 17.0039C6.86742 17.4672 6.44924 18.0508 6.2448 18.755L0.752722 18.3102C1.03151 17.0132 1.57979 15.8921 2.39756 14.9471C3.21533 13.9929 4.27007 13.2609 5.56178 12.7514C6.86278 12.2326 8.36822 11.9731 10.0781 11.9731C11.2676 11.9731 12.406 12.1121 13.4932 12.3901C14.5898 12.668 15.5609 13.0988 16.4065 13.6825C17.2615 14.2662 17.9352 15.0166 18.4277 15.9338C18.9203 16.8418 19.1665 17.9304 19.1665 19.1997V33.5971H13.535V30.637H13.3678C13.0239 31.3041 12.5639 31.8924 11.9878 32.402C11.4116 32.9022 10.7193 33.296 9.91083 33.5832C9.10235 33.8612 8.16842 34.0001 7.10904 34.0001ZM8.80963 29.9144C9.68316 29.9144 10.4545 29.743 11.1236 29.4002C11.7926 29.0481 12.3177 28.5756 12.6987 27.9827C13.0797 27.3897 13.2702 26.718 13.2702 25.9676V23.7023C13.0843 23.8228 12.8288 23.934 12.5035 24.0359C12.1876 24.1285 11.8298 24.2165 11.4302 24.2999C11.0306 24.374 10.631 24.4435 10.2314 24.5084C9.83184 24.564 9.46942 24.6149 9.14417 24.6612C8.44721 24.7632 7.83853 24.9253 7.31813 25.1476C6.79773 25.37 6.39349 25.6711 6.10541 26.051C5.81733 26.4215 5.67329 26.8848 5.67329 27.4407C5.67329 28.2467 5.96602 28.8628 6.55147 29.289C7.14621 29.7059 7.89893 29.9144 8.80963 29.9144Z" fill="#F74251"/>
<path d="M61.854 33.8537C60.2277 33.8537 58.7548 33.4368 57.4352 32.603C56.1249 31.7599 55.0841 30.523 54.3128 28.8924C53.5508 27.2526 53.1698 25.2421 53.1698 22.8611C53.1698 20.4152 53.5647 18.3816 54.3546 16.7602C55.1445 15.1296 56.1946 13.9113 57.5049 13.1053C58.8245 12.29 60.2695 11.8823 61.84 11.8823C63.0388 11.8823 64.0378 12.0861 64.837 12.4938C65.6455 12.8922 66.296 13.3925 66.7885 13.9947C67.2903 14.5876 67.6713 15.1713 67.9315 15.7457H68.1127V5.04492H74.0369V33.5063H68.1824V30.0876H67.9315C67.6527 30.6805 67.2578 31.2688 66.7467 31.8525C66.2449 32.4269 65.5897 32.9041 64.7812 33.2839C63.982 33.6638 63.0063 33.8537 61.854 33.8537ZM63.7358 29.1426C64.6929 29.1426 65.5014 28.8832 66.1612 28.3643C66.8303 27.8362 67.3414 27.0997 67.6945 26.1547C68.057 25.2097 68.2382 24.1025 68.2382 22.8333C68.2382 21.564 68.0616 20.4615 67.7085 19.5258C67.3553 18.59 66.8442 17.8674 66.1752 17.3578C65.5061 16.8482 64.6929 16.5935 63.7358 16.5935C62.76 16.5935 61.9376 16.8575 61.2685 17.3856C60.5994 17.9137 60.093 18.6456 59.7491 19.5813C59.4053 20.5171 59.2334 21.6011 59.2334 22.8333C59.2334 24.0748 59.4053 25.1726 59.7491 26.1269C60.1023 27.0719 60.6087 27.8131 61.2685 28.3504C61.9376 28.8785 62.76 29.1426 63.7358 29.1426Z" fill="#F74251"/>
<path d="M20.7688 33.5971V12.2511H26.4281V16.0172H26.6791C27.1251 14.7665 27.8685 13.7798 28.9093 13.0571C29.9501 12.3345 31.1954 11.9731 32.6451 11.9731C34.1133 11.9731 35.3632 12.3391 36.3947 13.071C37.4262 13.7937 38.1139 14.7757 38.4578 16.0172H38.6808C39.1175 14.7943 39.9074 13.8168 41.0505 13.0849C42.2028 12.3437 43.5642 11.9731 45.1347 11.9731C47.1326 11.9731 48.7542 12.6078 49.9995 13.8771C51.254 15.1371 51.8813 16.9252 51.8813 19.2414V33.5971H45.9571V20.4087C45.9571 19.2228 45.6411 18.3334 45.0092 17.7405C44.3773 17.1475 43.5874 16.851 42.6395 16.851C41.5616 16.851 40.7206 17.1938 40.1165 17.8794C39.5125 18.5558 39.2105 19.4498 39.2105 20.5616V33.5971H33.4536V20.2836C33.4536 19.2367 33.1515 18.4029 32.5475 17.7822C31.9528 17.1614 31.1675 16.851 30.1918 16.851C29.532 16.851 28.9372 17.0178 28.4075 17.3513C27.8871 17.6756 27.4736 18.1342 27.1669 18.7272C26.8603 19.3108 26.7069 19.9964 26.7069 20.7839V33.5971H20.7688Z" fill="#F74251"/>
</svg>
