<svg width="167" height="40" viewBox="0 0 167 40" fill="none" xmlns="http://www.w3.org/2000/svg">
<path d="M159.138 24.5555C158.106 24.5555 157.162 24.3485 156.306 23.9345C155.45 23.5205 154.764 22.9173 154.249 22.1248C153.744 21.3323 153.492 20.3624 153.492 19.215C153.492 18.4699 153.621 17.8075 153.879 17.2279C154.149 16.6365 154.559 16.1279 155.11 15.702C155.661 15.2644 156.365 14.9036 157.221 14.6197C158.089 14.3359 159.115 14.123 160.299 13.981C161.249 13.8746 162.075 13.7681 162.779 13.6617C163.482 13.5552 164.022 13.3896 164.397 13.1649C164.784 12.9401 164.977 12.5971 164.977 12.1358V11.4261C164.977 10.2078 164.585 9.23788 163.799 8.51636C163.013 7.79484 161.952 7.43407 160.616 7.43407C159.466 7.43407 158.464 7.69429 157.608 8.21474C156.764 8.73518 156.189 9.43305 155.884 10.3083L154.002 9.93575C154.46 8.62281 155.28 7.59967 156.465 6.86631C157.649 6.13296 159.027 5.76628 160.598 5.76628C161.782 5.76628 162.855 5.98511 163.817 6.42275C164.79 6.8604 165.564 7.50504 166.138 8.35668C166.713 9.20831 167 10.2551 167 11.4971V24.2007H165.048V20.9538H164.96C164.467 21.9947 163.717 22.8581 162.709 23.5442C161.712 24.2184 160.522 24.5555 159.138 24.5555ZM159.525 22.9942C160.58 22.9942 161.518 22.7339 162.339 22.2135C163.172 21.6812 163.822 20.9597 164.292 20.0489C164.772 19.1263 165.013 18.0795 165.013 16.9085V14.3359C164.708 14.5606 164.321 14.7439 163.852 14.8859C163.395 15.0278 162.884 15.1461 162.322 15.2407C161.771 15.3354 161.214 15.4122 160.651 15.4714C158.786 15.6961 157.444 16.116 156.623 16.7311C155.802 17.3462 155.392 18.1801 155.392 19.2328C155.392 20.3683 155.79 21.2791 156.588 21.9651C157.397 22.6511 158.376 22.9942 159.525 22.9942Z" fill="#100102"/>
<path d="M147.91 24.2007V7.18343H149.862V24.2007H147.91ZM148.93 5.28275C148.543 5.28275 148.215 5.15264 147.945 4.89241C147.675 4.62036 147.541 4.30691 147.541 3.95207C147.541 3.59722 147.675 3.28968 147.945 3.02946C148.215 2.76924 148.543 2.63913 148.93 2.63913C149.282 2.63913 149.587 2.76924 149.845 3.02946C150.103 3.28968 150.232 3.59722 150.232 3.95207C150.232 4.31874 150.103 4.63219 149.845 4.89241C149.587 5.15264 149.282 5.28275 148.93 5.28275Z" fill="#100102"/>
<path d="M144.291 24.2007H142.374V20.2441H142.215C141.934 21.0366 141.529 21.7581 141.002 22.4087C140.486 23.0592 139.847 23.5797 139.085 23.97C138.322 24.3603 137.443 24.5555 136.446 24.5555C135.027 24.5555 133.785 24.1593 132.718 23.3668C131.651 22.5624 130.818 21.4565 130.22 20.0489C129.634 18.6414 129.341 17.0209 129.341 15.1875C129.341 13.3305 129.64 11.6923 130.238 10.2729C130.847 8.85346 131.686 7.74752 132.753 6.95503C133.82 6.16253 135.051 5.76628 136.446 5.76628C137.443 5.76628 138.322 5.96145 139.085 6.35178C139.847 6.74212 140.486 7.26256 141.002 7.91312C141.529 8.56367 141.934 9.2852 142.215 10.0777H142.303V0H144.291V24.2007ZM142.374 15.1698C142.374 12.9815 141.881 11.16 140.896 9.7051C139.911 8.23839 138.557 7.50504 136.833 7.50504C135.11 7.50504 133.755 8.23839 132.77 9.7051C131.797 11.1718 131.31 12.9934 131.31 15.1698C131.31 16.601 131.527 17.8962 131.961 19.0553C132.407 20.2145 133.04 21.1371 133.861 21.8232C134.693 22.5092 135.684 22.8522 136.833 22.8522C137.982 22.8522 138.967 22.5151 139.788 21.8409C140.621 21.1667 141.26 20.25 141.705 19.0908C142.151 17.9317 142.374 16.6246 142.374 15.1698Z" fill="#100102"/>
<path d="M119.418 24.5555C117.777 24.5555 116.34 24.1593 115.109 23.3668C113.89 22.5624 112.94 21.4565 112.26 20.0489C111.592 18.6295 111.257 17.0091 111.257 15.1875C111.257 13.3778 111.592 11.7632 112.26 10.3438C112.94 8.92443 113.866 7.80666 115.039 6.99051C116.223 6.17436 117.566 5.76628 119.067 5.76628C120.497 5.76628 121.787 6.13888 122.936 6.88406C124.097 7.61741 125.017 8.64647 125.697 9.97124C126.389 11.2842 126.735 12.8278 126.735 14.602V15.5246H112.225V14.052H124.818C124.818 12.8218 124.566 11.71 124.062 10.7164C123.569 9.71101 122.889 8.91852 122.021 8.33893C121.154 7.74752 120.181 7.45181 119.102 7.45181C118 7.45181 117.003 7.77118 116.112 8.4099C115.232 9.0368 114.535 9.88844 114.019 10.9648C113.515 12.0294 113.262 13.2181 113.262 14.531V15.4714C113.239 17.636 113.784 19.422 114.898 20.8296C116.024 22.2253 117.542 22.9232 119.454 22.9232C120.368 22.9232 121.16 22.7635 121.828 22.4442C122.496 22.1248 123.042 21.7404 123.464 21.2909C123.886 20.8296 124.202 20.3979 124.413 19.9957L126.172 20.386C125.785 21.4151 125.017 22.3673 123.868 23.2426C122.731 24.1179 121.248 24.5555 119.418 24.5555Z" fill="#100102"/>
<path d="M85.1011 24.2007V6.03242H87.0006V8.88895H87.1413C87.4814 7.94269 88.0852 7.1975 88.9529 6.65341C89.8206 6.09748 90.8349 5.81951 91.9957 5.81951C93.2973 5.81951 94.3643 6.14479 95.1968 6.79534C96.0293 7.43407 96.598 8.29753 96.9029 9.38574H97.0612C97.3895 8.29753 98.0168 7.43407 98.9431 6.79534C99.8695 6.14479 100.995 5.81951 102.32 5.81951C104.055 5.81951 105.392 6.37544 106.33 7.4873C107.268 8.58733 107.737 10.0895 107.737 11.9939V24.2007H105.75V12.2068C105.75 10.7756 105.41 9.65187 104.73 8.83572C104.05 8.00774 103.053 7.59375 101.74 7.59375C100.333 7.59375 99.2539 8.04323 98.5034 8.94218C97.753 9.8293 97.3778 10.9471 97.3778 12.2955V24.2007H95.4782V12.189C95.4782 10.817 95.1382 9.71101 94.4581 8.87121C93.778 8.01957 92.7637 7.59375 91.4153 7.59375C90.0903 7.59375 89.0291 8.04323 88.2318 8.94218C87.4462 9.84112 87.0534 10.9944 87.0534 12.4019V24.2007H85.1011Z" fill="#100102"/>
<path d="M8.36063 40C6.75408 40 5.32239 39.7221 4.06556 39.1662C2.80873 38.5994 1.8142 37.7656 1.08196 36.6647C0.360655 35.5529 0 34.1687 0 32.5119C0 31.1168 0.25683 29.945 0.770489 28.9968C1.28415 28.0485 1.9836 27.2855 2.86884 26.7078C3.75409 26.1301 4.75955 25.6941 5.88523 25.3999C7.02183 25.1056 8.21309 24.8985 9.45898 24.7786C10.9235 24.626 12.1038 24.4843 13 24.3535C13.8961 24.2118 14.5464 24.0047 14.9508 23.7322C15.3551 23.4597 15.5573 23.0564 15.5573 22.5223V22.4242C15.5573 21.3888 15.2295 20.5876 14.5737 20.0208C13.9289 19.4541 13.0109 19.1707 11.8196 19.1707C10.5628 19.1707 9.56281 19.4486 8.81964 20.0045C8.07648 20.5495 7.58467 21.2362 7.34424 22.0645L0.885243 21.5413C1.21311 20.0154 1.85792 18.6965 2.81966 17.5847C3.78141 16.4621 5.02184 15.601 6.54096 15.0015C8.07101 14.3911 9.8415 14.0859 11.8524 14.0859C13.2513 14.0859 14.5901 14.2494 15.8688 14.5764C17.1584 14.9034 18.3005 15.4103 19.295 16.0969C20.3005 16.7836 21.0928 17.6665 21.6721 18.7456C22.2513 19.8137 22.5409 21.0945 22.5409 22.5877V39.5259H15.918V36.0434H15.7213C15.3169 36.8282 14.7759 37.5203 14.0983 38.1198C13.4207 38.7084 12.6065 39.1717 11.6557 39.5095C10.7049 39.8365 9.60653 40 8.36063 40ZM10.3606 35.1933C11.3879 35.1933 12.295 34.9916 13.0819 34.5883C13.8688 34.1741 14.4863 33.6182 14.9344 32.9207C15.3825 32.2231 15.6065 31.4328 15.6065 30.55V27.885C15.3879 28.0267 15.0874 28.1575 14.7049 28.2774C14.3333 28.3864 13.9125 28.4899 13.4426 28.588C12.9726 28.6752 12.5027 28.757 12.0327 28.8333C11.5628 28.8987 11.1366 28.9586 10.7541 29.0131C9.93439 29.133 9.21855 29.3238 8.60653 29.5853C7.99451 29.8469 7.5191 30.2012 7.1803 30.6481C6.84151 31.0841 6.67211 31.629 6.67211 32.283C6.67211 33.2313 7.01637 33.9561 7.70489 34.4575C8.40434 34.948 9.28959 35.1933 10.3606 35.1933Z" fill="#F74251"/>
<path d="M72.7438 39.828C70.8313 39.828 69.099 39.3375 67.5471 38.3565C66.0062 37.3647 64.7821 35.9095 63.875 33.9912C62.9788 32.0619 62.5308 29.6967 62.5308 26.8955C62.5308 24.0179 62.9952 21.6255 63.9242 19.718C64.8532 17.7997 66.0881 16.3663 67.6291 15.4181C69.181 14.4589 70.8805 13.9793 72.7274 13.9793C74.1373 13.9793 75.3121 14.2191 76.252 14.6987C77.2028 15.1674 77.9679 15.756 78.5471 16.4644C79.1373 17.162 79.5853 17.8487 79.8914 18.5245H80.1045V5.9353H87.0717V39.4193H80.1864V35.3973H79.8914C79.5635 36.0948 79.099 36.787 78.4979 37.4737C77.9078 38.1494 77.1373 38.7108 76.1865 39.1577C75.2466 39.6046 74.099 39.828 72.7438 39.828ZM74.9569 34.2855C76.0826 34.2855 77.0334 33.9803 77.8094 33.3699C78.5963 32.7486 79.1974 31.8821 79.6127 30.7703C80.0389 29.6586 80.252 28.356 80.252 26.8628C80.252 25.3695 80.0444 24.0724 79.6291 22.9716C79.2138 21.8707 78.6127 21.0205 77.8258 20.421C77.0389 19.8216 76.0826 19.5218 74.9569 19.5218C73.8094 19.5218 72.8422 19.8325 72.0553 20.4537C71.2684 21.075 70.6728 21.9361 70.2684 23.037C69.8641 24.1378 69.6619 25.4131 69.6619 26.8628C69.6619 28.3233 69.8641 29.615 70.2684 30.7376C70.6837 31.8494 71.2794 32.7214 72.0553 33.3536C72.8422 33.9748 73.8094 34.2855 74.9569 34.2855Z" fill="#F74251"/>
<path d="M24.4253 39.5259V14.4129H31.081V18.8437H31.3761C31.9007 17.3722 32.775 16.2114 33.999 15.3612C35.2231 14.511 36.6875 14.0859 38.3925 14.0859C40.1192 14.0859 41.5892 14.5165 42.8023 15.3776C44.0154 16.2277 44.8241 17.3831 45.2285 18.8437H45.4908C46.0045 17.4049 46.9334 16.255 48.2777 15.3939C49.6329 14.5219 51.2339 14.0859 53.0809 14.0859C55.4307 14.0859 57.3378 14.8326 58.8022 16.3258C60.2776 17.8082 61.0153 19.9118 61.0153 22.6368V39.5259H54.0481V24.0101C54.0481 22.615 53.6766 21.5686 52.9334 20.871C52.1902 20.1734 51.2613 19.8246 50.1465 19.8246C48.8788 19.8246 47.8897 20.2279 47.1793 21.0345C46.4689 21.8302 46.1137 22.882 46.1137 24.19V39.5259H39.3433V23.863C39.3433 22.6313 38.9881 21.6503 38.2777 20.9201C37.5783 20.1898 36.6548 19.8246 35.5072 19.8246C34.7313 19.8246 34.0318 20.0208 33.4089 20.4132C32.7968 20.7947 32.3105 21.3343 31.9499 22.0318C31.5892 22.7185 31.4089 23.5251 31.4089 24.4516V39.5259H24.4253Z" fill="#F74251"/>
</svg>
