<svg width="140" height="89" viewBox="0 0 140 89" fill="none" xmlns="http://www.w3.org/2000/svg">
<g clip-path="url(#clip0_2584_17077)">
<path fill-rule="evenodd" clip-rule="evenodd" d="M28.4484 77.8028C27.9251 77.8058 27.4145 77.9649 26.9809 78.2601C26.5475 78.5553 26.2105 78.9733 26.0127 79.4612C25.815 79.9493 25.7652 80.4853 25.8698 81.0018C25.9745 81.5181 26.2286 81.9918 26.6004 82.3628C26.9721 82.7337 27.4446 82.9853 27.9583 83.0858C28.472 83.1864 29.0037 83.1313 29.4863 82.9276C29.9689 82.7238 30.3807 82.3806 30.6698 81.9412C30.9588 81.5018 31.1119 80.986 31.11 80.4589C31.11 79.7519 30.8312 79.0738 30.3348 78.5738C29.8385 78.0738 29.1652 77.7929 28.4632 77.7929L28.4484 77.8028ZM136.164 75.8481C136.906 75.8704 137.634 76.0568 138.298 76.3947C138.961 76.7325 139.542 77.2134 140 77.8028V73.0778C138.678 72.213 137.132 71.7598 135.556 71.7745C131.166 71.7745 127.354 74.9379 127.354 80.3793C127.354 85.5969 130.811 88.9941 135.625 88.9941C137.17 89.0557 138.695 88.6317 139.99 87.7804V83.1498C139.501 83.6878 138.909 84.1217 138.249 84.4258C137.591 84.7299 136.878 84.8981 136.154 84.9205C133.566 84.9205 132.02 82.9906 132.02 80.5236C132.02 77.8476 133.66 75.8481 136.154 75.8481H136.164ZM127.858 72.242L121.715 80.1257L128.021 88.5264H122.361L117.669 81.5233V88.5264H113.146V72.242H117.669V79.0811L122.549 72.242H127.858ZM99.7742 82.0108V72.242H95.409V88.5264H99.8532L106.115 78.7528V88.5264H110.48V72.242H106.036L99.7742 82.0108ZM86.6538 79.5686H85.3649V75.8233H86.6538C88.5945 75.8233 88.871 76.8677 88.871 77.6835C88.871 78.3799 88.6636 79.5686 86.6538 79.5686ZM87.6413 72.242H80.8268V88.5264H85.3599V83.1498H87.6413C92.219 83.1498 93.5326 79.9417 93.5326 77.6785C93.5326 75.4154 92.2388 72.2371 87.6413 72.2371V72.242ZM67.3409 76.1465H70.8963V88.5264H75.4245V76.1465H79.0095V72.242H67.3458V76.1465H67.3409ZM54.8129 82.0108V72.242H50.4476V88.5264H54.8918L61.1484 78.7528V88.5264H65.5138V72.242H61.0694L54.8129 82.0108ZM41.3219 85.2686H39.3863V81.8466H41.3219C42.759 81.8466 43.5886 82.2694 43.5886 83.5476C43.5886 84.8259 42.7343 85.2686 41.3219 85.2686ZM41.7665 78.5887H39.3863V76.1465H46.7933V72.242H34.8433V88.5264H41.7565C42.9318 88.5264 48.1069 88.5712 48.1069 83.478C48.1069 78.5688 42.9762 78.5887 41.7565 78.5887H41.7665ZM9.51567 80.3793C9.51567 85.5969 12.9724 88.9941 17.7871 88.9941C19.332 89.0561 20.8577 88.6319 22.1523 87.7804V83.1498C21.6623 83.6878 21.0706 84.1217 20.4116 84.4258C19.7526 84.7299 19.0399 84.8981 18.3155 84.9205C15.7278 84.9205 14.1821 82.9906 14.1821 80.5236C14.1821 77.8476 15.8217 75.8481 18.3155 75.8481C19.0582 75.8704 19.7871 76.0568 20.4501 76.3947C21.1133 76.7325 21.6944 77.2134 22.1523 77.8028V73.0778C20.8301 72.213 19.2844 71.7598 17.708 71.7745C13.318 71.7745 9.50586 74.9379 9.50586 80.3793H9.51567ZM0 75.9825H2.46905V88.5216H6.65159V72.242H0V75.9825Z" fill="#1F1A17"/>
<path fill-rule="evenodd" clip-rule="evenodd" d="M70.7269 0C68.9396 0.00100484 67.1575 0.19609 65.4127 0.581517V24.4149C65.4077 25.45 65.7073 26.464 66.2748 27.3318C66.8423 28.1996 67.6527 28.8834 68.6062 29.2987C69.5596 29.7139 70.6144 29.8426 71.6406 29.6689C72.6667 29.4952 73.6193 29.0266 74.3809 28.3209C75.1424 27.6153 75.6798 26.7034 75.9264 25.6977C76.1732 24.692 76.1187 23.6367 75.7694 22.6614C75.4203 21.6863 74.7917 20.834 73.9614 20.2097C73.1311 19.5856 72.1352 19.2167 71.0964 19.1485V14.9058C72.9785 14.976 74.7982 15.5957 76.3285 16.6874C77.859 17.779 79.0324 19.2946 79.7027 21.0451C80.3729 22.7953 80.5103 24.7032 80.0979 26.5308C79.6852 28.3583 78.741 30.0247 77.3827 31.3221C76.0244 32.6196 74.3121 33.4908 72.4593 33.8273C70.6066 34.1637 68.6952 33.9503 66.9635 33.2138C65.2319 32.4772 63.7565 31.2503 62.7213 29.6857C61.686 28.121 61.1367 26.2879 61.1417 24.4149V1.93532C60.5336 2.19586 59.9442 2.47965 59.3641 2.78197V24.4194C59.3662 26.6417 60.0262 28.8142 61.2618 30.6658C62.4974 32.5173 64.254 33.9661 66.3123 34.8312C68.3706 35.6962 70.6395 35.9392 72.8359 35.5301C75.0322 35.1208 77.0587 34.0775 78.6626 32.5302C80.2664 30.9829 81.3766 29.0001 81.8545 26.8292C82.3325 24.6585 82.157 22.3957 81.3501 20.3234C80.5431 18.2512 79.1404 16.4611 77.3169 15.1767C75.4934 13.8922 73.3299 13.1701 71.0964 13.1007V8.8578C74.1724 8.92828 77.1592 9.89981 79.6823 11.6508C82.2056 13.4017 84.1532 15.8541 85.2813 18.7008C86.4094 21.5475 86.6679 24.662 86.0242 27.6542C85.3805 30.6461 83.8633 33.3829 81.6628 35.5215C79.4622 37.6599 76.6761 39.1052 73.6534 39.6761C70.6307 40.2471 67.5056 39.9182 64.67 38.7309C61.8343 37.5436 59.4139 35.5508 57.712 33.0016C56.0101 30.4525 55.1024 27.4607 55.1025 24.4009V5.58733C50.6473 9.24452 47.6326 14.3475 46.5892 19.998C45.5457 25.6485 46.5404 31.4839 49.3982 36.4766C52.2559 41.4694 56.7935 45.2993 62.2116 47.2917C67.6298 49.2843 73.5812 49.3117 79.0177 47.3692C84.4543 45.4267 89.0273 41.6389 91.9315 36.6727C94.8357 31.7067 95.8848 25.8806 94.8941 20.2208C93.9034 14.561 90.9365 9.43027 86.5156 5.73217C82.0948 2.03408 76.5038 0.00588624 70.7269 0.00459431V0Z" fill="#C92433"/>
</g>
<defs>
<clipPath id="clip0_2584_17077">
<rect width="140" height="89" fill="white"/>
</clipPath>
</defs>
</svg>
