<svg width="373" height="91" viewBox="0 0 373 91" fill="none" xmlns="http://www.w3.org/2000/svg">
<path d="M150.489 62.5239H159.016C158.047 67.625 155.737 71.7591 152.158 74.6796C148.578 77.6 143.971 79.0798 138.475 79.0798C134.012 79.0798 130.026 78.0738 126.637 76.0944C123.241 74.1085 120.571 71.2918 118.693 67.7159C116.828 64.1594 115.879 60.1162 115.879 55.5278C115.879 50.9394 116.828 46.8962 118.693 43.3397C120.571 39.7703 123.241 36.9472 126.637 34.9677C130.026 32.9883 134.005 31.9824 138.475 31.9824C143.971 31.9824 148.578 33.4621 152.158 36.3825C155.737 39.303 158.047 43.4371 159.016 48.5382H150.489C149.874 45.7215 148.5 43.6837 146.393 42.0872C144.279 40.4907 141.616 39.6729 138.475 39.6729C134.385 39.6729 131.021 41.1526 128.482 44.0601C125.91 46.9936 124.615 50.7967 124.615 55.5278C124.615 60.259 125.917 64.0556 128.482 66.9955C131.021 69.903 134.385 71.3827 138.475 71.3827C141.616 71.3827 144.279 70.5715 146.393 68.9684C148.5 67.3784 149.874 65.3406 150.489 62.5239Z" fill="#1B2032"/>
<path d="M184.831 79.0798C178.817 79.0798 173.903 77.6779 170.238 74.9132C166.522 72.1096 164.604 68.1572 164.539 63.1794L164.532 62.5239H173.065L173.092 63.1405C173.203 65.6521 174.289 67.6445 176.416 69.2345C178.562 70.8375 181.389 71.6488 184.825 71.6488C187.868 71.6488 190.354 71.0517 192.213 69.8641C194.006 68.7218 194.876 67.2811 194.876 65.4509C194.876 63.8803 194.464 62.6797 193.652 61.8685C192.802 61.0248 191.67 60.4342 190.289 60.1097C188.817 59.7657 186.677 59.4153 183.941 59.0713C180.035 58.604 176.782 57.9745 174.276 57.2022C171.698 56.4104 169.578 55.1254 167.974 53.3796C166.338 51.5949 165.507 49.1352 165.507 46.059C165.507 43.3008 166.306 40.8087 167.889 38.6605C169.453 36.5318 171.613 34.8509 174.302 33.6697C176.966 32.4951 180.002 31.9045 183.326 31.9045C188.751 31.9045 193.24 33.1895 196.676 35.7141C200.15 38.2776 202.101 41.9768 202.467 46.708L202.519 48.5447H193.986L193.914 46.8378C193.639 44.6572 192.592 42.9049 190.714 41.4771C188.836 40.0493 186.435 39.329 183.588 39.329C180.669 39.329 178.287 39.926 176.521 41.1072C174.806 42.2494 173.975 43.6967 173.975 45.5268C173.975 46.8702 174.341 47.8697 175.094 48.5641C175.886 49.2975 176.926 49.8037 178.189 50.0698C179.55 50.3553 181.664 50.6798 184.458 51.0238C188.43 51.4911 191.761 52.153 194.353 52.9773C197.022 53.8274 199.208 55.2228 200.838 57.1178C202.5 59.0453 203.337 61.6608 203.337 64.9058C203.337 67.7289 202.487 70.2534 200.811 72.4081C199.156 74.5368 196.892 76.1982 194.084 77.3469C191.323 78.5021 188.201 79.0798 184.831 79.0798Z" fill="#1B2032"/>
<path d="M256.886 62.5239H265.412C264.444 67.625 262.134 71.7591 258.554 74.6796C254.975 77.6 250.368 79.0798 244.871 79.0798C240.408 79.0798 236.423 78.0738 233.033 76.0944C229.637 74.1085 226.967 71.2918 225.089 67.7159C223.224 64.1594 222.275 60.1162 222.275 55.5278C222.275 50.9394 223.224 46.8962 225.089 43.3397C226.967 39.7703 229.637 36.9472 233.033 34.9677C236.423 32.9883 240.402 31.9824 244.871 31.9824C250.368 31.9824 254.975 33.4621 258.554 36.3825C262.134 39.303 264.444 43.4371 265.412 48.5382H256.886C256.271 45.7215 254.896 43.6837 252.789 42.0872C250.676 40.4907 248.012 39.6729 244.871 39.6729C240.781 39.6729 237.418 41.1526 234.879 44.0601C232.307 46.9936 231.011 50.7967 231.011 55.5278C231.011 60.259 232.314 64.0556 234.879 66.9955C237.418 69.903 240.781 71.3827 244.871 71.3827C248.012 71.3827 250.676 70.5715 252.789 68.9684C254.896 67.3784 256.271 65.3406 256.886 62.5239Z" fill="#1B2032"/>
<path d="M287.864 79.0798C282.727 79.0798 278.526 77.8532 275.392 75.4325C272.205 72.9728 270.582 69.585 270.582 65.3601C270.582 56.6182 277.964 51.264 287.256 51.264H301.986V48.337C301.986 45.5853 301.096 43.5085 299.257 41.9899C297.412 40.4582 294.768 39.6859 291.405 39.6859C288.427 39.6859 285.947 40.3414 284.03 41.6329C282.125 42.9179 280.98 44.5858 280.542 46.7145L280.437 48.5447H271.917L272.002 46.5069C272.552 41.9574 274.62 38.3555 278.147 35.7985C281.635 33.2739 286.215 31.9889 291.758 31.9889C297.674 31.9889 302.326 33.4426 305.592 36.3177C308.877 39.2122 310.545 43.4047 310.545 48.7783V68.0794C310.545 69.8771 311.272 70.6818 312.901 70.6818H315.761V78.5541H311.128C308.078 78.5541 305.847 77.9051 304.486 76.6201C303.458 75.6466 302.791 74.3292 302.503 72.6807C298.963 76.9316 294.048 79.0798 287.864 79.0798ZM288.663 58.6106C282.315 58.6106 279.226 60.3369 279.226 64.9253C279.226 66.9566 280.012 68.5402 281.628 69.7668C283.271 71.0193 285.548 71.6488 288.401 71.6488C292.635 71.6488 295.998 70.5391 298.4 68.3519C300.782 66.1778 301.993 63.2574 301.993 59.6554V58.6041H288.663V58.6106Z" fill="#1B2032"/>
<path d="M320.034 78.5541V32.5145H328.587V38.2127C329.778 36.7005 330.982 35.4415 332.644 34.4485C334.803 33.1635 337.801 32.5145 341.563 32.5145H344.246V40.8216H339.967C335.857 40.8216 333.017 42.1326 331.27 44.8259C329.49 47.5712 328.587 51.0303 328.587 55.093V78.5476H320.034V78.5541Z" fill="#1B2032"/>
<path d="M362 78.5541C357.589 78.5541 354.376 77.5417 352.459 75.5493C350.548 73.5633 349.58 70.4287 349.58 66.2427V21.8386H358.132V32.5146H370.382V40.3868H358.132V66.1518C358.132 67.8457 358.446 69.0399 359.068 69.7083C359.677 70.3573 360.809 70.6883 362.438 70.6883H370.389V78.5606H362V78.5541Z" fill="#1B2032"/>
<path d="M90.6979 32.0473V79.0213C90.6979 84.6611 86.091 89.23 80.4044 89.23H33.0399C27.3533 89.23 22.7464 84.6611 22.7464 79.0213V32.0473C22.7464 26.4075 27.3533 21.8386 33.0399 21.8386H80.4044C86.091 21.8386 90.6979 26.4075 90.6979 32.0473ZM13.0746 2.03784C7.388 2.03784 2.78113 6.60675 2.78113 12.2465C2.78113 17.8862 7.388 22.4551 13.0746 22.4551C18.7612 22.4551 23.3681 17.8862 23.3681 12.2465C23.3681 6.60675 18.7612 2.03784 13.0746 2.03784Z" fill="url(#paint0_linear_3828_5576)"/>
<defs>
<linearGradient id="paint0_linear_3828_5576" x1="15.7802" y1="76.3403" x2="77.1898" y2="14.4204" gradientUnits="userSpaceOnUse">
<stop stop-color="#7381FD"/>
<stop offset="1" stop-color="#76C7FF"/>
</linearGradient>
</defs>
</svg>
