<svg width="280" height="203" viewBox="0 0 280 203" fill="none" xmlns="http://www.w3.org/2000/svg">
<g clip-path="url(#clip0_3828_5397)">
<path fill-rule="evenodd" clip-rule="evenodd" d="M77.9577 66.8966H66.8267C65.6675 66.972 64.5754 67.4667 63.7541 68.2885C62.9327 69.1102 62.4383 70.2029 62.3629 71.3626V155.303C62.3592 155.893 62.4761 156.476 62.7064 157.019C62.9367 157.562 63.2755 158.051 63.702 158.458C64.0993 158.89 64.5833 159.234 65.1224 159.467C65.6615 159.7 66.2435 159.817 66.8307 159.81H77.9617C78.5272 159.803 79.0851 159.68 79.6006 159.447C80.116 159.215 80.5777 158.878 80.9565 158.458C81.4146 158.072 81.781 157.588 82.0288 157.042C82.2766 156.497 82.3996 155.902 82.3889 155.303V71.4032C82.3657 70.8291 82.2269 70.2657 81.9808 69.7466C81.7346 69.2276 81.3862 68.7636 80.9565 68.3825C80.603 67.9224 80.149 67.5493 79.6292 67.2917C79.1095 67.0342 78.5377 66.899 77.9577 66.8966ZM179.517 67.1239H170.532C169.358 66.8824 168.139 66.9981 167.032 67.4562C165.925 67.9142 164.98 68.6936 164.319 69.6939L138.661 126.493H138.214L113.761 69.6939C113.44 68.9009 112.881 68.2274 112.16 67.7669C111.44 67.3064 110.594 67.0817 109.74 67.1239H97.6266C96.9437 67.0397 96.2508 67.1421 95.6213 67.4201C94.9919 67.6982 94.4494 68.1416 94.0516 68.7033C93.7371 69.2617 93.5908 69.8992 93.6304 70.5389C93.67 71.1787 93.8938 71.7932 94.2747 72.3086L134.043 159.635C134.392 160.392 134.966 161.023 135.686 161.442C136.407 161.861 137.238 162.048 138.068 161.978H139.286C140.078 162.001 140.861 161.792 141.536 161.376C142.211 160.959 142.749 160.354 143.084 159.635L182.852 72.3126C183.232 71.7967 183.455 71.1822 183.494 70.5428C183.534 69.9035 183.388 69.2662 183.075 68.7073C182.669 68.1583 182.128 67.7236 181.505 67.4455C180.881 67.1673 180.196 67.0552 179.517 67.1199V67.1239ZM233.333 65.0087C227.123 64.9272 220.965 66.1535 215.258 68.6078C209.552 71.0622 204.426 74.6899 200.212 79.2552C195.767 83.7063 192.258 89.0034 189.894 94.8337C187.529 100.664 186.356 106.909 186.443 113.201C186.277 125.999 191.197 138.339 200.123 147.508C204.336 152.071 209.448 155.713 215.137 158.204C220.825 160.694 226.968 161.98 233.177 161.98C239.386 161.98 245.529 160.694 251.217 158.204C256.906 155.713 262.018 152.071 266.231 147.508C270.684 142.986 274.194 137.624 276.558 131.733C278.922 125.842 280.092 119.54 280 113.193C280.088 106.901 278.915 100.656 276.55 94.8256C274.185 88.9953 270.676 83.6982 266.231 79.2471C262.05 74.7008 256.961 71.0837 251.294 68.6303C245.627 66.1768 239.508 64.9456 233.333 65.0087ZM252.779 134.386C250.286 137.063 247.271 139.2 243.92 140.666C240.569 142.132 236.953 142.895 233.296 142.908C229.639 142.92 226.018 142.183 222.657 140.741C219.296 139.299 216.265 137.183 213.754 134.524C208.442 128.736 205.603 121.099 205.845 113.246C205.628 105.557 208.473 98.0972 213.754 92.5071C216.25 89.8233 219.284 87.6972 222.658 86.2678C226.032 84.8385 229.67 84.1381 233.333 84.2125C236.98 84.1182 240.603 84.8102 243.959 86.2414C247.314 87.6726 250.322 89.8095 252.779 92.5071C255.394 95.2745 257.439 98.5305 258.796 102.089C260.153 105.647 260.796 109.438 260.688 113.246C260.838 121.043 258.009 128.604 252.779 134.386ZM36.1646 66.8966H4.46379C3.89271 66.9216 3.33264 67.0626 2.81778 67.3111C2.30292 67.5596 1.84402 67.9103 1.46898 68.3419C1.03429 68.7282 0.683316 69.1995 0.437649 69.7266C0.191981 70.2538 0.0568092 70.8258 0.0405574 71.4072V82.6331C0.0537377 83.2282 0.187096 83.8144 0.432571 84.3565C0.678046 84.8986 1.03058 85.3855 1.46898 85.7878C1.85389 86.2002 2.31682 86.5321 2.83091 86.7642C3.34499 86.9963 3.90002 87.1239 4.46379 87.1397H20.5577V167.966C20.5781 171.577 19.2815 175.07 16.9111 177.793C14.5406 180.515 11.2591 182.278 7.68176 182.753H4.46379C3.28306 182.787 2.16075 183.275 1.32966 184.114C0.498574 184.954 0.0224415 186.082 0 187.263V198.489C0.00792802 199.654 0.440865 200.776 1.2174 201.644C1.62655 202.086 2.12533 202.435 2.68032 202.668C3.23531 202.901 3.83368 203.013 4.43537 202.996H6.00175C14.8056 202.951 23.2611 199.55 29.6467 193.486C36.0324 187.422 39.8681 179.151 40.3728 170.358C40.5044 169.659 40.5642 168.949 40.5513 168.238V71.4032C40.5552 70.8137 40.4384 70.2297 40.2081 69.6872C39.9778 69.1446 39.6388 68.655 39.2121 68.2486C38.8345 67.8132 38.3657 67.4663 37.839 67.2327C37.3123 66.999 36.7407 66.8843 36.1646 66.8966Z" fill="#0B1F35"/>
<path fill-rule="evenodd" clip-rule="evenodd" d="M0.271869 0C-2.49973 52.6988 40.4092 60.1854 40.4092 60.1854C38.2666 2.4766 0.271869 0 0.271869 0Z" fill="#1BC339"/>
</g>
<defs>
<clipPath id="clip0_3828_5397">
<rect width="280" height="203" fill="white"/>
</clipPath>
</defs>
</svg>
