<svg width="120" height="87" viewBox="0 0 120 87" fill="none" xmlns="http://www.w3.org/2000/svg">
<g clip-path="url(#clip0_2584_17100)">
<path fill-rule="evenodd" clip-rule="evenodd" d="M33.4104 28.67H28.64C28.1432 28.7023 27.6752 28.9143 27.3232 29.2665C26.9712 29.6187 26.7593 30.087 26.7269 30.584V66.5585C26.7254 66.8111 26.7755 67.0614 26.8742 67.2939C26.9729 67.5264 27.1181 67.7362 27.3009 67.9105C27.4711 68.0959 27.6786 68.2433 27.9096 68.3431C28.1406 68.443 28.3901 68.493 28.6417 68.4899H33.4122C33.6545 68.4872 33.8936 68.4344 34.1145 68.3346C34.3354 68.2349 34.5333 68.0905 34.6956 67.9105C34.892 67.745 35.049 67.5377 35.1552 67.3038C35.2614 67.07 35.3141 66.8153 35.3095 66.5585V30.6014C35.2996 30.3554 35.2401 30.1139 35.1346 29.8914C35.0291 29.669 34.8798 29.4701 34.6956 29.3068C34.5442 29.1096 34.3496 28.9497 34.1268 28.8393C33.9041 28.729 33.659 28.671 33.4104 28.67ZM76.9357 28.7674H73.0852C72.5822 28.6639 72.0597 28.7135 71.5852 28.9098C71.1106 29.1061 70.7057 29.4401 70.4226 29.8688L59.4261 54.2114H59.2348L48.7548 29.8688C48.6173 29.529 48.3775 29.2403 48.0687 29.043C47.7599 28.8456 47.3973 28.7493 47.0313 28.7674H41.84C41.5473 28.7313 41.2503 28.7752 40.9806 28.8944C40.7108 29.0135 40.4783 29.2036 40.3078 29.4443C40.173 29.6836 40.1103 29.9568 40.1273 30.231C40.1443 30.5052 40.2402 30.7686 40.4035 30.9894L57.4469 68.4151C57.5967 68.7394 57.8426 69.0097 58.1513 69.1893C58.4599 69.3689 58.8164 69.4491 59.1722 69.4191H59.6939C60.0336 69.4291 60.3688 69.3394 60.6581 69.161C60.9474 68.9826 61.1781 68.7232 61.3217 68.4151L78.3652 30.9911C78.5279 30.77 78.6234 30.5067 78.6404 30.2327C78.6573 29.9586 78.595 29.6855 78.4609 29.446C78.2868 29.2107 78.0549 29.0244 77.7877 28.9052C77.5204 28.786 77.2269 28.7379 76.9357 28.7657V28.7674ZM100 27.8609C97.3383 27.826 94.6991 28.3515 92.2536 29.4034C89.8081 30.4553 87.6111 32.01 85.8052 33.9665C83.9001 35.8741 82.3965 38.1443 81.383 40.643C80.3695 43.1418 79.8667 45.8183 79.9044 48.5147C79.8329 53.9995 81.9417 59.2882 85.7669 63.2177C87.5727 65.1735 89.7635 66.7342 92.2014 67.8016C94.6394 68.869 97.2718 69.4201 99.933 69.4201C102.594 69.4201 105.227 68.869 107.665 67.8016C110.103 66.7342 112.293 65.1735 114.099 63.2177C116.007 61.2797 117.512 58.9817 118.525 56.457C119.538 53.9323 120.039 51.2314 120 48.5112C120.038 45.8148 119.535 43.1383 118.521 40.6396C117.508 38.1408 116.004 35.8707 114.099 33.9631C112.307 32.0146 110.126 30.4645 107.697 29.413C105.269 28.3615 102.646 27.8339 100 27.8609ZM108.334 57.594C107.265 58.7413 105.973 59.6573 104.537 60.2855C103.101 60.9136 101.551 61.2406 99.9841 61.2461C98.4168 61.2517 96.8649 60.9357 95.4244 60.3177C93.9838 59.6998 92.6852 58.7929 91.6087 57.6532C89.3322 55.1727 88.1156 51.8998 88.2191 48.5338C88.1264 45.2387 89.3456 42.0417 91.6087 39.6459C92.6784 38.4957 93.9789 37.5845 95.4249 36.9719C96.8709 36.3594 98.43 36.0592 100 36.0911C101.563 36.0507 103.116 36.3472 104.554 36.9606C105.992 37.574 107.281 38.4898 108.334 39.6459C109.455 40.832 110.331 42.2274 110.913 43.7524C111.494 45.2775 111.77 46.9022 111.723 48.5338C111.788 51.8755 110.575 55.1158 108.334 57.594ZM15.4991 28.67H1.91305C1.6683 28.6807 1.42827 28.7411 1.20762 28.8476C0.986966 28.9541 0.790293 29.1044 0.629564 29.2894C0.443268 29.455 0.29285 29.6569 0.187564 29.8829C0.0822777 30.1088 0.0243468 30.3539 0.0173817 30.6031V35.4142C0.0230305 35.6692 0.0801842 35.9205 0.185388 36.1528C0.290591 36.3851 0.441679 36.5938 0.629564 36.7662C0.794524 36.943 0.992924 37.0852 1.21325 37.1847C1.43357 37.2841 1.67144 37.3388 1.91305 37.3456H8.81042V71.9856C8.81917 73.5328 8.26352 75.0302 7.24761 76.1969C6.23169 77.3635 4.82532 78.1193 3.29218 78.3226H1.91305C1.40702 78.3373 0.926037 78.5463 0.569856 78.9062C0.213675 79.2661 0.0096178 79.7494 0 80.2558V85.0669C0.00339772 85.5661 0.188942 86.0469 0.521744 86.4189C0.697092 86.6082 0.910856 86.7578 1.14871 86.8577C1.38656 86.9577 1.643 87.0056 1.90087 86.9983H2.57218C6.34524 86.9788 9.96903 85.5213 12.7057 82.9226C15.4424 80.3238 17.0863 76.7792 17.3026 73.0104C17.359 72.7111 17.3846 72.4067 17.3791 72.1021V30.6014C17.3808 30.3488 17.3308 30.0985 17.2321 29.8659C17.1333 29.6334 16.9881 29.4236 16.8052 29.2494C16.6434 29.0628 16.4424 28.9142 16.2167 28.814C15.991 28.7139 15.746 28.6647 15.4991 28.67Z" fill="#0B1F35"/>
<path fill-rule="evenodd" clip-rule="evenodd" d="M0.116441 0C-1.07139 22.5852 17.3182 25.7938 17.3182 25.7938C16.3999 1.0614 0.116441 0 0.116441 0Z" fill="#1BC339"/>
</g>
<defs>
<clipPath id="clip0_2584_17100">
<rect width="120" height="87" fill="white"/>
</clipPath>
</defs>
</svg>
