<svg width="373" height="115" viewBox="0 0 373 115" fill="none" xmlns="http://www.w3.org/2000/svg">
<g clip-path="url(#clip0_3828_5560)">
<path d="M0 0H114.442V57.5559C114.442 72.3107 106.571 85.9451 93.7932 93.3232L57.2209 114.442L20.6487 93.3232C7.87111 85.9451 0 72.3107 0 57.5559V0Z" fill="#FFDD2D"/>
<path fill-rule="evenodd" clip-rule="evenodd" d="M31.4079 30.2931V48.1942C33.8558 45.4299 38.3065 43.559 43.3953 43.559H48.9254V64.3689C48.9254 69.9053 47.4212 74.7512 45.1893 77.4167H69.2441C67.0168 74.7485 65.516 69.9087 65.516 64.3794V43.559H71.0464C76.1352 43.559 80.5858 45.4299 83.0338 48.1942V30.2931H31.4079Z" fill="#333333"/>
<path d="M141.425 77.4143V30.2958H189.284V41.0648H155.696V47.7975H172.322C184.102 47.7975 192.852 50.4897 192.852 62.6049C192.852 74.722 184.102 77.4143 172.322 77.4143H141.425ZM155.696 58.5665V66.6432H172.389C177.236 66.6432 178.38 65.7026 178.38 62.6049C178.38 59.5092 177.236 58.5665 172.389 58.5665H155.696Z" fill="#333333"/>
<path d="M271.857 59.9126V77.4143H257.586V30.2958H271.857V47.4609H295.214V30.2958H309.485V77.4143H295.214V59.9126H271.857Z" fill="#333333"/>
<path d="M332.478 59.643V77.4143H318.207V30.2958H332.478V47.8644H341.027L355.903 30.2958H372.057L353.412 52.3062V53.182L373 77.4143H355.297L340.96 59.643H332.478Z" fill="#333333"/>
<path d="M234.87 70.4809H212.588L210.098 77.4143H195.155L213.801 30.2958H234.398L252.976 77.4143H237.36L234.87 70.4809ZM231.033 59.7119L224.436 41.1337H223.224L216.493 59.7119H231.033Z" fill="#333333"/>
</g>
<defs>
<clipPath id="clip0_3828_5560">
<rect width="373" height="114.442" fill="white"/>
</clipPath>
</defs>
</svg>
