<svg width="160" height="49" viewBox="0 0 160 49" fill="none" xmlns="http://www.w3.org/2000/svg">
<path d="M0 0H49.0903V24.6435C49.0903 30.961 45.7139 36.7987 40.233 39.9578L24.5452 49L8.85734 39.9578C3.37635 36.7987 0 30.961 0 24.6435V0Z" fill="#FFDD2D"/>
<path fill-rule="evenodd" clip-rule="evenodd" d="M13.4725 12.9705V20.6351C14.5226 19.4515 16.4317 18.6505 18.6146 18.6505H20.9868V27.5606C20.9868 29.9311 20.3415 32.0059 19.3841 33.1472H29.7025C28.7471 32.0048 28.1034 29.9325 28.1034 27.5651V18.6505H30.4756C32.6585 18.6505 34.5676 19.4515 35.6177 20.6351V12.9705H13.4725Z" fill="#333333"/>
<path d="M60.6648 33.1462V12.9716H81.1943V17.5825H66.7865V20.4652H73.9182C78.9712 20.4652 82.7249 21.618 82.7249 26.8053C82.7249 31.9934 78.9712 33.1462 73.9182 33.1462H60.6648ZM66.7865 25.0762V28.5344H73.9469C76.0262 28.5344 76.5167 28.1316 76.5167 26.8053C76.5167 25.4798 76.0262 25.0762 73.9469 25.0762H66.7865Z" fill="#333333"/>
<path d="M116.614 25.6525V33.1462H110.493V12.9716H116.614V20.3212H126.633V12.9716H132.755V33.1462H126.633V25.6525H116.614Z" fill="#333333"/>
<path d="M142.618 25.5371V33.1462H136.496V12.9716H142.618V20.4939H146.285L152.666 12.9716H159.596L151.598 22.3957V22.7707L160 33.1462H152.406L146.256 25.5371H142.618Z" fill="#333333"/>
<path d="M100.748 30.1775H91.1908L90.1225 33.1462H83.7125L91.7109 12.9716H100.546L108.515 33.1462H101.817L100.748 30.1775ZM99.1026 25.5666L96.2729 17.6121H95.7528L92.8657 25.5666H99.1026Z" fill="#333333"/>
</svg>
