<svg width="40" height="40" viewBox="0 0 40 40" fill="none" xmlns="http://www.w3.org/2000/svg">
<g clip-path="url(#clip0_2299_20408)">
<path d="M40 34.1466C40 37.3795 37.3926 40 34.1764 40H5.82357C2.60727 40 0 37.3795 0 34.1466V5.85343C0 2.62064 2.60727 0 5.82357 0H34.1764C37.3927 0 40 2.62064 40 5.85343V34.1466Z" fill="#FAAB62"/>
<path d="M39.7946 34.0013C39.7946 37.2008 37.214 39.7945 34.0308 39.7945H5.96913C2.7859 39.7945 0.205444 37.2008 0.205444 34.0013V5.99868C0.205444 2.79913 2.786 0.205444 5.96913 0.205444H34.0308C37.214 0.205444 39.7946 2.79924 39.7946 5.99868V34.0013Z" fill="#F7931E"/>
<path d="M19.9777 5.97815C16.0134 5.97815 12.7998 9.20836 12.7998 13.1929C12.7998 17.1776 16.0134 20.408 19.9777 20.408C23.9421 20.408 27.1557 17.1776 27.1557 13.1929C27.1557 9.20836 23.9421 5.97815 19.9777 5.97815ZM19.9777 16.1755C18.339 16.1755 17.0105 14.8401 17.0105 13.193C17.0105 11.5459 18.339 10.2106 19.9777 10.2106C21.6165 10.2106 22.9449 11.5459 22.9449 13.193C22.9449 14.8401 21.6165 16.1755 19.9777 16.1755Z" fill="white"/>
<path d="M22.5118 26.1488C25.3854 25.5604 27.1075 24.1925 27.1986 24.1191C28.0395 23.4413 28.1745 22.2067 27.5002 21.3614C26.8259 20.5162 25.5977 20.3804 24.7566 21.0581C24.7388 21.0726 22.9022 22.4887 19.8802 22.4908C16.8584 22.4887 14.9829 21.0726 14.9651 21.0581C14.124 20.3804 12.8958 20.5162 12.2215 21.3614C11.5472 22.2067 11.6823 23.4413 12.5231 24.1191C12.6155 24.1936 14.4086 25.597 17.3627 26.1716L13.2456 30.4964C12.4973 31.2764 12.5198 32.5182 13.2958 33.2703C13.6745 33.6373 14.1627 33.8198 14.6504 33.8198C15.1617 33.8198 15.6726 33.619 16.0555 33.2197L19.8803 29.1244L24.0915 33.2462C24.8545 34.0119 26.09 34.0107 26.8516 33.2441C27.6132 32.4773 27.6122 31.2353 26.8494 30.4698L22.5118 26.1488Z" fill="white"/>
<path d="M19.8809 22.4907C19.8736 22.4907 19.888 22.4908 19.8809 22.491C19.8738 22.4908 19.8881 22.4907 19.8809 22.4907Z" fill="white"/>
</g>
<defs>
<clipPath id="clip0_2299_20408">
<rect width="40" height="40" rx="20" fill="white"/>
</clipPath>
</defs>
</svg>
