<svg width="40" height="40" viewBox="0 0 40 40" fill="none" xmlns="http://www.w3.org/2000/svg">
<g clip-path="url(#clip0_2299_20402)">
<path d="M20 40C31.0457 40 40 31.0457 40 20C40 8.9543 31.0457 0 20 0C8.9543 0 0 8.9543 0 20C0 31.0457 8.9543 40 20 40Z" fill="#29A71A"/>
<path d="M13.1347 10.3937C15.4034 8.75538 18.183 7.9815 20.9719 8.21201C23.7608 8.44255 26.3754 9.6623 28.3443 11.6508C30.2969 13.6265 31.4852 16.2308 31.6978 19.0004C31.9104 21.7699 31.1332 24.5253 29.5051 26.7758C27.8771 29.0262 25.5034 30.6261 22.8066 31.2908C20.1096 31.9554 17.264 31.6416 14.7766 30.4054L14.5605 30.2979L8.34497 31.7706L9.60278 25.6638L9.65031 25.4353L9.54419 25.2276C8.27575 22.7332 7.94065 19.8674 8.59888 17.1476C9.25719 14.4276 10.8659 12.032 13.1347 10.3937ZM19.9999 9.52386C17.2481 9.52389 14.6088 10.6174 12.6627 12.5629C11.1139 14.1119 10.0948 16.1117 9.75187 18.2752C9.40914 20.438 9.75991 22.6537 10.7532 24.6052L11.0748 25.2413L10.3293 28.865L10.3196 28.9047L10.0689 29.9575L14.7258 28.8539L15.384 29.1795C17.3289 30.1469 19.5284 30.4798 21.6724 30.1313C23.817 29.7827 25.798 28.7696 27.3365 27.2354L27.3372 27.2348C29.2734 25.2983 30.3656 22.6751 30.3756 19.9366C30.3856 17.1982 29.3126 14.5669 27.3905 12.6163L27.373 12.5981L27.3619 12.5883L27.3534 12.5785L27.3372 12.5629L27.1529 12.3826C25.2262 10.5497 22.6658 9.52386 19.9999 9.52386Z" fill="white"/>
<path d="M26.5251 23.9296C26.0546 24.6705 25.3114 25.5773 24.3773 25.8023C22.741 26.1978 20.2296 25.816 17.1046 22.9023L17.066 22.8682C14.3182 20.3205 13.6046 18.2 13.7773 16.5182C13.8728 15.5637 14.6682 14.7 15.3387 14.1364C15.4447 14.0459 15.5704 13.9815 15.7057 13.9483C15.8411 13.9151 15.9823 13.9141 16.1181 13.9452C16.254 13.9763 16.3806 14.0388 16.488 14.1277C16.5953 14.2165 16.6804 14.3293 16.7364 14.4569L17.7478 16.7296C17.8135 16.877 17.8379 17.0394 17.8182 17.1996C17.7986 17.3597 17.7358 17.5115 17.6364 17.6387L17.1251 18.3023C17.0153 18.4393 16.9491 18.6061 16.9349 18.781C16.9208 18.956 16.9593 19.1312 17.0455 19.2841C17.3319 19.7864 18.0182 20.525 18.7796 21.2091C19.6341 21.9819 20.5819 22.6887 21.1819 22.9296C21.3424 22.9952 21.5189 23.0112 21.6887 22.9755C21.8584 22.9399 22.0135 22.8542 22.1341 22.7296L22.7273 22.1319C22.8418 22.019 22.9841 21.9385 23.1398 21.8986C23.2955 21.8587 23.459 21.8607 23.6137 21.9046L26.016 22.5864C26.1485 22.6271 26.2699 22.6975 26.3711 22.7923C26.4722 22.8871 26.5503 23.0037 26.5994 23.1333C26.6486 23.2629 26.6674 23.4021 26.6545 23.5401C26.6416 23.6781 26.5973 23.8113 26.5251 23.9296Z" fill="white"/>
</g>
<defs>
<clipPath id="clip0_2299_20402">
<rect width="40" height="40" rx="20" fill="white"/>
</clipPath>
</defs>
</svg>
