<svg xmlns="http://www.w3.org/2000/svg" style="display: none;">

    <symbol id="btn-arrow-up" viewBox="0 0 14 14" fill="none">
        <path d="M12.271 1.02246L1.22803 1.02246L1.22803 0.0224615L13.978 0.0224609L13.978 12.7725H12.978L12.978 1.72949L0.718262 13.9893L0.0112305 13.2822L12.271 1.02246Z" fill="currentColor"/>
    </symbol>

    <symbol id="btn-arrow-down" viewBox="0 0 14 14" fill="none">
        <path d="M12.271 12.9775L1.22803 12.9775L1.22803 13.9775L13.978 13.9775L13.978 1.22754H12.978L12.978 12.2705L0.718262 0.0107412L0.0112305 0.717772L12.271 12.9775Z" fill="currentColor"/>
    </symbol>

    <symbol id="btn-arrow-left" viewBox="0 0 14 14" fill="none">
        <path d="M10.8931 0.159264C10.736 -0.0346469 10.4634 -0.0541935 10.2839 0.115512L3.37208 6.64908L3 7L3.37208 7.35092L10.2839 13.8845C10.4634 14.0542 10.736 14.0346 10.8931 13.8407C11.0502 13.6468 11.0321 13.3524 10.8526 13.1826L4.312 7L10.8526 0.81736C11.0321 0.647626 11.0502 0.353213 10.8931 0.159264Z" fill="currentColor"/>
    </symbol>

    <symbol id="btn-arrow-right" viewBox="0 0 14 14" fill="none">
        <path d="M3.10692 0.159264C3.26404 -0.0346469 3.53657 -0.0541935 3.7161 0.115512L10.6279 6.64908L11 7L10.6279 7.35092L3.7161 13.8845C3.53657 14.0542 3.26404 14.0346 3.10692 13.8407C2.94984 13.6468 2.96793 13.3524 3.14742 13.1826L9.688 7L3.14742 0.81736C2.96793 0.647626 2.94984 0.353213 3.10692 0.159264Z" fill="currentColor"/>
    </symbol>

    <symbol id="icon-phone" viewBox="0 0 30 30" fill="none">
        <path d="M14.48 24.0313C11.4163 22.4368 8.81778 20.0761 6.93741 17.179C5.05703 14.282 3.95892 10.9474 3.75 7.5C3.75 6.83696 4.01339 6.20107 4.48223 5.73223C4.95107 5.26339 5.58696 5 6.25 5H11.25L13.75 11.25L10.625 13.125C11.9637 15.8394 14.1606 18.0363 16.875 19.375L18.75 16.25L19.5625 16.575" stroke="currentColor" stroke-linecap="round" stroke-linejoin="round"/>
        <path d="M23.75 28.125C24.0066 27.0641 24.5508 26.0944 25.3226 25.3226C26.0944 24.5508 27.0641 24.0066 28.125 23.75C27.0641 23.4934 26.0944 22.9492 25.3226 22.1774C24.5508 21.4056 24.0066 20.4359 23.75 19.375C23.4934 20.4359 22.9492 21.4056 22.1774 22.1774C21.4056 22.9492 20.4359 23.4934 19.375 23.75C20.4359 24.0066 21.4056 24.5508 22.1774 25.3226C22.9492 26.0944 23.4934 27.0641 23.75 28.125Z" stroke="currentColor" stroke-linecap="round" stroke-linejoin="round"/>
    </symbol>

    <symbol id="icon-burger" viewBox="0 0 20 16" fill="none">
        <rect width="20" height="2" rx="1" fill="currentColor"/>
        <rect y="7" width="20" height="2" rx="1" fill="currentColor"/>
        <rect y="14" width="20" height="2" rx="1" fill="currentColor"/>
    </symbol>

    <symbol id="icon-close" viewBox="0 0 20 20" fill="none">
        <path d="M18 2L2 18" stroke="currentColor" stroke-width="2" stroke-linecap="round" stroke-linejoin="round"/>
        <path d="M2 2L18 18" stroke="currentColor" stroke-width="2" stroke-linecap="round" stroke-linejoin="round"/>
    </symbol>

    <symbol id="icon-question" viewBox="0 0 18 18" fill="none">
        <rect x="0.5" y="0.5" width="17" height="17" rx="8.5" stroke="currentColor"/>
        <path d="M6.6665 6.66699C6.6665 6.20286 6.88161 5.75774 7.26449 5.42956C7.64738 5.10137 8.16669 4.91699 8.70817 4.91699H9.2915C9.83299 4.91699 10.3523 5.10137 10.7352 5.42956C11.1181 5.75774 11.3332 6.20286 11.3332 6.66699C11.3547 7.04572 11.2525 7.42118 11.0421 7.73681C10.8316 8.05244 10.5244 8.29115 10.1665 8.41699C9.80864 8.58478 9.50136 8.90306 9.29094 9.3239C9.08052 9.74474 8.97836 10.2453 8.99984 10.7503" stroke="currentColor" stroke-linecap="round" stroke-linejoin="round"/>
        <path d="M9 13.083V13.0888" stroke="currentColor" stroke-linecap="round" stroke-linejoin="round"/>
    </symbol>

    <symbol id="icon-eye" viewBox="0 0 20 20" fill="none">
        <path d="M8.3335 9.99967C8.3335 10.4417 8.50909 10.8656 8.82165 11.1782C9.13421 11.4907 9.55814 11.6663 10.0002 11.6663C10.4422 11.6663 10.8661 11.4907 11.1787 11.1782C11.4912 10.8656 11.6668 10.4417 11.6668 9.99967C11.6668 9.55765 11.4912 9.13372 11.1787 8.82116C10.8661 8.5086 10.4422 8.33301 10.0002 8.33301C9.55814 8.33301 9.13421 8.5086 8.82165 8.82116C8.50909 9.13372 8.3335 9.55765 8.3335 9.99967Z" stroke="currentColor" stroke-linecap="round" stroke-linejoin="round"/>
        <path d="M17.5 10C15.5 13.3333 13 15 10 15C7 15 4.5 13.3333 2.5 10C4.5 6.66667 7 5 10 5C13 5 15.5 6.66667 17.5 10Z" stroke="currentColor" stroke-linecap="round" stroke-linejoin="round"/>
    </symbol>

    <symbol id="icon-timer" viewBox="0 0 20 20" fill="none">
        <path d="M4.1665 10.8333C4.1665 11.5994 4.31739 12.3579 4.61054 13.0657C4.90369 13.7734 5.33337 14.4164 5.87505 14.9581C6.41672 15.4998 7.05978 15.9295 7.76752 16.2226C8.47525 16.5158 9.23379 16.6667 9.99984 16.6667C10.7659 16.6667 11.5244 16.5158 12.2322 16.2226C12.9399 15.9295 13.583 15.4998 14.1246 14.9581C14.6663 14.4164 15.096 13.7734 15.3891 13.0657C15.6823 12.3579 15.8332 11.5994 15.8332 10.8333C15.8332 9.28624 15.2186 7.80251 14.1246 6.70854C13.0307 5.61458 11.5469 5 9.99984 5C8.45274 5 6.96901 5.61458 5.87505 6.70854C4.78109 7.80251 4.1665 9.28624 4.1665 10.8333Z" stroke="currentColor" stroke-linecap="round" stroke-linejoin="round"/>
        <path d="M12.0833 8.75L10 10.8333" stroke="currentColor" stroke-linecap="round" stroke-linejoin="round"/>
        <path d="M14.1665 6.66634L14.9998 5.83301" stroke="currentColor" stroke-linecap="round" stroke-linejoin="round"/>
        <path d="M11.6668 2.5H8.3335" stroke="currentColor" stroke-linecap="round" stroke-linejoin="round"/>
    </symbol>

    <symbol id="icon-calendar" viewBox="0 0 20 20" fill="none">
        <path d="M3.3335 5.83366C3.3335 5.39163 3.50909 4.96771 3.82165 4.65515C4.13421 4.34259 4.55814 4.16699 5.00016 4.16699H15.0002C15.4422 4.16699 15.8661 4.34259 16.1787 4.65515C16.4912 4.96771 16.6668 5.39163 16.6668 5.83366V15.8337C16.6668 16.2757 16.4912 16.6996 16.1787 17.0122C15.8661 17.3247 15.4422 17.5003 15.0002 17.5003H5.00016C4.55814 17.5003 4.13421 17.3247 3.82165 17.0122C3.50909 16.6996 3.3335 16.2757 3.3335 15.8337V5.83366Z" stroke="currentColor" stroke-linecap="round" stroke-linejoin="round"/>
        <path d="M13.3335 2.5V5.83333" stroke="currentColor" stroke-linecap="round" stroke-linejoin="round"/>
        <path d="M6.6665 2.5V5.83333" stroke="currentColor" stroke-linecap="round" stroke-linejoin="round"/>
        <path d="M3.3335 9.16699H16.6668" stroke="currentColor" stroke-linecap="round" stroke-linejoin="round"/>
        <path d="M5.8335 11.667H5.84433" stroke="currentColor" stroke-linecap="round" stroke-linejoin="round"/>
        <path d="M8.3418 11.667H8.34596" stroke="currentColor" stroke-linecap="round" stroke-linejoin="round"/>
        <path d="M10.8418 11.667H10.846" stroke="currentColor" stroke-linecap="round" stroke-linejoin="round"/>
        <path d="M13.3457 11.667H13.3499" stroke="currentColor" stroke-linecap="round" stroke-linejoin="round"/>
        <path d="M10.8457 14.167H10.8499" stroke="currentColor" stroke-linecap="round" stroke-linejoin="round"/>
        <path d="M5.8418 14.167H5.84596" stroke="currentColor" stroke-linecap="round" stroke-linejoin="round"/>
        <path d="M8.3418 14.167H8.34596" stroke="currentColor" stroke-linecap="round" stroke-linejoin="round"/>
    </symbol>

    <symbol id="chevron-down" viewBox="0 0 14 14" fill="none">
        <path d="M13.8407 3.10692C14.0346 3.26404 14.0542 3.53657 13.8845 3.7161L7.35092 10.6279L7 11L6.64908 10.6279L0.115513 3.7161C-0.0541926 3.53657 -0.034646 3.26404 0.159265 3.10692C0.353214 2.94983 0.647628 2.96793 0.817361 3.14742L7 9.688L13.1826 3.14742C13.3524 2.96793 13.6468 2.94984 13.8407 3.10692Z" fill="currentColor"/>
    </symbol>

    <!-- footer arrow down -->
    <symbol id="arrow-down" viewBox="0 0 16 17" fill="none">
        <path d="M15.818 4.07142C16.0396 4.25098 16.0619 4.56244 15.868 4.76761L8.40106 12.6668L8 13.0921L7.59894 12.6668L0.132015 4.76761C-0.0619335 4.56244 -0.0395966 4.25098 0.182016 4.07142C0.403673 3.89189 0.740146 3.91257 0.934127 4.1177L8 11.5927L15.0659 4.1177C15.2599 3.91257 15.5963 3.89189 15.818 4.07142Z" fill="currentColor"/>
    </symbol>

</svg>