<svg xmlns="http://www.w3.org/2000/svg" style="display: none;">

    <symbol id="menu-icon-dev" viewBox="0 0 16 16" fill="none">
        <path d="M3.73333 11.7334C3.62817 11.7337 3.52399 11.7131 3.42684 11.6728C3.3297 11.6325 3.24153 11.5734 3.16747 11.4987L0.2344 8.56563C0.0834667 8.41523 0 8.21417 0 8.00003C0 7.7859 0.0834667 7.58483 0.234667 7.43417L3.16773 4.5011C3.24178 4.42651 3.32991 4.36738 3.42701 4.32714C3.52411 4.2869 3.62823 4.26636 3.73333 4.2667C4.1744 4.2667 4.53333 4.62563 4.53333 5.0667C4.53333 5.28083 4.44987 5.4819 4.29867 5.63257L1.9312 8.00003L4.29893 10.3678C4.45013 10.5182 4.53333 10.7192 4.53333 10.9334C4.53333 11.3744 4.1744 11.7334 3.73333 11.7334ZM12.2667 12C11.8256 12 11.4667 11.6411 11.4667 11.2C11.4667 10.9859 11.5501 10.7848 11.7013 10.6342L14.0688 8.2667L11.7011 5.89897C11.6266 5.82486 11.5675 5.73671 11.5273 5.63963C11.487 5.54255 11.4664 5.43845 11.4667 5.33337C11.4667 4.8923 11.8256 4.53337 12.2667 4.53337C12.4808 4.53337 12.6819 4.61683 12.8325 4.76803L15.7656 7.7011C15.9168 7.85203 16 8.0531 16 8.2667C16 8.48083 15.9165 8.6819 15.7653 8.83257L12.8323 11.7656C12.7583 11.8403 12.6701 11.8994 12.573 11.9397C12.4759 11.9799 12.3718 12.0004 12.2667 12ZM5.6 14.1334C5.46834 14.1332 5.33875 14.1005 5.22272 14.0383C5.10668 13.9761 5.00777 13.8862 4.93474 13.7767C4.8617 13.6671 4.8168 13.5412 4.804 13.4102C4.79119 13.2792 4.81089 13.147 4.86133 13.0254L9.6616 2.35817C9.72238 2.21248 9.82495 2.08806 9.95636 2.00059C10.0878 1.91313 10.2421 1.86654 10.4 1.8667C10.5317 1.86691 10.6612 1.89957 10.7773 1.96178C10.8933 2.024 10.9922 2.11386 11.0653 2.22341C11.1383 2.33296 11.1832 2.45883 11.196 2.58987C11.2088 2.72091 11.1891 2.85308 11.1387 2.9747L6.3384 13.6419C6.27762 13.7876 6.17505 13.912 6.04364 13.9995C5.91223 14.0869 5.75786 14.1335 5.6 14.1334Z" fill="#F8FEFF"/>
    </symbol>

    <symbol id="menu-icon-platform" viewBox="0 0 16 16" fill="none">
        <path d="M15.5467 10.9124C15.3942 10.4996 14.9368 10.2865 14.524 10.4392L8.0056 12.8292L1.4872 10.4392C1.47716 10.4368 1.46743 10.4333 1.45824 10.4286C1.25809 10.3599 1.03887 10.3734 0.848636 10.4661C0.658401 10.5588 0.512664 10.7231 0.44336 10.923C0.30128 11.3384 0.51952 11.7932 0.93776 11.9352L7.72944 14.4305C7.90674 14.4963 8.10174 14.4963 8.27904 14.4305L15.0709 11.9352C15.4862 11.7854 15.6966 11.3252 15.5467 10.9124ZM15.5467 7.72285C15.3942 7.31005 14.9368 7.09725 14.524 7.24957L8.0056 9.64236L1.4872 7.24957C1.47664 7.24701 1.4688 7.24428 1.45824 7.24156C1.25843 7.17238 1.03933 7.18531 0.849048 7.27753C0.658767 7.36974 0.512858 7.5337 0.44336 7.73341C0.374691 7.93356 0.388169 8.15277 0.480842 8.34301C0.573515 8.53324 0.737824 8.67898 0.93776 8.74828L7.72944 11.2411C7.90674 11.3068 8.10174 11.3068 8.27904 11.2411L15.0709 8.74828C15.2698 8.67523 15.4317 8.52622 15.5209 8.33398C15.6101 8.14173 15.6194 7.92194 15.5467 7.72285ZM15.0736 4.06013L8.2816 1.56733C8.103 1.50425 7.90819 1.50425 7.7296 1.56733L0.9376 4.06013C0.78412 4.11605 0.651695 4.21807 0.558484 4.35222C0.465273 4.48636 0.415839 4.64606 0.41696 4.80941C0.415806 4.97278 0.465224 5.13251 0.558438 5.26669C0.651651 5.40086 0.784094 5.50292 0.9376 5.55885L7.7296 8.05165C7.90819 8.11472 8.103 8.11472 8.2816 8.05165L15.0736 5.55885C15.1834 5.51952 15.2832 5.45648 15.3659 5.37421C15.4486 5.29194 15.5121 5.19246 15.552 5.08284C15.5878 4.98429 15.6039 4.87963 15.5993 4.77486C15.5946 4.67009 15.5693 4.56726 15.5249 4.47227C15.4805 4.37727 15.4177 4.29197 15.3403 4.22125C15.2629 4.15053 15.1722 4.09578 15.0736 4.06013ZM0.9376 5.55885L7.7296 8.05165C7.90819 8.11472 8.103 8.11472 8.2816 8.05165L15.0736 5.55885C15.1834 5.51952 15.2832 5.45648 15.3659 5.37421C15.4486 5.29194 15.5121 5.19246 15.552 5.08284C15.5878 4.98429 15.6039 4.87963 15.5993 4.77486C15.5946 4.67009 15.5693 4.56726 15.5249 4.47227C15.4805 4.37727 15.4177 4.29197 15.3403 4.22125C15.2629 4.15053 15.1722 4.09578 15.0736 4.06013L8.2816 1.56733C8.103 1.50425 7.90819 1.50425 7.7296 1.56733L0.9376 4.06013C0.78412 4.11605 0.651695 4.21807 0.558484 4.35222C0.465273 4.48636 0.415839 4.64606 0.41696 4.80941C0.415806 4.97278 0.465224 5.13251 0.558438 5.26669C0.651651 5.40086 0.784094 5.50292 0.9376 5.55885ZM14.524 7.24957L8.0056 9.64236L1.4872 7.24957C1.47664 7.24701 1.4688 7.24428 1.45824 7.24156C1.25843 7.17238 1.03933 7.18531 0.849048 7.27753C0.658767 7.36974 0.512858 7.5337 0.44336 7.73341C0.374691 7.93356 0.388169 8.15277 0.480842 8.34301C0.573515 8.53324 0.737824 8.67898 0.93776 8.74828L7.72944 11.2411C7.90674 11.3068 8.10174 11.3068 8.27904 11.2411L15.0709 8.74828C15.2698 8.67523 15.4317 8.52622 15.5209 8.33398C15.6101 8.14173 15.6194 7.92194 15.5467 7.72285C15.3942 7.31005 14.9368 7.09725 14.524 7.24957ZM14.524 10.4392L8.0056 12.8292L1.4872 10.4392C1.47716 10.4368 1.46743 10.4333 1.45824 10.4286C1.25809 10.3599 1.03887 10.3734 0.848636 10.4661C0.658401 10.5588 0.512664 10.7231 0.44336 10.923C0.30128 11.3384 0.51952 11.7932 0.93776 11.9352L7.72944 14.4305C7.90674 14.4963 8.10174 14.4963 8.27904 14.4305L15.0709 11.9352C15.4862 11.7854 15.6966 11.3252 15.5467 10.9124C15.3942 10.4996 14.9368 10.2865 14.524 10.4392ZM0.9376 5.55885L7.7296 8.05165C7.90819 8.11472 8.103 8.11472 8.2816 8.05165L15.0736 5.55885C15.1834 5.51952 15.2832 5.45648 15.3659 5.37421C15.4486 5.29194 15.5121 5.19246 15.552 5.08284C15.5878 4.98429 15.6039 4.87963 15.5993 4.77486C15.5946 4.67009 15.5693 4.56726 15.5249 4.47227C15.4805 4.37727 15.4177 4.29197 15.3403 4.22125C15.2629 4.15053 15.1722 4.09578 15.0736 4.06013L8.2816 1.56733C8.103 1.50425 7.90819 1.50425 7.7296 1.56733L0.9376 4.06013C0.78412 4.11605 0.651695 4.21807 0.558484 4.35222C0.465273 4.48636 0.415839 4.64606 0.41696 4.80941C0.415806 4.97278 0.465224 5.13251 0.558438 5.26669C0.651651 5.40086 0.784094 5.50292 0.9376 5.55885ZM14.524 7.24957L8.0056 9.64236L1.4872 7.24957C1.47664 7.24701 1.4688 7.24428 1.45824 7.24156C1.25843 7.17238 1.03933 7.18531 0.849048 7.27753C0.658767 7.36974 0.512858 7.5337 0.44336 7.73341C0.374691 7.93356 0.388169 8.15277 0.480842 8.34301C0.573515 8.53324 0.737824 8.67898 0.93776 8.74828L7.72944 11.2411C7.90674 11.3068 8.10174 11.3068 8.27904 11.2411L15.0709 8.74828C15.2698 8.67523 15.4317 8.52622 15.5209 8.33398C15.6101 8.14173 15.6194 7.92194 15.5467 7.72285C15.3942 7.31005 14.9368 7.09725 14.524 7.24957ZM14.524 10.4392L8.0056 12.8292L1.4872 10.4392C1.47716 10.4368 1.46743 10.4333 1.45824 10.4286C1.25809 10.3599 1.03887 10.3734 0.848636 10.4661C0.658401 10.5588 0.512664 10.7231 0.44336 10.923C0.30128 11.3384 0.51952 11.7932 0.93776 11.9352L7.72944 14.4305C7.90674 14.4963 8.10174 14.4963 8.27904 14.4305L15.0709 11.9352C15.4862 11.7854 15.6966 11.3252 15.5467 10.9124C15.3942 10.4996 14.9368 10.2865 14.524 10.4392Z" fill="#F8FEFF"/>
    </symbol>

    <symbol id="menu-icon-promotion" viewBox="0 0 16 16" fill="none">
        <path d="M14.5 13.3332C14.5 13.4658 14.4473 13.593 14.3535 13.6867C14.2598 13.7805 14.1326 13.8332 14 13.8332H2.99997C2.7983 13.852 2.59495 13.8261 2.40442 13.7574C2.21389 13.6886 2.04085 13.5787 1.89763 13.4355C1.7544 13.2923 1.64451 13.1193 1.57578 12.9287C1.50705 12.7382 1.48116 12.5348 1.49997 12.3332V2.6665C1.49997 2.5339 1.55265 2.40672 1.64642 2.31295C1.74019 2.21918 1.86736 2.1665 1.99997 2.1665C2.13258 2.1665 2.25976 2.21918 2.35353 2.31295C2.44729 2.40672 2.49997 2.5339 2.49997 2.6665V12.3332C2.49997 12.7258 2.60731 12.8332 2.99997 12.8332H14C14.1326 12.8332 14.2598 12.8858 14.3535 12.9796C14.4473 13.0734 14.5 13.2006 14.5 13.3332ZM4.66664 9.83317C4.73231 9.83333 4.79736 9.82045 4.85801 9.79527C4.91867 9.7701 4.97372 9.73312 5.01997 9.6865L7.21997 7.48984C7.25121 7.45869 7.29353 7.44121 7.33764 7.44121C7.38175 7.44121 7.42406 7.45869 7.45531 7.48984L8.52597 8.5565C8.74547 8.77377 9.04209 8.89525 9.35094 8.89438C9.65978 8.8935 9.9557 8.77034 10.174 8.55184L12.8333 5.8765V6.6665C12.8333 6.79911 12.886 6.92629 12.9798 7.02006C13.0735 7.11383 13.2007 7.1665 13.3333 7.1665C13.4659 7.1665 13.5931 7.11383 13.6869 7.02006C13.7806 6.92629 13.8333 6.79911 13.8333 6.6665V4.6665C13.8323 4.53411 13.7797 4.40734 13.6866 4.31317C13.682 4.30784 13.6753 4.3065 13.6706 4.30184C13.6279 4.26166 13.5785 4.22918 13.5246 4.20584C13.4709 4.18466 13.4138 4.17315 13.356 4.17184C13.3485 4.16965 13.341 4.16787 13.3333 4.1665H11.3333C11.2007 4.1665 11.0735 4.21918 10.9798 4.31295C10.886 4.40672 10.8333 4.5339 10.8333 4.6665C10.8333 4.79911 10.886 4.92629 10.9798 5.02006C11.0735 5.11383 11.2007 5.1665 11.3333 5.1665H12.1293L9.46264 7.8425C9.43112 7.87337 9.38876 7.89065 9.34464 7.89065C9.30052 7.89065 9.25816 7.87337 9.22664 7.8425L8.15997 6.77584C7.94086 6.55864 7.64483 6.43678 7.33631 6.43678C7.02779 6.43678 6.73175 6.55864 6.51264 6.77584L4.31264 8.97584C4.24137 9.04558 4.19259 9.13504 4.17255 9.23272C4.15251 9.33041 4.16214 9.43185 4.2002 9.52402C4.23826 9.61618 4.303 9.69487 4.38612 9.74996C4.46924 9.80505 4.56693 9.83403 4.66664 9.83317Z" fill="#F8FEFF"/>
    </symbol>

    <symbol id="menu-icon-design" viewBox="0 0 16 16" fill="none">
        <path d="M15.5312 0H13.6562C13.3974 0 13.1875 0.209875 13.1875 0.46875V0.9375H9.32563C9.13213 0.391937 8.61109 0 8 0C7.38891 0 6.86788 0.391937 6.67438 0.9375H2.8125V0.46875C2.8125 0.209875 2.60262 0 2.34375 0H0.46875C0.209875 0 0 0.209875 0 0.46875V2.34375C0 2.60262 0.209875 2.8125 0.46875 2.8125H2.34375C2.60262 2.8125 2.8125 2.60262 2.8125 2.34375V1.86875H4.76178C3.07066 2.93981 2.04266 4.74922 1.919 6.67006C1.36681 6.85994 0.96875 7.38419 0.96875 8C0.96875 8.77541 1.59959 9.40625 2.375 9.40625C3.15041 9.40625 3.78125 8.77541 3.78125 8C3.78125 7.39437 3.39641 6.87694 2.85844 6.67938C3.02488 4.47166 4.61462 2.57019 6.7405 2.03069C6.97094 2.49356 7.44878 2.8125 8 2.8125C8.55122 2.8125 9.02906 2.49356 9.2595 2.03072C11.3854 2.57022 12.9751 4.47169 13.1416 6.67941C12.6036 6.87694 12.2188 7.39437 12.2188 8C12.2188 8.77541 12.8496 9.40625 13.625 9.40625C14.4004 9.40625 15.0312 8.77541 15.0312 8C15.0312 7.38419 14.6332 6.85994 14.081 6.67006C13.9571 4.74538 12.926 2.94397 11.2382 1.875H13.1875V2.34375C13.1875 2.60262 13.3974 2.8125 13.6562 2.8125H15.5312C15.7901 2.8125 16 2.60262 16 2.34375V0.46875C16 0.209875 15.7901 0 15.5312 0ZM1.875 1.875H0.9375V0.9375H1.875V1.875ZM2.375 8.46875C2.11653 8.46875 1.90625 8.25847 1.90625 8C1.90625 7.74153 2.11653 7.53125 2.375 7.53125C2.63347 7.53125 2.84375 7.74153 2.84375 8C2.84375 8.25847 2.63347 8.46875 2.375 8.46875ZM8 1.875C7.74153 1.875 7.53125 1.66472 7.53125 1.40625C7.53125 1.14778 7.74153 0.9375 8 0.9375C8.25847 0.9375 8.46875 1.14778 8.46875 1.40625C8.46875 1.66472 8.25847 1.875 8 1.875ZM13.625 7.53125C13.8835 7.53125 14.0938 7.74153 14.0938 8C14.0938 8.25847 13.8835 8.46875 13.625 8.46875C13.3665 8.46875 13.1562 8.25847 13.1562 8C13.1562 7.74153 13.3665 7.53125 13.625 7.53125ZM15.0625 1.875H14.125V0.9375H15.0625V1.875Z" fill="#F8FEFF"/>
        <path d="M12.14 9.61513L8.38999 3.99017L8.38958 3.98957C8.38824 3.98757 8.38677 3.98567 8.38539 3.9837C8.37897 3.97441 8.3722 3.96536 8.36511 3.95657C8.16758 3.71113 7.79146 3.7277 7.61458 3.9837C7.61321 3.98567 7.61174 3.98757 7.61039 3.98957L7.60999 3.99017L3.85999 9.61516C3.79987 9.70533 3.77285 9.81353 3.78353 9.92137C3.79421 10.0292 3.84192 10.13 3.91855 10.2066C4.85377 11.1419 5.44902 12.3644 5.61117 13.6723C5.53763 13.7315 5.46761 13.7949 5.40149 13.8623C4.96121 14.3127 4.71874 14.9055 4.71874 15.5314C4.71874 15.7903 4.92861 16.0002 5.18749 16.0002H10.8125C11.0714 16.0002 11.2812 15.7903 11.2812 15.5314C11.2812 14.9055 11.0388 14.3127 10.5985 13.8623C10.5324 13.7949 10.4624 13.7315 10.3888 13.6723C10.5509 12.3643 11.1462 11.1418 12.0814 10.2066C12.158 10.13 12.2057 10.0292 12.2164 9.92136C12.2271 9.81352 12.2001 9.7053 12.14 9.61513ZM7.99999 9.40641C8.25846 9.40641 8.46874 9.6167 8.46874 9.87516C8.46874 10.1336 8.25846 10.3439 7.99999 10.3439C7.74152 10.3439 7.53124 10.1336 7.53124 9.87516C7.53124 9.6167 7.74152 9.40641 7.99999 9.40641ZM5.73617 15.0627C5.93121 14.5054 6.45989 14.0939 7.06249 14.0939H8.93749C9.54008 14.0939 10.0688 14.5054 10.2638 15.0627H5.73617ZM9.50764 13.2278C9.32131 13.1803 9.12977 13.1563 8.93749 13.1564H7.06249C6.86783 13.1564 6.67671 13.1807 6.49233 13.2278C6.27296 11.9644 5.70324 10.7834 4.84702 9.8247L7.53124 5.79835V8.54957C6.98564 8.74307 6.59374 9.2641 6.59374 9.8752C6.59374 10.6506 7.22458 11.2814 7.99999 11.2814C8.77539 11.2814 9.40624 10.6506 9.40624 9.8752C9.40624 9.2641 9.01433 8.74307 8.46874 8.54957V5.79835L11.153 9.8247C10.2967 10.7833 9.72699 11.9643 9.50764 13.2278Z" fill="#F8FEFF"/>
    </symbol>

    <symbol id="menu-icon-integrations" viewBox="0 0 16 16" fill="none">
        <g clip-path="url(#clip0_4382_1479)">
        <mask id="mask0_4382_1479" style="mask-type:luminance" maskUnits="userSpaceOnUse" x="0" y="0" width="16" height="16">
        <path d="M15.5 15.5V0.5H0.5V15.5H15.5Z" fill="white" stroke="white"/>
        </mask>
        <g mask="url(#mask0_4382_1479)">
        <path d="M6.71873 0.500044V1.55979C5.83592 1.73016 5.01521 2.07451 4.29686 2.56038L3.54933 1.81285L1.78156 3.5806L2.52906 4.32813C2.04318 5.04647 1.6989 5.86725 1.5285 6.75003H0.46875V9.25002H1.5285C1.6989 10.1328 2.04321 10.9535 2.52909 11.6719L1.78156 12.4194L3.54933 14.1872L4.29683 13.4397C5.01517 13.9255 5.83592 14.2699 6.71873 14.4403V15.5H9.21872V0.500044H6.71873Z" stroke="#F8FEFF" stroke-miterlimit="10" stroke-linecap="round" stroke-linejoin="round"/>
        <path d="M9.21874 4.46799C8.82724 4.32937 8.40774 4.25002 7.96874 4.25002C5.89768 4.25002 4.21875 5.92895 4.21875 8.00001C4.21875 10.0711 5.89768 11.75 7.96874 11.75C8.40774 11.75 8.82724 11.6707 9.21874 11.5321" stroke="#F8FEFF" stroke-miterlimit="10" stroke-linecap="round" stroke-linejoin="round"/>
        <path d="M15.5312 8C15.5312 8.51775 15.1115 8.9375 14.5937 8.9375C14.076 8.9375 13.6562 8.51775 13.6562 8C13.6562 7.48225 14.076 7.06251 14.5937 7.06251C15.1115 7.06251 15.5312 7.48225 15.5312 8Z" stroke="#F8FEFF" stroke-miterlimit="10" stroke-linecap="round" stroke-linejoin="round"/>
        <path d="M15.5312 11.75C15.5312 12.2678 15.1115 12.6875 14.5937 12.6875C14.076 12.6875 13.6562 12.2678 13.6562 11.75C13.6562 11.2323 14.076 10.8125 14.5937 10.8125C15.1115 10.8125 15.5312 11.2323 15.5312 11.75Z" stroke="#F8FEFF" stroke-miterlimit="10" stroke-linecap="round" stroke-linejoin="round"/>
        <path d="M13.3437 14.5625C13.3437 15.0803 12.924 15.5 12.4062 15.5C11.8885 15.5 11.4688 15.0803 11.4688 14.5625C11.4688 14.0448 11.8885 13.625 12.4062 13.625C12.924 13.625 13.3437 14.0448 13.3437 14.5625Z" stroke="#F8FEFF" stroke-miterlimit="10" stroke-linecap="round" stroke-linejoin="round"/>
        <path d="M13.6562 8H9.21875" stroke="#F8FEFF" stroke-miterlimit="10" stroke-linecap="round" stroke-linejoin="round"/>
        <path d="M15.5312 4.25C15.5312 3.73225 15.1115 3.31251 14.5937 3.31251C14.076 3.31251 13.6562 3.73225 13.6562 4.25C13.6562 4.76775 14.076 5.1875 14.5937 5.1875C15.1115 5.1875 15.5312 4.76775 15.5312 4.25Z" stroke="#F8FEFF" stroke-miterlimit="10" stroke-linecap="round" stroke-linejoin="round"/>
        <path d="M9.21875 14.5625H11.4687" stroke="#F8FEFF" stroke-miterlimit="10" stroke-linecap="round" stroke-linejoin="round"/>
        <path d="M13.3437 1.4375C13.3437 0.919754 12.924 0.500005 12.4062 0.500005C11.8885 0.500005 11.4688 0.919754 11.4688 1.4375C11.4688 1.95525 11.8885 2.375 12.4062 2.375C12.924 2.375 13.3437 1.95525 13.3437 1.4375Z" stroke="#F8FEFF" stroke-miterlimit="10" stroke-linecap="round" stroke-linejoin="round"/>
        <path d="M9.21875 1.4375H11.4687" stroke="#F8FEFF" stroke-miterlimit="10" stroke-linecap="round" stroke-linejoin="round"/>
        <path d="M9.21875 5.8125H12.7187L13.8768 4.84744" stroke="#F8FEFF" stroke-miterlimit="10" stroke-linecap="round" stroke-linejoin="round"/>
        <path d="M13.8768 11.1523L12.7187 10.1873H9.21875" stroke="#F8FEFF" stroke-miterlimit="10" stroke-linecap="round" stroke-linejoin="round"/>
        </g>
        </g>
        <defs>
        <clipPath id="clip0_4382_1479">
        <rect width="16" height="16" fill="white"/>
        </clipPath>
        </defs>
    </symbol>

    <symbol id="menu-icon-support" viewBox="0 0 16 16" fill="none">
        <g clip-path="url(#clip0_4382_3595)">
        <path d="M6.98729 3.65652H3.03979C2.89061 3.65652 2.74754 3.59726 2.64205 3.49177C2.53656 3.38628 2.47729 3.24321 2.47729 3.09402C2.47729 2.94484 2.53656 2.80176 2.64205 2.69628C2.74754 2.59079 2.89061 2.53152 3.03979 2.53152H6.98729C7.13648 2.53152 7.27955 2.59079 7.38504 2.69628C7.49053 2.80176 7.54979 2.94484 7.54979 3.09402C7.54979 3.24321 7.49053 3.38628 7.38504 3.49177C7.27955 3.59726 7.13648 3.65652 6.98729 3.65652ZM9.47479 2.49902C9.31706 2.49902 9.16578 2.56168 9.05424 2.67322C8.94271 2.78476 8.88004 2.93604 8.88004 3.09377C8.88004 3.25151 8.94271 3.40279 9.05424 3.51433C9.16578 3.62586 9.31706 3.68852 9.47479 3.68852C9.63253 3.68852 9.78381 3.62586 9.89535 3.51433C10.0069 3.40279 10.0695 3.25151 10.0695 3.09377C10.0695 2.93604 10.0069 2.78476 9.89535 2.67322C9.78381 2.56168 9.63253 2.49902 9.47479 2.49902ZM11.2015 2.49902C11.0438 2.49902 10.8925 2.56168 10.781 2.67322C10.6695 2.78476 10.6068 2.93604 10.6068 3.09377C10.6068 3.25151 10.6695 3.40279 10.781 3.51433C10.8925 3.62586 11.0438 3.68852 11.2015 3.68852C11.3593 3.68852 11.5106 3.62586 11.6221 3.51433C11.7336 3.40279 11.7963 3.25151 11.7963 3.09377C11.7963 2.93604 11.7336 2.78476 11.6221 2.67322C11.5106 2.56168 11.3593 2.49902 11.2015 2.49902ZM12.928 2.49902C12.7703 2.49902 12.619 2.56168 12.5075 2.67322C12.396 2.78476 12.3333 2.93604 12.3333 3.09377C12.3333 3.25151 12.396 3.40279 12.5075 3.51433C12.619 3.62586 12.7703 3.68852 12.928 3.68852C13.0858 3.68852 13.2371 3.62586 13.3486 3.51433C13.4601 3.40279 13.5228 3.25151 13.5228 3.09377C13.5228 2.93604 13.4601 2.78476 13.3486 2.67322C13.2371 2.56168 13.0858 2.49902 12.928 2.49902Z" fill="#F8FEFF"/>
        <path d="M14.2525 0.484863H1.74749C0.88249 0.484863 0.17749 1.18736 0.17749 2.05486V13.2799C0.17749 14.1474 0.88249 14.8499 1.74749 14.8499H3.73249C3.89825 14.8499 4.05722 14.784 4.17443 14.6668C4.29164 14.5496 4.35749 14.3906 4.35749 14.2249C4.35749 14.0591 4.29164 13.9001 4.17443 13.7829C4.05722 13.6657 3.89825 13.5999 3.73249 13.5999H1.74749C1.57149 13.5999 1.42749 13.4559 1.42749 13.2799V5.70236H14.5725V13.2799C14.5725 13.4559 14.4285 13.5999 14.2525 13.5999H13.7425C13.5767 13.5999 13.4178 13.6657 13.3005 13.7829C13.1833 13.9001 13.1175 14.0591 13.1175 14.2249C13.1175 14.3906 13.1833 14.5496 13.3005 14.6668C13.4178 14.784 13.5767 14.8499 13.7425 14.8499H14.2525C15.1175 14.8499 15.8225 14.1474 15.8225 13.2799V2.05486C15.8225 1.18736 15.1175 0.484863 14.2525 0.484863ZM14.5725 4.45236H1.42749V2.05486C1.42749 1.87736 1.57249 1.73486 1.74749 1.73486H14.2525C14.4275 1.73486 14.5725 1.87736 14.5725 2.05486V4.45236Z" fill="#F8FEFF"/>
        <path d="M11.2555 14.448L9.47221 12.6647C9.82896 12.4565 10.2502 12.324 10.728 12.2815C10.8743 12.2682 11.0113 12.204 11.115 12.1L11.1842 12.0305C11.2565 11.9579 11.3099 11.8686 11.3396 11.7706C11.3693 11.6725 11.3745 11.5687 11.3546 11.4682C11.3348 11.3677 11.2905 11.2736 11.2257 11.1942C11.161 11.1148 11.0777 11.0526 10.9832 11.013L5.42821 8.6867C5.31383 8.6388 5.18777 8.626 5.06609 8.64995C4.94441 8.67389 4.8326 8.7335 4.74489 8.82117C4.65719 8.90885 4.59755 9.02064 4.57357 9.14232C4.54958 9.26399 4.56234 9.39005 4.61021 9.50445L6.93647 15.0597C6.97608 15.1544 7.03842 15.2379 7.11796 15.3028C7.1975 15.3677 7.2918 15.412 7.39253 15.4318C7.49325 15.4516 7.5973 15.4462 7.69549 15.4163C7.79367 15.3863 7.88296 15.3326 7.95547 15.26L8.02496 15.1905C8.12846 15.0867 8.19196 14.9502 8.20521 14.8045C8.24796 14.3267 8.38046 13.9052 8.58871 13.5485L10.372 15.3317C10.494 15.4537 10.654 15.5147 10.814 15.5147C10.974 15.5147 11.1337 15.4537 11.256 15.3317C11.3729 15.2144 11.4386 15.0554 11.4385 14.8897C11.4384 14.724 11.3726 14.5652 11.2555 14.448ZM7.44471 13.0377L6.35221 10.4287L8.96122 11.5212C8.65578 11.6865 8.37477 11.8934 8.12622 12.136C8.11422 12.1462 8.10097 12.1545 8.08972 12.1657C8.07847 12.177 8.07047 12.19 8.06022 12.2017C7.81731 12.4505 7.61016 12.7319 7.44471 13.0377Z" fill="#F8FEFF"/>
        </g>
        <defs>
        <clipPath id="clip0_4382_3595">
        <rect width="16" height="16" fill="white"/>
        </clipPath>
        </defs>
    </symbol>

    <symbol id="btn-arrow-up" viewBox="0 0 14 14" fill="none">
        <path d="M12.271 1.02246L1.22803 1.02246L1.22803 0.0224615L13.978 0.0224609L13.978 12.7725H12.978L12.978 1.72949L0.718262 13.9893L0.0112305 13.2822L12.271 1.02246Z" fill="currentColor"/>
    </symbol>

    <symbol id="btn-arrow-down" viewBox="0 0 14 14" fill="none">
        <path d="M12.271 12.9775L1.22803 12.9775L1.22803 13.9775L13.978 13.9775L13.978 1.22754H12.978L12.978 12.2705L0.718262 0.0107412L0.0112305 0.717772L12.271 12.9775Z" fill="currentColor"/>
    </symbol>

    <symbol id="btn-arrow-left" viewBox="0 0 14 14" fill="none">
        <path d="M10.8931 0.159264C10.736 -0.0346469 10.4634 -0.0541935 10.2839 0.115512L3.37208 6.64908L3 7L3.37208 7.35092L10.2839 13.8845C10.4634 14.0542 10.736 14.0346 10.8931 13.8407C11.0502 13.6468 11.0321 13.3524 10.8526 13.1826L4.312 7L10.8526 0.81736C11.0321 0.647626 11.0502 0.353213 10.8931 0.159264Z" fill="currentColor"/>
    </symbol>

    <symbol id="btn-arrow-right" viewBox="0 0 14 14" fill="none">
        <path d="M3.10692 0.159264C3.26404 -0.0346469 3.53657 -0.0541935 3.7161 0.115512L10.6279 6.64908L11 7L10.6279 7.35092L3.7161 13.8845C3.53657 14.0542 3.26404 14.0346 3.10692 13.8407C2.94984 13.6468 2.96793 13.3524 3.14742 13.1826L9.688 7L3.14742 0.81736C2.96793 0.647626 2.94984 0.353213 3.10692 0.159264Z" fill="currentColor"/>
    </symbol>

    <symbol id="icon-phone" viewBox="0 0 30 30" fill="none">
        <path d="M14.48 24.0313C11.4163 22.4368 8.81778 20.0761 6.93741 17.179C5.05703 14.282 3.95892 10.9474 3.75 7.5C3.75 6.83696 4.01339 6.20107 4.48223 5.73223C4.95107 5.26339 5.58696 5 6.25 5H11.25L13.75 11.25L10.625 13.125C11.9637 15.8394 14.1606 18.0363 16.875 19.375L18.75 16.25L19.5625 16.575" stroke="currentColor" stroke-linecap="round" stroke-linejoin="round"/>
        <path d="M23.75 28.125C24.0066 27.0641 24.5508 26.0944 25.3226 25.3226C26.0944 24.5508 27.0641 24.0066 28.125 23.75C27.0641 23.4934 26.0944 22.9492 25.3226 22.1774C24.5508 21.4056 24.0066 20.4359 23.75 19.375C23.4934 20.4359 22.9492 21.4056 22.1774 22.1774C21.4056 22.9492 20.4359 23.4934 19.375 23.75C20.4359 24.0066 21.4056 24.5508 22.1774 25.3226C22.9492 26.0944 23.4934 27.0641 23.75 28.125Z" stroke="currentColor" stroke-linecap="round" stroke-linejoin="round"/>
    </symbol>

    <symbol id="icon-phone-bold" viewBox="0 0 30 30" fill="none">
        <path d="M14.48 24.0313C11.4163 22.4368 8.81778 20.0761 6.93741 17.179C5.05703 14.282 3.95892 10.9474 3.75 7.5C3.75 6.83696 4.01339 6.20107 4.48223 5.73223C4.95107 5.26339 5.58696 5 6.25 5H11.25L13.75 11.25L10.625 13.125C11.9637 15.8394 14.1606 18.0363 16.875 19.375L18.75 16.25L19.5625 16.575" stroke="currentColor" stroke-width="2" stroke-linecap="round" stroke-linejoin="round"/>
        <path d="M23.75 28.125C24.0066 27.0641 24.5508 26.0944 25.3226 25.3226C26.0944 24.5508 27.0641 24.0066 28.125 23.75C27.0641 23.4934 26.0944 22.9492 25.3226 22.1774C24.5508 21.4056 24.0066 20.4359 23.75 19.375C23.4934 20.4359 22.9492 21.4056 22.1774 22.1774C21.4056 22.9492 20.4359 23.4934 19.375 23.75C20.4359 24.0066 21.4056 24.5508 22.1774 25.3226C22.9492 26.0944 23.4934 27.0641 23.75 28.125Z" stroke="currentColor" stroke-width="2" stroke-linecap="round" stroke-linejoin="round"/>
    </symbol>

    <symbol id="icon-geo" viewBox="0 0 30 30" fill="none">
        <path d="M11.25 13.75C11.25 14.7446 11.6451 15.6984 12.3483 16.4017C13.0516 17.1049 14.0054 17.5 15 17.5C15.9946 17.5 16.9484 17.1049 17.6517 16.4017C18.3549 15.6984 18.75 14.7446 18.75 13.75C18.75 12.7554 18.3549 11.8016 17.6517 11.0983C16.9484 10.3951 15.9946 10 15 10C14.0054 10 13.0516 10.3951 12.3483 11.0983C11.6451 11.8016 11.25 12.7554 11.25 13.75Z" stroke="currentColor" stroke-width="2" stroke-linecap="round" stroke-linejoin="round"/>
        <path d="M22.0713 20.8213L16.7675 26.125C16.2987 26.5933 15.6632 26.8563 15.0006 26.8563C14.338 26.8563 13.7025 26.5933 13.2338 26.125L7.92875 20.8213C6.53028 19.4227 5.57792 17.6409 5.19211 15.7011C4.8063 13.7613 5.00437 11.7506 5.76126 9.92341C6.51815 8.09618 7.79988 6.53443 9.44436 5.43563C11.0888 4.33684 13.0222 3.75037 15 3.75037C16.9778 3.75037 18.9112 4.33684 20.5557 5.43563C22.2001 6.53443 23.4819 8.09618 24.2388 9.92341C24.9956 11.7506 25.1937 13.7613 24.8079 15.7011C24.4221 17.6409 23.4697 19.4227 22.0713 20.8213Z" stroke="currentColor" stroke-width="2" stroke-linecap="round" stroke-linejoin="round"/>
    </symbol>

    <symbol id="icon-burger" viewBox="0 0 20 16" fill="none">
        <rect width="20" height="2" rx="1" fill="currentColor"/>
        <rect y="7" width="20" height="2" rx="1" fill="currentColor"/>
        <rect y="14" width="20" height="2" rx="1" fill="currentColor"/>
    </symbol>

    <symbol id="icon-close" viewBox="0 0 20 20" fill="none">
        <path d="M18 2L2 18" stroke="currentColor" stroke-width="2" stroke-linecap="round" stroke-linejoin="round"/>
        <path d="M2 2L18 18" stroke="currentColor" stroke-width="2" stroke-linecap="round" stroke-linejoin="round"/>
    </symbol>

    <symbol id="icon-question" viewBox="0 0 18 18" fill="none">
        <rect x="0.5" y="0.5" width="17" height="17" rx="8.5" stroke="currentColor"/>
        <path d="M6.6665 6.66699C6.6665 6.20286 6.88161 5.75774 7.26449 5.42956C7.64738 5.10137 8.16669 4.91699 8.70817 4.91699H9.2915C9.83299 4.91699 10.3523 5.10137 10.7352 5.42956C11.1181 5.75774 11.3332 6.20286 11.3332 6.66699C11.3547 7.04572 11.2525 7.42118 11.0421 7.73681C10.8316 8.05244 10.5244 8.29115 10.1665 8.41699C9.80864 8.58478 9.50136 8.90306 9.29094 9.3239C9.08052 9.74474 8.97836 10.2453 8.99984 10.7503" stroke="currentColor" stroke-linecap="round" stroke-linejoin="round"/>
        <path d="M9 13.083V13.0888" stroke="currentColor" stroke-linecap="round" stroke-linejoin="round"/>
    </symbol>

    <symbol id="icon-eye" viewBox="0 0 20 20" fill="none">
        <path d="M8.3335 9.99967C8.3335 10.4417 8.50909 10.8656 8.82165 11.1782C9.13421 11.4907 9.55814 11.6663 10.0002 11.6663C10.4422 11.6663 10.8661 11.4907 11.1787 11.1782C11.4912 10.8656 11.6668 10.4417 11.6668 9.99967C11.6668 9.55765 11.4912 9.13372 11.1787 8.82116C10.8661 8.5086 10.4422 8.33301 10.0002 8.33301C9.55814 8.33301 9.13421 8.5086 8.82165 8.82116C8.50909 9.13372 8.3335 9.55765 8.3335 9.99967Z" stroke="currentColor" stroke-linecap="round" stroke-linejoin="round"/>
        <path d="M17.5 10C15.5 13.3333 13 15 10 15C7 15 4.5 13.3333 2.5 10C4.5 6.66667 7 5 10 5C13 5 15.5 6.66667 17.5 10Z" stroke="currentColor" stroke-linecap="round" stroke-linejoin="round"/>
    </symbol>

    <symbol id="icon-timer" viewBox="0 0 20 20" fill="none">
        <path d="M4.1665 10.8333C4.1665 11.5994 4.31739 12.3579 4.61054 13.0657C4.90369 13.7734 5.33337 14.4164 5.87505 14.9581C6.41672 15.4998 7.05978 15.9295 7.76752 16.2226C8.47525 16.5158 9.23379 16.6667 9.99984 16.6667C10.7659 16.6667 11.5244 16.5158 12.2322 16.2226C12.9399 15.9295 13.583 15.4998 14.1246 14.9581C14.6663 14.4164 15.096 13.7734 15.3891 13.0657C15.6823 12.3579 15.8332 11.5994 15.8332 10.8333C15.8332 9.28624 15.2186 7.80251 14.1246 6.70854C13.0307 5.61458 11.5469 5 9.99984 5C8.45274 5 6.96901 5.61458 5.87505 6.70854C4.78109 7.80251 4.1665 9.28624 4.1665 10.8333Z" stroke="currentColor" stroke-linecap="round" stroke-linejoin="round"/>
        <path d="M12.0833 8.75L10 10.8333" stroke="currentColor" stroke-linecap="round" stroke-linejoin="round"/>
        <path d="M14.1665 6.66634L14.9998 5.83301" stroke="currentColor" stroke-linecap="round" stroke-linejoin="round"/>
        <path d="M11.6668 2.5H8.3335" stroke="currentColor" stroke-linecap="round" stroke-linejoin="round"/>
    </symbol>

    <symbol id="icon-calendar" viewBox="0 0 20 20" fill="none">
        <path d="M3.3335 5.83366C3.3335 5.39163 3.50909 4.96771 3.82165 4.65515C4.13421 4.34259 4.55814 4.16699 5.00016 4.16699H15.0002C15.4422 4.16699 15.8661 4.34259 16.1787 4.65515C16.4912 4.96771 16.6668 5.39163 16.6668 5.83366V15.8337C16.6668 16.2757 16.4912 16.6996 16.1787 17.0122C15.8661 17.3247 15.4422 17.5003 15.0002 17.5003H5.00016C4.55814 17.5003 4.13421 17.3247 3.82165 17.0122C3.50909 16.6996 3.3335 16.2757 3.3335 15.8337V5.83366Z" stroke="currentColor" stroke-linecap="round" stroke-linejoin="round"/>
        <path d="M13.3335 2.5V5.83333" stroke="currentColor" stroke-linecap="round" stroke-linejoin="round"/>
        <path d="M6.6665 2.5V5.83333" stroke="currentColor" stroke-linecap="round" stroke-linejoin="round"/>
        <path d="M3.3335 9.16699H16.6668" stroke="currentColor" stroke-linecap="round" stroke-linejoin="round"/>
        <path d="M5.8335 11.667H5.84433" stroke="currentColor" stroke-linecap="round" stroke-linejoin="round"/>
        <path d="M8.3418 11.667H8.34596" stroke="currentColor" stroke-linecap="round" stroke-linejoin="round"/>
        <path d="M10.8418 11.667H10.846" stroke="currentColor" stroke-linecap="round" stroke-linejoin="round"/>
        <path d="M13.3457 11.667H13.3499" stroke="currentColor" stroke-linecap="round" stroke-linejoin="round"/>
        <path d="M10.8457 14.167H10.8499" stroke="currentColor" stroke-linecap="round" stroke-linejoin="round"/>
        <path d="M5.8418 14.167H5.84596" stroke="currentColor" stroke-linecap="round" stroke-linejoin="round"/>
        <path d="M8.3418 14.167H8.34596" stroke="currentColor" stroke-linecap="round" stroke-linejoin="round"/>
    </symbol>

    <symbol id="chevron-down" viewBox="0 0 14 14" fill="none">
        <path d="M13.8407 3.10692C14.0346 3.26404 14.0542 3.53657 13.8845 3.7161L7.35092 10.6279L7 11L6.64908 10.6279L0.115513 3.7161C-0.0541926 3.53657 -0.034646 3.26404 0.159265 3.10692C0.353214 2.94983 0.647628 2.96793 0.817361 3.14742L7 9.688L13.1826 3.14742C13.3524 2.96793 13.6468 2.94984 13.8407 3.10692Z" fill="currentColor"/>
    </symbol>

    <symbol id="arrow-back" viewBox="0 0 14 14" fill="none">
        <path d="M12.5 12.5C12.5 9.46243 10.0376 7 7 7H2.20703L6.85352 11.6465L6.14648 12.3535L0.292969 6.5L6.14648 0.646484L6.85352 1.35352L2.20703 6H7C10.5899 6 13.5 8.91015 13.5 12.5V13H12.5V12.5Z" fill="currentColor"/>
    </symbol>

    <symbol id="project-link" viewBox="0 0 32 32" fill="none">
        <path d="M12.9404 7.06V8.93988H9.60059C5.70146 8.93988 2.54004 12.1013 2.54004 16.0004C2.54027 19.8994 5.7016 23.06 9.60059 23.06H12.9404V24.9399H9.60059C4.6633 24.9399 0.660389 20.9377 0.660156 16.0004C0.660156 11.063 4.66316 7.06 9.60059 7.06H12.9404ZM22.4004 7.06C27.3377 7.06012 31.3398 11.0631 31.3398 16.0004C31.3396 20.9376 27.3376 24.9398 22.4004 24.9399H19.0605V23.06H22.4004C26.2993 23.0599 29.4597 19.8993 29.46 16.0004C29.46 12.1014 26.2994 8.94001 22.4004 8.93988H19.0605V7.06H22.4004ZM24.1406 15.06V16.9399H7.86035V15.06H24.1406Z" fill="currentColor"/>
    </symbol>

    <!-- footer arrow down -->
    <symbol id="arrow-down" viewBox="0 0 16 17" fill="none">
        <path d="M15.818 4.07142C16.0396 4.25098 16.0619 4.56244 15.868 4.76761L8.40106 12.6668L8 13.0921L7.59894 12.6668L0.132015 4.76761C-0.0619335 4.56244 -0.0395966 4.25098 0.182016 4.07142C0.403673 3.89189 0.740146 3.91257 0.934127 4.1177L8 11.5927L15.0659 4.1177C15.2599 3.91257 15.5963 3.89189 15.818 4.07142Z" fill="currentColor"/>
    </symbol>

</svg>