<svg width="16" height="16" viewBox="0 0 16 16" fill="none" xmlns="http://www.w3.org/2000/svg">
<g clip-path="url(#clip0_4382_3595)">
<path d="M6.98729 3.65652H3.03979C2.89061 3.65652 2.74754 3.59726 2.64205 3.49177C2.53656 3.38628 2.47729 3.24321 2.47729 3.09402C2.47729 2.94484 2.53656 2.80176 2.64205 2.69628C2.74754 2.59079 2.89061 2.53152 3.03979 2.53152H6.98729C7.13648 2.53152 7.27955 2.59079 7.38504 2.69628C7.49053 2.80176 7.54979 2.94484 7.54979 3.09402C7.54979 3.24321 7.49053 3.38628 7.38504 3.49177C7.27955 3.59726 7.13648 3.65652 6.98729 3.65652ZM9.47479 2.49902C9.31706 2.49902 9.16578 2.56168 9.05424 2.67322C8.94271 2.78476 8.88004 2.93604 8.88004 3.09377C8.88004 3.25151 8.94271 3.40279 9.05424 3.51433C9.16578 3.62586 9.31706 3.68852 9.47479 3.68852C9.63253 3.68852 9.78381 3.62586 9.89535 3.51433C10.0069 3.40279 10.0695 3.25151 10.0695 3.09377C10.0695 2.93604 10.0069 2.78476 9.89535 2.67322C9.78381 2.56168 9.63253 2.49902 9.47479 2.49902ZM11.2015 2.49902C11.0438 2.49902 10.8925 2.56168 10.781 2.67322C10.6695 2.78476 10.6068 2.93604 10.6068 3.09377C10.6068 3.25151 10.6695 3.40279 10.781 3.51433C10.8925 3.62586 11.0438 3.68852 11.2015 3.68852C11.3593 3.68852 11.5106 3.62586 11.6221 3.51433C11.7336 3.40279 11.7963 3.25151 11.7963 3.09377C11.7963 2.93604 11.7336 2.78476 11.6221 2.67322C11.5106 2.56168 11.3593 2.49902 11.2015 2.49902ZM12.928 2.49902C12.7703 2.49902 12.619 2.56168 12.5075 2.67322C12.396 2.78476 12.3333 2.93604 12.3333 3.09377C12.3333 3.25151 12.396 3.40279 12.5075 3.51433C12.619 3.62586 12.7703 3.68852 12.928 3.68852C13.0858 3.68852 13.2371 3.62586 13.3486 3.51433C13.4601 3.40279 13.5228 3.25151 13.5228 3.09377C13.5228 2.93604 13.4601 2.78476 13.3486 2.67322C13.2371 2.56168 13.0858 2.49902 12.928 2.49902Z" fill="#F8FEFF"/>
<path d="M14.2525 0.484863H1.74749C0.88249 0.484863 0.17749 1.18736 0.17749 2.05486V13.2799C0.17749 14.1474 0.88249 14.8499 1.74749 14.8499H3.73249C3.89825 14.8499 4.05722 14.784 4.17443 14.6668C4.29164 14.5496 4.35749 14.3906 4.35749 14.2249C4.35749 14.0591 4.29164 13.9001 4.17443 13.7829C4.05722 13.6657 3.89825 13.5999 3.73249 13.5999H1.74749C1.57149 13.5999 1.42749 13.4559 1.42749 13.2799V5.70236H14.5725V13.2799C14.5725 13.4559 14.4285 13.5999 14.2525 13.5999H13.7425C13.5767 13.5999 13.4178 13.6657 13.3005 13.7829C13.1833 13.9001 13.1175 14.0591 13.1175 14.2249C13.1175 14.3906 13.1833 14.5496 13.3005 14.6668C13.4178 14.784 13.5767 14.8499 13.7425 14.8499H14.2525C15.1175 14.8499 15.8225 14.1474 15.8225 13.2799V2.05486C15.8225 1.18736 15.1175 0.484863 14.2525 0.484863ZM14.5725 4.45236H1.42749V2.05486C1.42749 1.87736 1.57249 1.73486 1.74749 1.73486H14.2525C14.4275 1.73486 14.5725 1.87736 14.5725 2.05486V4.45236Z" fill="#F8FEFF"/>
<path d="M11.2555 14.448L9.47221 12.6647C9.82896 12.4565 10.2502 12.324 10.728 12.2815C10.8743 12.2682 11.0113 12.204 11.115 12.1L11.1842 12.0305C11.2565 11.9579 11.3099 11.8686 11.3396 11.7706C11.3693 11.6725 11.3745 11.5687 11.3546 11.4682C11.3348 11.3677 11.2905 11.2736 11.2257 11.1942C11.161 11.1148 11.0777 11.0526 10.9832 11.013L5.42821 8.6867C5.31383 8.6388 5.18777 8.626 5.06609 8.64995C4.94441 8.67389 4.8326 8.7335 4.74489 8.82117C4.65719 8.90885 4.59755 9.02064 4.57357 9.14232C4.54958 9.26399 4.56234 9.39005 4.61021 9.50445L6.93647 15.0597C6.97608 15.1544 7.03842 15.2379 7.11796 15.3028C7.1975 15.3677 7.2918 15.412 7.39253 15.4318C7.49325 15.4516 7.5973 15.4462 7.69549 15.4163C7.79367 15.3863 7.88296 15.3326 7.95547 15.26L8.02496 15.1905C8.12846 15.0867 8.19196 14.9502 8.20521 14.8045C8.24796 14.3267 8.38046 13.9052 8.58871 13.5485L10.372 15.3317C10.494 15.4537 10.654 15.5147 10.814 15.5147C10.974 15.5147 11.1337 15.4537 11.256 15.3317C11.3729 15.2144 11.4386 15.0554 11.4385 14.8897C11.4384 14.724 11.3726 14.5652 11.2555 14.448ZM7.44471 13.0377L6.35221 10.4287L8.96122 11.5212C8.65578 11.6865 8.37477 11.8934 8.12622 12.136C8.11422 12.1462 8.10097 12.1545 8.08972 12.1657C8.07847 12.177 8.07047 12.19 8.06022 12.2017C7.81731 12.4505 7.61016 12.7319 7.44471 13.0377Z" fill="#F8FEFF"/>
</g>
<defs>
<clipPath id="clip0_4382_3595">
<rect width="16" height="16" fill="white"/>
</clipPath>
</defs>
</svg>
