<svg width="200" height="100" viewBox="0 0 200 100" fill="none" xmlns="http://www.w3.org/2000/svg">
<path d="M200 30C200 46.5685 186.569 60 170 60C153.431 60 140 46.5685 140 30C140 13.4315 153.431 0 170 0C186.569 0 200 13.4315 200 30Z" fill="#4251F7"/>
<path d="M200 30C200 46.5685 186.569 60 170 60C153.431 60 140 46.5685 140 30C140 13.4315 153.431 0 170 0C186.569 0 200 13.4315 200 30Z" fill="url(#paint0_linear_3151_2740)"/>
<path d="M200 170C200 186.569 186.569 200 170 200C153.431 200 140 186.569 140 170C140 153.431 153.431 140 170 140C186.569 140 200 153.431 200 170Z" fill="#4251F7"/>
<path d="M200 170C200 186.569 186.569 200 170 200C153.431 200 140 186.569 140 170C140 153.431 153.431 140 170 140C186.569 140 200 153.431 200 170Z" fill="url(#paint1_linear_3151_2740)"/>
<path d="M151 100C151 128.167 128.167 151 100 151C71.8335 151 49 128.167 49 100C49 71.8335 71.8335 49 100 49C128.167 49 151 71.8335 151 100Z" fill="#4251F7"/>
<path d="M151 100C151 128.167 128.167 151 100 151C71.8335 151 49 128.167 49 100C49 71.8335 71.8335 49 100 49C128.167 49 151 71.8335 151 100Z" fill="url(#paint2_linear_3151_2740)"/>
<path d="M60 30C60 46.5685 46.5685 60 30 60C13.4315 60 0 46.5685 0 30C0 13.4315 13.4315 0 30 0C46.5685 0 60 13.4315 60 30Z" fill="#4251F7"/>
<path d="M60 30C60 46.5685 46.5685 60 30 60C13.4315 60 0 46.5685 0 30C0 13.4315 13.4315 0 30 0C46.5685 0 60 13.4315 60 30Z" fill="url(#paint3_linear_3151_2740)"/>
<path d="M60 170C60 186.569 46.5685 200 30 200C13.4315 200 0 186.569 0 170C0 153.431 13.4315 140 30 140C46.5685 140 60 153.431 60 170Z" fill="#4251F7"/>
<path d="M60 170C60 186.569 46.5685 200 30 200C13.4315 200 0 186.569 0 170C0 153.431 13.4315 140 30 140C46.5685 140 60 153.431 60 170Z" fill="url(#paint4_linear_3151_2740)"/>
<defs>
<linearGradient id="paint0_linear_3151_2740" x1="100" y1="0" x2="100" y2="200" gradientUnits="userSpaceOnUse">
<stop stop-color="#4251C3"/>
<stop offset="1" stop-color="#7483F5"/>
</linearGradient>
<linearGradient id="paint1_linear_3151_2740" x1="100" y1="0" x2="100" y2="200" gradientUnits="userSpaceOnUse">
<stop stop-color="#4251C3"/>
<stop offset="1" stop-color="#7483F5"/>
</linearGradient>
<linearGradient id="paint2_linear_3151_2740" x1="100" y1="0" x2="100" y2="200" gradientUnits="userSpaceOnUse">
<stop stop-color="#4251C3"/>
<stop offset="1" stop-color="#7483F5"/>
</linearGradient>
<linearGradient id="paint3_linear_3151_2740" x1="100" y1="0" x2="100" y2="200" gradientUnits="userSpaceOnUse">
<stop stop-color="#4251C3"/>
<stop offset="1" stop-color="#7483F5"/>
</linearGradient>
<linearGradient id="paint4_linear_3151_2740" x1="100" y1="0" x2="100" y2="200" gradientUnits="userSpaceOnUse">
<stop stop-color="#4251C3"/>
<stop offset="1" stop-color="#7483F5"/>
</linearGradient>
</defs>
</svg>
