<svg width="200" height="100" viewBox="0 0 200 100" fill="none" xmlns="http://www.w3.org/2000/svg">
<path d="M170.71 170.711C151.957 189.464 126.521 200 99.9995 200L99.9995 100.225C99.8783 127.736 77.5392 150 50 150C22.3858 150 1.20706e-06 127.614 0 100C-1.20706e-06 72.3858 22.3858 50 50 50C77.5392 50 99.8783 72.2642 99.9995 99.7749L99.9995 0C126.521 5.16396e-06 151.957 10.5357 170.71 29.2893C189.464 48.043 200 73.4784 200 100C200 126.522 189.464 151.957 170.71 170.711Z" fill="#F74251"/>
<path d="M170.71 170.711C151.957 189.464 126.521 200 99.9995 200L99.9995 100.225C99.8783 127.736 77.5392 150 50 150C22.3858 150 1.20706e-06 127.614 0 100C-1.20706e-06 72.3858 22.3858 50 50 50C77.5392 50 99.8783 72.2642 99.9995 99.7749L99.9995 0C126.521 5.16396e-06 151.957 10.5357 170.71 29.2893C189.464 48.043 200 73.4784 200 100C200 126.522 189.464 151.957 170.71 170.711Z" fill="url(#paint0_linear_3151_197)"/>
<defs>
<linearGradient id="paint0_linear_3151_197" x1="99.9998" y1="0" x2="99.9998" y2="200" gradientUnits="userSpaceOnUse">
<stop stop-color="#E13847"/>
<stop offset="1" stop-color="#EB5665"/>
</linearGradient>
</defs>
</svg>
