<svg width="240" height="240" viewBox="0 0 240 240" fill="none" xmlns="http://www.w3.org/2000/svg">
<g clip-path="url(#clip0_3383_40925)">
<path d="M32.4 239.998C11.5995 207.238 4.57764e-06 164.474 0 119.999C0 75.5239 11.5995 32.7608 32.4 0V239.998Z" fill="#4251F7"/>
<path d="M32.4 239.998C11.5995 207.238 4.57764e-06 164.474 0 119.999C0 75.5239 11.5995 32.7608 32.4 0V239.998Z" fill="url(#paint0_linear_3383_40925)"/>
<path d="M240 240C208.174 240 177.652 227.357 155.147 204.853C132.643 182.348 120 151.826 120 120C120 88.174 132.643 57.6516 155.147 35.1472C177.652 12.6428 208.174 1.14421e-05 240 5.24537e-06L240 240Z" fill="#4251F7"/>
<path d="M240 240C208.174 240 177.652 227.357 155.147 204.853C132.643 182.348 120 151.826 120 120C120 88.174 132.643 57.6516 155.147 35.1472C177.652 12.6428 208.174 1.14421e-05 240 5.24537e-06L240 240Z" fill="url(#paint1_linear_3383_40925)"/>
<path d="M72.3472 210.582C84.6122 223.675 99.2588 233.641 115.2 240V0C99.2588 6.35856 84.6122 16.3247 72.3472 29.4178C49.8428 53.4416 37.2 86.0249 37.2 120C37.2 153.975 49.8428 186.558 72.3472 210.582Z" fill="#4251F7"/>
<path d="M72.3472 210.582C84.6122 223.675 99.2588 233.641 115.2 240V0C99.2588 6.35856 84.6122 16.3247 72.3472 29.4178C49.8428 53.4416 37.2 86.0249 37.2 120C37.2 153.975 49.8428 186.558 72.3472 210.582Z" fill="url(#paint2_linear_3383_40925)"/>
</g>
<defs>
<linearGradient id="paint0_linear_3383_40925" x1="120" y1="0" x2="120" y2="240" gradientUnits="userSpaceOnUse">
<stop stop-color="#4251C3"/>
<stop offset="1" stop-color="#7483F5"/>
</linearGradient>
<linearGradient id="paint1_linear_3383_40925" x1="120" y1="0" x2="120" y2="240" gradientUnits="userSpaceOnUse">
<stop stop-color="#4251C3"/>
<stop offset="1" stop-color="#7483F5"/>
</linearGradient>
<linearGradient id="paint2_linear_3383_40925" x1="120" y1="0" x2="120" y2="240" gradientUnits="userSpaceOnUse">
<stop stop-color="#4251C3"/>
<stop offset="1" stop-color="#7483F5"/>
</linearGradient>
<clipPath id="clip0_3383_40925">
<rect width="240" height="240" fill="white"/>
</clipPath>
</defs>
</svg>
