<svg width="163" height="60" viewBox="0 0 163 60" fill="none" xmlns="http://www.w3.org/2000/svg">
<path fill-rule="evenodd" clip-rule="evenodd" d="M5.67664 14.1676V13.5704V12.9731H21.9476H38.2186V13.5704V14.1676H31.5485H24.8784V27.721V41.2745L25.5353 41.1344C27.6081 40.6924 29.8109 38.8901 30.803 36.8244C31.8123 34.7231 32.0372 33.3387 32.0418 29.1984C32.0453 26.2044 31.9721 25.146 31.6909 24.1218C30.9072 21.2643 29.6115 19.5666 27.4793 18.6026C26.3832 18.1071 26.2933 18.0167 26.2933 17.4111C26.2933 16.6056 26.5577 16.5789 28.7228 17.165C31.2394 17.8465 33.0889 18.8606 34.6838 20.4341C37.1404 22.8576 38.0987 25.4524 38.0672 29.5965C38.017 36.2053 35.1473 40.2439 29.3197 41.9066C26.684 42.6586 24.4945 42.8343 17.7536 42.8349L11.5382 42.8355V44.9313V47.0272L8.65799 46.9718L5.7777 46.9167V32.0851V17.2534L8.65799 17.1983L11.5382 17.1429L11.5489 22.3744L11.5596 27.6057L12.0533 25.9621C12.7473 23.6493 13.4034 22.1312 14.2539 20.8691C15.0028 19.7581 16.3902 18.3758 17.1686 17.9656C17.5641 17.7569 17.6019 17.7862 17.6019 18.301C17.6019 18.6978 17.3594 19.0979 16.7827 19.6518C15.1014 21.2669 14.1149 23.2882 13.1338 27.1283C12.259 30.5514 11.7399 34.3014 11.6001 38.2069L11.477 41.6411H15.247H19.0168V27.9043V14.1676H12.3467H5.67664ZM107.411 19.2279C107.278 18.8865 106.019 18.0975 104.919 17.6667C103.748 17.2078 100.384 17.0664 98.8559 17.4119C96.3906 17.9687 94.5733 19.3225 93.6326 21.3037C93.1655 22.2855 93.0973 22.685 93.0965 24.4246C93.0949 26.2766 93.1428 26.5143 93.7566 27.7421C94.5303 29.291 95.428 30.1318 97.1602 30.93C99.2305 31.8844 102.721 31.9992 104.796 31.1814C105.836 30.7717 107.345 29.7384 107.344 29.4376C107.343 29.306 107.123 28.9296 106.855 28.6011L106.368 28.0039L105.795 28.5406C103.751 30.458 99.3408 30.578 96.9518 28.7813C94.3965 26.8597 94.1864 22.721 96.5301 20.4794C97.6694 19.389 99.1835 18.8937 101.382 18.8908C103.439 18.8885 104.589 19.2179 105.765 20.1467L106.51 20.7345L107.009 20.1057C107.284 19.7599 107.465 19.3649 107.411 19.2279ZM59.4416 18.9345V18.1437V17.353H52.9736H46.5056V18.1493V18.9457H49.2343H51.963V25.2167V31.4878H52.8698H53.7765L53.8298 25.2665L53.8832 19.0451L56.6624 18.9898L59.4416 18.9345ZM63.1902 24.1218C63.1293 24.1218 63.0798 22.5988 63.0798 20.7374V17.353H62.2713H61.4628V24.4204V31.4878H62.2713H63.0798V28.9049V26.3223L64.8286 25.0228C65.7905 24.3083 66.6319 23.7244 66.6982 23.7254C66.7647 23.7264 68.2289 25.4725 69.952 27.6057L73.0849 31.4842L74.2472 31.4861C74.8864 31.487 75.4093 31.452 75.4093 31.4081C75.4093 31.3646 73.7691 29.3785 71.7645 26.9951C69.7598 24.6117 68.1909 22.599 68.2778 22.5227C68.365 22.4463 69.8459 21.3714 71.569 20.134C74.1954 18.2479 75.0957 17.634 75.0125 17.4383C74.9633 17.3225 74.5702 17.353 73.9866 17.353H72.6793L67.9898 20.7374C65.4105 22.5988 63.2508 24.1218 63.1902 24.1218ZM91.8063 29.2481C91.1381 28.0164 89.4132 24.8583 87.9738 22.2305L85.3569 17.4525L84.4762 17.3946L83.5955 17.3368L80.9352 22.2721C79.472 24.9866 77.756 28.1757 77.1217 29.3588L75.9686 31.5103L77.0277 31.4492L78.0869 31.3883L79.123 29.4514L80.1593 27.5145L84.4405 27.5103L88.7223 27.5062L89.7968 29.496L90.8721 31.4857L91.9466 31.4868L93.0211 31.4878L91.8063 29.2481ZM111.791 23.3328V20.3428V17.353H110.882H109.972V24.4204V31.4878H110.882H111.791V28.3025V25.1171H116.542H121.291V28.3025V31.4878H122.1H122.908V24.4204V17.353H122.106H121.302L121.246 20.2894L121.19 23.2259L116.491 23.2793L111.791 23.3328ZM129.458 29.3841C127.76 28.3459 127.669 27.9945 127.595 22.2803L127.532 17.353H126.615H125.698L125.769 22.4793L125.839 27.6057L126.405 28.7403C127.455 30.8471 129.436 31.7771 132.813 31.7488C135.237 31.7285 136.735 31.2183 137.985 29.9871C139.341 28.6511 139.483 27.9165 139.483 22.1943V17.353H138.573H137.664V22.1883C137.664 26.8072 137.643 27.0634 137.209 27.9103C136.38 29.5263 134.782 30.1922 132.067 30.0528C130.677 29.9814 130.26 29.8747 129.458 29.3841ZM80.9027 26.0131L82.628 22.7628C83.5768 20.975 84.4259 19.5864 84.5159 19.677C84.8249 19.9878 87.9851 25.9368 87.8911 26.0294C87.8392 26.0805 86.2457 26.0977 84.3497 26.0676L80.9027 26.0131ZM54.9948 45.0525L53.1688 42.9486C51.7651 41.3313 51.2274 40.8447 50.8444 40.8447H50.346V43.7314V46.6181H50.8443C51.3366 46.6181 51.3431 46.5944 51.4001 44.6394L51.4577 42.6607L53.2384 44.6394C54.5754 46.1252 55.1418 46.6181 55.5123 46.6181H56.0054V43.7314V40.8447H55.5001H54.9948V42.9486V45.0525ZM67.0539 46.3692C66.9927 46.2324 66.3235 44.9557 65.567 43.5323C63.6625 39.949 63.6411 39.9494 61.7134 43.5944C60.9086 45.1162 60.2501 46.419 60.2501 46.4897C60.2501 46.5603 60.4756 46.6181 60.7513 46.6181C61.1326 46.6181 61.3513 46.4276 61.6649 45.8218L62.0775 45.0254H63.6595H65.2417L65.6064 45.8218C65.9123 46.4901 66.067 46.6181 66.5682 46.6181C66.9707 46.6181 67.1292 46.5368 67.0539 46.3692ZM72.3775 46.6181V43.7314V40.8447H71.8721H71.3669V43.7314V46.6181H71.8721H72.3775ZM78.0369 45.6071V43.226V40.8447H77.5317H77.0264V43.7314V46.6181H79.3649C81.6744 46.6181 81.7028 46.6125 81.6387 46.1702C81.5779 45.7499 81.4651 45.7186 79.8055 45.6647L78.0369 45.6071ZM96.1481 41.8776C96.4749 41.4378 96.3582 41.297 95.4629 41.0523C93.5004 40.5154 91.7812 41.2385 91.7812 42.6012C91.7812 43.3426 92.4413 43.8409 93.8848 44.1903C95.4669 44.5731 95.9308 45.0054 95.3623 45.5657C94.8749 46.0453 93.5255 45.989 92.7973 45.4588C92.2475 45.0587 92.2191 45.0571 91.8939 45.411C91.5784 45.7546 91.5898 45.8011 92.0885 46.1873C93.6601 47.4049 96.6323 46.6752 96.6323 45.0716C96.6323 44.4861 95.8302 43.6854 95.0833 43.5247C93.4241 43.1678 92.893 42.9289 92.893 42.5395C92.893 42.3018 93.1209 42.0364 93.4647 41.8742C93.9529 41.644 94.1743 41.6488 94.9698 41.9066C95.8229 42.1835 95.9227 42.1809 96.1481 41.8776ZM102.09 43.2337V42.0392C102.09 40.8979 102.067 40.8447 101.585 40.8447H101.079V43.7314V46.6181H101.585C102.067 46.6181 102.09 46.565 102.09 45.4236V44.2291H103.807H105.526V45.4236C105.526 46.565 105.549 46.6181 106.031 46.6181H106.536V43.7314V40.8447H106.031C105.549 40.8447 105.526 40.8979 105.526 42.0392V43.2337H103.807H102.09ZM117.028 45.8092C118.529 44.3322 117.785 41.7728 115.652 41.0708C113.841 40.4744 111.902 41.1791 111.304 42.6524C110.898 43.6514 110.898 44.2924 111.308 45.1415C112.19 46.9725 115.46 47.3541 117.028 45.8092ZM127.299 42.992C127.383 42.255 127.317 42.0171 126.89 41.5281C126.398 40.9649 126.308 40.9418 124.341 40.8757L122.302 40.8075V43.7127V46.6181H122.797C123.243 46.6181 123.296 46.5263 123.352 45.6724L123.414 44.7268L124.974 44.6273C126.807 44.5102 127.153 44.2671 127.299 42.992ZM112.282 44.7975C111.812 43.9034 111.925 43.2618 112.681 42.517C113.283 41.9247 113.497 41.8401 114.396 41.8401C115.236 41.8401 115.539 41.9419 116.058 42.3985C116.571 42.8501 116.697 43.12 116.715 43.8108C116.735 44.5377 116.64 44.7513 116.08 45.2434C115.565 45.6977 115.231 45.8218 114.527 45.8218C113.377 45.8218 112.644 45.4875 112.282 44.7975ZM123.312 43.8309V42.8355V41.8401H124.586C125.997 41.8401 126.344 42.043 126.344 42.8684C126.344 43.5841 125.855 43.8309 124.438 43.8309H123.312ZM62.4779 44.2291L63.023 43.1342C63.3229 42.5319 63.5932 42.0392 63.6237 42.0392C63.6957 42.0392 64.6968 43.9833 64.6968 44.123C64.6968 44.1813 64.1975 44.2291 63.5874 44.2291H62.4779ZM18.9986 44.2418L21.3827 44.1787C22.6938 44.1441 24.0167 44.0963 24.3225 44.0728L24.8784 44.03V45.5285V47.0272L21.9981 46.9718L19.1179 46.9167L19.0582 45.5793L18.9986 44.2418ZM157.323 30.811H156.09H154.917L151.854 27.0253C150.169 24.9431 148.748 23.2396 148.697 23.2396C148.645 23.2396 147.86 23.7739 146.953 24.4271L145.302 25.6145V28.2128V30.811H144.42H143.537V23.9191V17.0272H144.415H145.293L145.347 20.32L145.4 23.6128L149.945 20.32L154.489 17.0272H155.809H157.128L155.088 18.5073C153.965 19.3216 152.373 20.4821 151.549 21.0864L150.049 22.1854L153.37 26.1585C155.197 28.3437 156.82 30.2595 156.977 30.4157L157.323 30.811Z" fill="#100102"/>
</svg>
