<svg width="194" height="60" viewBox="0 0 194 60" fill="none" xmlns="http://www.w3.org/2000/svg">
<path fill-rule="evenodd" clip-rule="evenodd" d="M7.30542 29.9999V44.5945H97.4058H187.506V29.9999V15.4053H97.4058H7.30542V29.9999ZM17.6166 16.6515C19.1149 17.0035 20.111 17.4941 20.8969 18.2664C22.1837 19.5308 22.2496 19.7924 22.3207 23.9188L22.3855 27.6647H19.5979H16.8105V24.9496C16.8105 21.9493 16.6642 21.392 15.7822 21.0329C15.2788 20.8281 15.1299 20.8487 14.6691 21.1867L14.1372 21.5768L14.0855 29.8654L14.0341 38.1538L14.4695 38.5525C15.0509 39.0847 15.7321 39.0557 16.3244 38.4735C16.7975 38.0088 16.8105 37.9175 16.8105 35.0628V32.1297L19.6324 32.1838L22.4541 32.2377L22.4437 34.6721C22.4292 38.0001 22.3968 38.0553 18.6918 41.0404L15.7214 43.4337L13.9392 43.3685C12.4889 43.3158 11.9693 43.2088 11.1491 42.7939C9.8659 42.1451 9.0403 41.2184 8.51398 39.8355C8.11355 38.7843 8.09751 38.4065 8.09751 30.0711C8.09751 20.3705 8.1397 20.0008 9.41158 18.5408C9.80128 18.0932 10.468 17.5526 10.8932 17.3395C12.6748 16.4464 15.5097 16.1562 17.6166 16.6515ZM183.344 16.7832C185.162 17.195 186.318 18.6369 186.318 20.4928C186.318 24.0112 182.251 25.7421 179.688 23.3151C178.1 21.8127 177.991 19.6241 179.426 18.0195C180.103 17.2607 180.583 16.963 181.466 16.7537C182.295 16.5571 182.349 16.5578 183.344 16.7832ZM36.2916 17.3026C36.3667 17.554 40.1972 33.4602 41.0756 37.1676C41.2208 37.7803 41.3297 37.859 36.4938 33.8676L32.3151 30.4192L28.1105 33.7281C25.798 35.5482 23.8768 37.008 23.8413 36.9726C23.7884 36.9195 25.2702 30.2958 27.9154 18.762L28.3283 16.962H32.2593C35.8322 16.962 36.1993 16.993 36.2916 17.3026ZM53.7971 19.5404L53.7418 22.1188L51.8111 22.1744L49.8803 22.2301V32.8285V43.4269H49.0104C48.2015 43.4269 47.9793 43.2951 45.8421 41.55L43.5436 39.6732V30.9516V22.2301L41.6129 22.1744L39.6822 22.1188L39.6269 19.5404L39.5717 16.962H46.712H53.8523L53.7971 19.5404ZM68.4945 19.4918V22.0215H64.9301H61.3657V24.6485V27.2755H64.435H67.5043V29.9026V32.5296H64.435H61.3657V35.4485V38.3674H65.0291H68.6925V40.8972V43.4269H62.0587H55.425V30.1945V16.962H61.9598H68.4945V19.4918ZM83.6326 17.6431C85.7602 18.7255 86.6417 20.7502 86.4696 24.1619C86.3292 26.94 85.4355 28.6169 83.7536 29.2581C83.2487 29.4505 83.2495 29.4521 84.0994 29.8492C85.0385 30.288 85.8178 31.1669 86.1571 32.169C86.2805 32.5327 86.4339 35.0181 86.5037 37.7837C86.5735 40.5128 86.7026 42.899 86.7918 43.0864C86.9412 43.4026 86.7415 43.4269 83.9849 43.4269C81.0735 43.4269 81.0139 43.4183 80.8967 42.9891C80.8311 42.7482 80.7759 40.5809 80.7743 38.1728C80.7717 34.3967 80.7236 33.7011 80.425 33.1161C79.9962 32.2758 79.3651 31.9525 78.1481 31.9487L77.2075 31.9458V37.6864V43.4269H74.3362H71.4649V30.1807V16.9346L76.9746 16.9969L82.4849 17.0593L83.6326 17.6431ZM101.408 17.4063C103.745 18.4654 104.73 20.7004 104.73 24.9404C104.73 29.3031 103.65 31.6366 101.221 32.53C100.371 32.8423 99.677 32.9188 97.6956 32.9188H95.2272V38.1728V43.4269H92.2571H89.2871V30.181V16.9354L94.9804 17.004C99.8369 17.0628 100.781 17.1218 101.408 17.4063ZM112.654 30.1945V43.4269H109.683H106.713V30.1945V16.962H109.683H112.654V30.1945ZM121.763 27.6599V38.3575L124.882 38.4112L128 38.4647L128.056 40.9458L128.111 43.4269H121.967H115.822V30.1945V16.962H118.792H121.763V27.6599ZM135.427 27.6647V38.3674H138.496H141.565V40.8972V43.4269H135.526H129.486V30.1945V16.962H132.456H135.427V27.6647ZM154.929 17.3999C154.986 17.6408 155.922 22.9166 157.008 29.1242C158.095 35.3318 159.107 41.0892 159.259 41.9188L159.533 43.4269H156.593C153.248 43.4269 153.586 43.6307 153.355 41.4809C153.292 40.8923 153.187 40.0386 153.122 39.5837L153.005 38.7566H150.958H148.91L148.804 39.3891C148.664 40.2308 148.298 43.0184 148.298 43.2463C148.298 43.3495 147.012 43.4269 145.304 43.4269C142.511 43.4269 142.317 43.4034 142.405 43.0741C142.456 42.8801 143.51 36.9255 144.745 29.8417L146.991 16.962H150.908C154.807 16.962 154.825 16.964 154.929 17.3999ZM173.572 17.5114C175.69 18.4532 176.461 19.8915 176.578 23.118C176.7 26.4826 175.892 28.417 174.051 29.173L173.363 29.4556L174.047 29.7381C174.941 30.1077 175.565 30.6947 176.085 31.6539C176.473 32.3699 176.516 32.8384 176.631 37.4918C176.7 40.2745 176.824 42.7482 176.907 42.9891L177.057 43.4269H174.158H171.258L171.066 42.9278C170.959 42.6532 170.873 40.477 170.873 38.0919C170.873 35.4199 170.788 33.5177 170.653 33.1366C170.373 32.3482 169.581 31.9458 168.308 31.9458H167.308V37.6864V43.4269H164.436H161.565V30.1807V16.9346L167.061 16.9969C172.315 17.0566 172.6 17.0792 173.572 17.5114ZM181.548 17.5287C180.235 17.9417 179.189 19.2865 179.189 20.562C179.189 22.0058 180.519 23.4483 182.06 23.6773C183.075 23.8279 184.444 23.1739 185.079 22.2359C185.611 21.4492 185.682 19.9638 185.229 19.103C184.586 17.8807 182.825 17.1274 181.548 17.5287ZM183.704 18.5577C184.039 18.8867 184 19.9806 183.643 20.2719C183.384 20.4824 183.382 20.5459 183.625 20.7337C183.781 20.8534 183.939 21.3671 183.976 21.8755C184.042 22.7708 184.026 22.7999 183.498 22.7999C182.993 22.7999 182.952 22.7407 182.952 22.0283C182.952 21.4648 182.849 21.2024 182.569 21.0553C181.987 20.7494 181.961 20.7814 181.961 21.8269C181.961 22.7351 181.928 22.7999 181.466 22.7999H180.971V20.562V18.3242H182.219C182.926 18.3242 183.569 18.4255 183.704 18.5577ZM181.961 19.6864C181.961 20.1335 182.051 20.2701 182.345 20.2701C182.741 20.2701 183.07 19.6427 182.854 19.2989C182.786 19.1909 182.557 19.1026 182.346 19.1026C182.051 19.1026 181.961 19.2382 181.961 19.6864ZM167.44 21.5675C167.368 21.6387 167.308 22.996 167.308 24.5837V27.4701H168.41C169.016 27.4701 169.692 27.3756 169.912 27.26C170.515 26.9428 170.873 25.8824 170.872 24.4115C170.872 22.852 170.429 21.8074 169.684 21.6085C169.021 21.4317 167.605 21.4056 167.44 21.5675ZM77.2075 24.5512V27.4701H78.4046C79.3955 27.4701 79.6816 27.3917 80.0648 27.0152C80.9234 26.1714 80.9731 23.1564 80.1454 22.1225C79.7988 21.6895 79.6046 21.6323 78.4802 21.6323H77.2075V24.5512ZM95.2272 24.9404V28.2485H96.3936C98.0633 28.2485 98.4497 27.8928 98.5918 26.2277C98.7573 24.2866 98.556 22.5181 98.1145 22.0386C97.8101 21.708 97.5065 21.6323 96.4837 21.6323H95.2272V24.9404ZM32.1989 22.1188C31.9347 22.9625 30.8343 28.8621 30.9246 28.9506C30.9772 29.0024 31.6347 29.0189 32.3856 28.9872L33.7506 28.9296L33.0355 25.3296C32.6133 23.2038 32.2708 21.889 32.1989 22.1188ZM150.887 22.2367C150.723 23.4775 149.486 33.63 149.486 33.739C149.486 33.8231 150.158 33.8918 150.98 33.8918H152.474L152.369 33.2593C152.31 32.9116 151.99 30.3501 151.658 27.5674C151.12 23.0758 150.941 21.8355 150.887 22.2367Z" fill="#100102"/>
</svg>
