<svg width="179" height="60" viewBox="0 0 179 60" fill="none" xmlns="http://www.w3.org/2000/svg">
<path d="M7.17676 48.2433C12.3887 39.0352 33.3524 28.3311 47.0193 48.2433C41.1896 43.6777 25.0596 37.2859 7.17676 48.2433Z" fill="#100102"/>
<path d="M10.2681 27.8184L9.70337 33.5104L13.0916 29.4218L16.3184 33.5104V27.8184L21.3201 20.3628L13.0916 25.734L5.6698 20.3628L10.2681 27.8184Z" fill="#100102"/>
<path d="M15.6325 20.4418C15.6325 21.6151 14.6754 22.5663 13.4947 22.5663C12.3141 22.5663 11.3569 21.6151 11.3569 20.4418C11.3569 19.2685 12.3141 18.3174 13.4947 18.3174C14.6754 18.3174 15.6325 19.2685 15.6325 20.4418Z" fill="#100102"/>
<path d="M37.964 27.8184L37.3993 33.5104L40.7875 29.4218L44.0144 33.5104V27.8184L49.016 20.3628L40.7875 25.734L33.3657 20.3628L37.964 27.8184Z" fill="#100102"/>
<path d="M43.3283 20.4418C43.3283 21.6151 42.3712 22.5663 41.1905 22.5663C40.0099 22.5663 39.0527 21.6151 39.0527 20.4418C39.0527 19.2685 40.0099 18.3174 41.1905 18.3174C42.3712 18.3174 43.3283 19.2685 43.3283 20.4418Z" fill="#100102"/>
<path d="M23.3903 26.7199L22.5795 34.8919L27.4441 29.0218L32.0769 34.8919V26.7199L39.2578 16.0156L27.4441 23.7273L16.7885 16.0156L23.3903 26.7199Z" fill="#100102"/>
<path d="M31.0937 14.8069C31.0937 16.4915 29.7195 17.8571 28.0244 17.8571C26.3294 17.8571 24.9552 16.4915 24.9552 14.8069C24.9552 13.1224 26.3294 11.7568 28.0244 11.7568C29.7195 11.7568 31.0937 13.1224 31.0937 14.8069Z" fill="#100102"/>
<path d="M73.1702 30.4768L73.6446 26.2043H73.4667L72.0435 29.4455L67.2402 37.1359H65.8762L60.7764 29.416L59.3828 26.2337H59.2049L59.8276 30.4473V40.8191H55.6765V20.1934H59.6497L65.639 29.7107L66.7658 31.9795H66.914L67.8924 29.6517L73.615 20.1934H77.5584V40.8191H73.1702V30.4768Z" fill="#100102"/>
<path d="M82.7224 30.5063H90.8171V34.1601H82.7224V30.5063Z" fill="#100102"/>
<path d="M111.147 25.0554C111.147 25.5661 111.068 26.0768 110.91 26.5875C110.771 27.0787 110.544 27.5402 110.228 27.9724C109.911 28.4046 109.496 28.7778 108.982 29.0921C108.468 29.4064 107.846 29.6323 107.114 29.7698V29.9466C107.766 30.0055 108.379 30.1528 108.953 30.3886C109.526 30.6243 110.02 30.9582 110.435 31.3904C110.87 31.8029 111.206 32.3137 111.443 32.9226C111.7 33.512 111.829 34.2093 111.829 35.0146C111.829 36.095 111.571 37.0183 111.058 37.7844C110.564 38.5505 109.911 39.1791 109.101 39.6701C108.29 40.1612 107.361 40.5247 106.314 40.7604C105.266 40.9961 104.198 41.114 103.111 41.114C102.756 41.114 102.281 41.114 101.688 41.114C101.115 41.114 100.492 41.0943 99.8205 41.055C99.1677 41.0354 98.4962 40.9961 97.8037 40.9372C97.1323 40.8783 96.5191 40.7899 95.9659 40.672V20.3409C96.3806 20.282 96.8456 20.2231 97.3591 20.1641C97.8928 20.1052 98.4566 20.0561 99.0494 20.0168C99.6618 19.9775 100.285 19.9481 100.917 19.9284C101.55 19.9087 102.182 19.8989 102.815 19.8989C103.843 19.8989 104.851 19.9775 105.839 20.1346C106.827 20.2721 107.717 20.5374 108.508 20.9302C109.299 21.3035 109.931 21.824 110.406 22.4919C110.9 23.1598 111.147 24.0143 111.147 25.0554ZM103.052 37.5782C103.605 37.5782 104.129 37.529 104.624 37.4308C105.138 37.3326 105.583 37.1754 105.958 36.9594C106.354 36.7237 106.66 36.4388 106.877 36.1048C107.114 35.7513 107.233 35.3191 107.233 34.8084C107.233 34.1798 107.095 33.6789 106.818 33.3057C106.541 32.9325 106.175 32.6574 105.721 32.4806C105.286 32.2842 104.792 32.1663 104.238 32.1271C103.704 32.0681 103.161 32.0386 102.608 32.0386H100.176V37.4013C100.294 37.4407 100.463 37.4701 100.68 37.4897C100.917 37.5094 101.174 37.529 101.451 37.5487C101.728 37.5487 102.004 37.5585 102.281 37.5782C102.578 37.5782 102.834 37.5782 103.052 37.5782ZM101.658 28.7975C101.955 28.7975 102.301 28.7975 102.697 28.7975C103.111 28.7778 103.457 28.7484 103.734 28.709C104.564 28.4537 105.266 28.1099 105.839 27.6778C106.413 27.226 106.699 26.6171 106.699 25.8509C106.699 25.3402 106.59 24.9277 106.373 24.6134C106.155 24.2991 105.859 24.0535 105.484 23.8768C105.127 23.6999 104.722 23.5821 104.268 23.5232C103.814 23.4642 103.349 23.4348 102.874 23.4348C102.301 23.4348 101.777 23.4446 101.303 23.4642C100.828 23.4839 100.453 23.5134 100.176 23.5526V28.7975H101.658Z" fill="#100102"/>
<path d="M129.637 29.4455L129.874 26.8231H129.726L128.214 29.475L119.705 40.8191H116.443V20.1934H120.831V31.3018L120.535 34.0421H120.712L122.314 31.3018L130.734 20.1934H134.025V40.8191H129.637V29.4455Z" fill="#100102"/>
<path d="M155.335 24.0239H148.753V40.8191H144.364V24.0239H137.782V20.1934H155.335V24.0239Z" fill="#100102"/>
<path d="M167.706 36.4291H160.708L159.018 40.8194H154.63L162.754 20.0464H165.986L174.14 40.8194H169.485L167.706 36.4291ZM161.924 32.9817H166.668L165.067 28.6797L164.356 25.4091H164.207L163.495 28.7092L161.924 32.9817Z" fill="#100102"/>
</svg>
