<svg width="144" height="60" viewBox="0 0 144 60" fill="none" xmlns="http://www.w3.org/2000/svg">
<path d="M10.7092 13.6161C9.70646 13.6896 8.55845 13.9465 7.7189 14.2861C5.138 15.3292 3.6755 17.3542 3.44114 20.2021C3.40554 20.6457 3.42928 21.6093 3.48564 22.0528C3.75856 24.1757 4.74049 25.7939 6.42252 26.886C7.02177 27.2776 7.88503 27.6507 8.6682 27.8648C9.0657 27.9718 9.19327 27.9993 9.62641 28.0789C10.6825 28.2685 12.0827 28.2869 13.1862 28.1218C16.5474 27.62 18.7723 25.7542 19.4575 22.8634C19.505 22.6707 19.5525 22.4382 19.5643 22.3495L19.5851 22.1904H17.5797C15.6722 22.1904 15.5743 22.1935 15.5743 22.2455C15.5743 22.2761 15.5328 22.4382 15.4823 22.6034C15.3666 22.9949 15.0581 23.6435 14.8564 23.9157C14.3284 24.6346 13.6253 25.0812 12.7087 25.277C12.3112 25.3626 12.2696 25.3657 11.7919 25.3901C9.92897 25.4788 8.5377 24.7417 7.83459 23.2978C7.35402 22.3098 7.22349 20.6212 7.53498 19.3976C7.94436 17.7825 8.95888 16.8189 10.5757 16.513C10.994 16.4334 12.1065 16.4334 12.5336 16.513C13.7944 16.7485 14.6636 17.4062 15.2124 18.538C15.334 18.7888 15.5239 19.3303 15.5595 19.5383C15.5743 19.6178 15.598 19.6576 15.6455 19.6668C15.6782 19.676 16.577 19.679 17.6361 19.676L19.5643 19.6668L19.5584 19.5138C19.5495 19.3119 19.3774 18.6145 19.241 18.2291C18.6714 16.6353 17.5678 15.3903 16.0104 14.5828C15.0552 14.0903 13.8952 13.7691 12.593 13.6406C12.2281 13.6039 11.0771 13.5886 10.7092 13.6161Z" fill="#100102"/>
<path d="M21.3295 18.1584C21.3295 20.7861 21.3413 22.5848 21.3592 22.8479C21.4808 24.5364 21.9287 25.7172 22.7801 26.5982C23.6167 27.4578 24.7499 27.9318 26.4616 28.1368C27.0015 28.201 27.6482 28.2316 28.5234 28.2316C29.4875 28.2316 29.7872 28.2194 30.3567 28.1673C31.8548 28.0236 33.0533 27.626 33.8513 27.0081C34.1628 26.7695 34.6167 26.2831 34.8066 25.9895C35.3049 25.2186 35.6016 24.2703 35.7173 23.0804C35.7351 22.8816 35.747 21.1349 35.747 18.3328V13.9004H31.8607V18.2502C31.8578 20.6454 31.8519 22.6582 31.8429 22.7255C31.7599 23.4383 31.5997 23.9368 31.3297 24.3437C31.1725 24.5793 30.8492 24.8607 30.5643 25.0137C30.0423 25.292 29.5172 25.3868 28.5234 25.3837C27.5534 25.3807 27.0905 25.2981 26.5625 25.032C25.7319 24.6129 25.3521 23.891 25.2335 22.5114C25.2245 22.4257 25.2187 20.4557 25.2187 18.1279L25.2157 13.9004H21.3295V18.1584Z" fill="#100102"/>
<path d="M38.0906 27.9718L40.0277 27.9656L41.9619 27.9564L41.9708 25.6684L41.9768 23.3834L44.1483 23.3895L46.3168 23.3987L46.48 23.674C46.5719 23.8239 47.1267 24.7477 47.717 25.7235C48.3073 26.6993 48.8532 27.6047 48.9304 27.7331L49.0727 27.9718H51.1938C52.9856 27.9718 53.3119 27.9656 53.3001 27.9289C53.2911 27.9075 52.7898 27.097 52.1876 26.1334C50.2504 23.0285 50.1614 22.8847 50.1555 22.8572C50.1526 22.845 50.2504 22.7869 50.3751 22.7318C51.615 22.1689 52.3952 21.2513 52.7008 19.9909C52.8788 19.2568 52.9026 18.3268 52.7601 17.6171C52.4932 16.2712 51.7249 15.2587 50.4848 14.6194C49.8944 14.3135 49.2686 14.1238 48.3548 13.9709C48.073 13.9219 47.5865 13.9189 43.0684 13.9097L38.0906 13.8975V27.9718ZM47.2809 16.779C47.8001 16.8371 48.159 16.9992 48.4468 17.2991C48.7405 17.6049 48.8828 17.9965 48.9037 18.5501C48.9333 19.3639 48.61 20.0063 48.0226 20.2999C47.5628 20.5324 47.7348 20.5202 44.7 20.5324L41.9768 20.5416V16.7454H44.4834C46.0706 16.7454 47.1 16.7576 47.2809 16.779Z" fill="#100102"/>
<path d="M54.8809 27.9716L67.5925 27.9563L67.6014 26.5248L67.6074 25.0962H58.7671V13.9004H54.8809V27.9716Z" fill="#100102"/>
<path d="M99.7359 12.1775C99.701 12.1836 99.6326 12.2295 99.5879 12.2723C99.5431 12.3182 99.1046 12.933 98.6149 13.6366C96.9772 15.995 97.1317 15.8023 96.9064 15.7993C96.799 15.7993 96.5175 15.6769 95.3517 15.1232C93.0404 14.022 93.0794 14.0404 92.9549 14.0434C92.7556 14.0465 92.5693 14.2423 92.5717 14.4411C92.5717 14.5053 92.8093 15.4169 93.0973 16.4692C93.3845 17.5215 93.631 18.4331 93.6456 18.4973C93.6782 18.6472 93.6367 18.794 93.5358 18.8919C93.4886 18.9347 92.6376 19.3905 91.6402 19.9075C90.2637 20.6171 89.813 20.8618 89.7715 20.9261C89.7332 20.9843 89.7153 21.0668 89.7153 21.1862C89.7153 21.3422 89.7267 21.3727 89.804 21.4523C89.8691 21.5196 90.3678 21.7489 91.7321 22.3424C92.7442 22.7829 93.6017 23.1622 93.6399 23.1867C93.7262 23.2448 93.8238 23.407 93.8238 23.4987C93.8238 23.5599 93.6107 24.6244 93.1388 26.9431C93.0436 27.4081 92.9932 27.7078 93.0054 27.7721C93.0314 27.9189 93.1982 28.0657 93.3552 28.0841C93.5244 28.1055 93.2307 28.2615 96.6306 26.3497C96.8909 26.2028 97.1496 26.0713 97.2025 26.0591C97.4132 26.0132 97.4669 26.0682 98.6596 27.561C100.143 29.4208 100.131 29.4087 100.255 29.4606C100.389 29.5188 100.528 29.4912 100.647 29.3903C100.768 29.2832 100.781 29.2526 100.837 28.9192C101.249 26.4537 101.505 25.0527 101.558 24.9792C101.68 24.8049 101.723 24.7987 102.872 24.7773C103.451 24.7682 104.358 24.7498 104.889 24.7407C105.42 24.7314 105.895 24.71 105.948 24.6948C106.15 24.6306 106.269 24.3675 106.192 24.1625C106.168 24.1074 105.563 23.3763 104.844 22.5382C104.127 21.7031 103.51 20.9689 103.474 20.9077C103.4 20.7885 103.385 20.6325 103.438 20.5346C103.456 20.5009 104.029 19.7239 104.711 18.8063C105.581 17.6408 105.96 17.1085 105.975 17.0351C106.004 16.8699 105.898 16.665 105.747 16.5946C105.678 16.561 105.577 16.5396 105.521 16.5457C105.464 16.5518 105.183 16.5641 104.895 16.5762C104.608 16.5855 104.337 16.6007 104.296 16.6069C104.254 16.6129 103.997 16.6283 103.718 16.6405C103.442 16.6497 103.181 16.665 103.139 16.668C102.997 16.6864 101.934 16.7292 101.68 16.7292C101.427 16.7292 101.418 16.7261 101.318 16.6252C101.237 16.5456 101.204 16.4753 101.169 16.3193C101.145 16.2092 100.923 15.2792 100.676 14.2515C100.199 12.2631 100.208 12.2876 100.003 12.1989C99.9084 12.1561 99.8604 12.153 99.7359 12.1775Z" fill="#100102"/>
<path d="M115.154 13.5846C114.883 13.6029 114.239 13.6916 113.937 13.7497C111.715 14.1842 110.027 15.2334 109.001 16.8179C108.422 17.708 108.054 18.8521 107.947 20.0788C107.912 20.4795 107.927 21.6266 107.974 21.9753C108.179 23.5813 108.77 24.8783 109.754 25.8908C110.965 27.1389 112.658 27.8914 114.827 28.1422C115.447 28.2126 116.633 28.2126 117.253 28.1422C120.967 27.7232 123.365 25.7409 124.021 22.5504C124.056 22.3852 124.082 22.2323 124.082 22.2048C124.082 22.165 123.851 22.1589 122.083 22.1589H120.084L120.036 22.3638C119.959 22.6759 119.79 23.1225 119.644 23.4039C119.004 24.6244 117.921 25.2637 116.34 25.3555C115.942 25.3799 115.32 25.331 114.913 25.2484C112.958 24.8386 111.86 23.2693 111.86 20.8894C111.86 18.7053 112.774 17.1941 114.426 16.6405C114.925 16.4753 115.42 16.4019 116.073 16.405C116.325 16.405 116.586 16.4141 116.651 16.4233C117.066 16.4844 117.215 16.512 117.458 16.5793C118.505 16.8668 119.273 17.5337 119.736 18.5615C119.855 18.8215 120.015 19.2957 120.063 19.519L120.084 19.6199H122.083C123.851 19.6199 124.082 19.6138 124.082 19.574C124.082 19.4945 123.964 18.947 123.884 18.6564C123.457 17.1024 122.498 15.7962 121.14 14.9122C120.054 14.2086 118.562 13.7253 117.066 13.5999C116.764 13.5723 115.455 13.5632 115.154 13.5846Z" fill="#100102"/>
<path d="M73.7394 27.9403L75.6765 27.9342L77.6107 27.9251L77.6196 25.637L77.6255 23.3519L79.7971 23.358L81.9684 23.3672L82.6535 24.499C83.031 25.12 83.6354 26.1264 84.0007 26.732C84.3652 27.3377 84.6857 27.8578 84.7093 27.8883C84.7541 27.9403 84.8761 27.9434 86.8571 27.9403C88.5396 27.9373 88.961 27.9282 88.952 27.8975C88.9431 27.8639 88.5274 27.1909 87.0117 24.7651C86.8156 24.4501 86.4601 23.8781 86.2193 23.4957L85.7865 22.7982L85.8817 22.7646C86.0566 22.7034 86.644 22.3791 86.8335 22.2384C87.9131 21.4461 88.4387 20.3724 88.5038 18.8399C88.5428 17.9161 88.3468 16.9953 87.9579 16.301C87.368 15.2425 86.3649 14.5115 85.0006 14.1414C84.6264 14.0434 84.0959 13.9425 83.7664 13.915C83.6444 13.9027 83.511 13.8874 83.4695 13.8752C83.428 13.866 81.224 13.8538 78.5689 13.8477L73.7394 13.8354V27.9403ZM83.2474 16.7843C83.7363 16.9066 84.1431 17.2064 84.3392 17.5919C84.5165 17.9437 84.5491 18.1088 84.5491 18.6105C84.5491 19.0265 84.5434 19.0693 84.4604 19.314C84.2554 19.9105 83.9031 20.2409 83.2677 20.4244C83.0423 20.4887 83.0066 20.4887 80.334 20.501L77.6255 20.5101V16.7108L80.334 16.7231C82.7519 16.7323 83.0602 16.7384 83.2474 16.7843Z" fill="#100102"/>
<path d="M125.833 27.9372L127.776 27.9402H129.718L129.725 25.9764L129.734 24.0125L130.994 22.8562C132.255 21.703 132.255 21.703 132.306 21.7703C132.335 21.807 132.792 22.4769 133.326 23.26C133.86 24.0432 134.545 25.0465 134.848 25.4931C135.153 25.9397 135.652 26.6708 135.96 27.1204L136.515 27.9402H138.844C140.686 27.9402 141.169 27.9311 141.151 27.9005C141.119 27.8485 140.618 27.1449 138.826 24.6518C137.957 23.4405 136.972 22.0671 136.634 21.5991C136.299 21.128 135.806 20.4428 135.539 20.0695C135.272 19.6994 135.035 19.366 135.011 19.3262C134.967 19.2589 135.023 19.2069 137.734 16.7414C139.256 15.3556 140.585 14.1505 140.686 14.0587C140.787 13.9669 140.864 13.8782 140.855 13.8659C140.846 13.8506 139.733 13.8384 138.381 13.8384H135.922L132.89 16.6894C131.226 18.2586 129.828 19.5679 129.79 19.5985L129.718 19.6566V13.8384H127.776L125.833 13.8415V27.9372Z" fill="#100102"/>
<path d="M9.14493 33.2281C9.12711 33.2495 8.83041 33.9011 8.48334 34.675C8.13628 35.4489 7.76546 36.2748 7.66162 36.5103C7.55483 36.7459 7.38871 37.116 7.29081 37.3362C7.03865 37.9022 6.99416 38 6.5551 38.9728C6.33855 39.4531 6.04486 40.1046 5.90247 40.4258C5.76007 40.744 5.01547 42.408 4.24416 44.1211C3.47583 45.831 2.84692 47.2382 2.84692 47.2473C2.84692 47.2565 3.76359 47.2596 4.88494 47.2565L6.92296 47.2473L7.44507 45.9718L7.96422 44.6931L14.9327 44.7083L15.9531 47.2473L17.9882 47.2565C19.1066 47.2596 20.0232 47.2534 20.0232 47.2442C20.0232 47.2259 19.7859 46.6906 19.4804 46.0084C19.3736 45.7729 18.1721 43.0932 17.9793 42.6619C17.92 42.5273 16.944 40.3463 15.8107 37.8135L13.7489 33.2067L11.4618 33.1974C9.64332 33.1913 9.1686 33.1974 9.14493 33.2281ZM11.969 37.4739C12.242 38.1377 12.7492 39.3796 13.0993 40.2331C13.4494 41.0865 13.7341 41.7993 13.7341 41.8176C13.7341 41.8391 12.9629 41.8482 11.4321 41.8482C9.60174 41.8482 9.13305 41.8391 9.14493 41.8085C9.17755 41.732 10.5955 38.2754 11.0079 37.269C11.2423 36.6939 11.444 36.232 11.4558 36.2442C11.4677 36.2565 11.6991 36.8101 11.969 37.4739Z" fill="#100102"/>
<path d="M21.2311 33.2128C21.2192 33.222 21.2103 36.388 21.2103 40.2485V47.2626L23.1475 47.2565L25.0816 47.2474L25.1113 37.9604L28.063 41.9584C29.6857 44.1548 31.1157 46.088 31.2373 46.2532C31.3589 46.4184 31.5784 46.7121 31.7208 46.9078L31.9819 47.2626H36.1617L36.1469 33.2067H32.2607V37.8655C32.2607 40.4259 32.2548 42.5212 32.2459 42.5212C32.234 42.5182 30.0714 39.5969 26.3336 34.5282C25.847 33.8675 25.4229 33.2984 25.3932 33.2618L25.3368 33.1945L23.2929 33.1914C22.1685 33.1914 21.24 33.2006 21.2311 33.2128Z" fill="#100102"/>
<path d="M38.476 47.2655L42.4897 47.2533C46.7526 47.2441 46.6814 47.2441 47.6723 47.0912C50.6684 46.6293 52.5048 45.2558 53.2494 42.9279C53.5134 42.099 53.6173 41.3678 53.6202 40.3339C53.6202 39.2785 53.5668 38.7432 53.3829 38.0091C53.2464 37.4677 53.1604 37.226 52.9201 36.7243C52.0034 34.8064 50.1197 33.6745 47.2718 33.3289C46.358 33.2187 46.1652 33.2157 42.3265 33.2004L38.476 33.1851V47.2655ZM46.2097 36.1401C47.2065 36.2747 47.8739 36.5133 48.405 36.9201C49.3217 37.6267 49.7429 38.8778 49.6539 40.6398C49.6183 41.3923 49.4937 41.9521 49.2475 42.4752C48.6779 43.6804 47.5833 44.2585 45.6253 44.384C45.4059 44.3962 44.5871 44.4115 43.8098 44.4145L42.3918 44.4207V36.0605L44.1213 36.0758C45.4711 36.0881 45.9279 36.1002 46.2097 36.1401Z" fill="#100102"/>
<path d="M83.7846 33.2278C81.6482 33.3654 79.8122 33.9986 78.4298 35.0784C78.1123 35.3262 77.5665 35.8769 77.3173 36.198C76.8663 36.7823 76.5282 37.4339 76.2968 38.1558C76.0506 38.9358 75.9468 39.6243 75.9468 40.5267C75.9468 41.1813 75.9823 41.5759 76.0892 42.1327C76.6557 45.0325 78.8777 47.0086 82.3161 47.6663C83.0784 47.8131 83.3925 47.8376 84.4664 47.8376C85.3686 47.8376 85.5492 47.8284 85.9763 47.7672C87.2496 47.5867 88.2877 47.2717 89.2428 46.7792C91.367 45.681 92.5946 43.9282 92.8973 41.5667C92.9388 41.2302 92.9477 40.1259 92.9127 39.716C92.8412 38.884 92.6012 38.0028 92.2538 37.2931C91.1506 35.0234 88.7774 33.5917 85.5793 33.2645C85.1489 33.2216 84.2142 33.2033 83.7846 33.2278ZM85.2677 36.1031C86.3294 36.25 87.1397 36.6171 87.7597 37.2289C88.1811 37.6418 88.4504 38.0487 88.6676 38.5932C89.0858 39.6547 89.1216 41.1048 88.7506 42.2519C88.2608 43.7692 87.0502 44.7266 85.3239 44.9622C84.6624 45.0539 83.6447 45.0111 83.0573 44.8704C81.4172 44.4788 80.3461 43.3684 80.0169 41.7196C79.919 41.2241 79.8833 40.6123 79.9219 40.1076C80.0228 38.8779 80.3669 38.0304 81.067 37.3115C81.7971 36.5559 82.7612 36.1521 84.0368 36.0665C84.289 36.0481 85.0334 36.0726 85.2677 36.1031Z" fill="#100102"/>
<path d="M59.9338 47.578H63.8201L63.826 45.296L63.8349 43.0171H65.9975C67.187 43.0201 68.1631 43.0231 68.169 43.0293C68.1719 43.0323 68.3974 43.4055 68.6703 43.8613C68.9433 44.314 69.4505 45.1553 69.7976 45.7273C70.1447 46.2993 70.5363 46.9509 70.6698 47.1711L70.9131 47.578H73.0371C74.7221 47.578 75.1552 47.5688 75.1433 47.5382C75.1374 47.5198 74.9653 47.2384 74.7666 46.9203C73.5651 45.0054 72.0077 42.497 72.0077 42.4756C72.0077 42.4634 72.1115 42.4052 72.2391 42.3472C72.8027 42.0901 73.2328 41.7843 73.6186 41.3713C74.1555 40.7963 74.464 40.1478 74.6242 39.2607C74.6746 38.9761 74.6865 38.7833 74.6894 38.2785C74.6924 37.5627 74.642 37.2109 74.4521 36.6511C74.2326 36.0026 73.9834 35.5958 73.4939 35.0971C72.6692 34.2528 71.6843 33.8154 70.0794 33.5769C69.7768 33.531 69.1925 33.5248 64.8376 33.5157L59.9338 33.5034V47.578ZM69.3912 36.4401C70.0824 36.5899 70.5214 36.9999 70.6935 37.6667C70.7647 37.942 70.7647 38.5846 70.6906 38.8569C70.4947 39.591 69.9133 40.0712 69.148 40.1324C69.0323 40.1416 67.7863 40.1508 66.3771 40.1538L63.8201 40.1599V36.382H66.4692C68.961 36.382 69.1302 36.385 69.3912 36.4401Z" fill="#100102"/>
<path d="M94.702 47.5778H107.429L107.423 46.1462L107.414 44.7177L98.603 44.7024L98.5884 33.5063H94.702V47.5778Z" fill="#100102"/>
<path d="M109.356 47.5778H122.082V44.7024L113.242 44.7177V33.5063H109.356V47.5778Z" fill="#100102"/>
</svg>
