<svg width="193" height="50" viewBox="0 0 193 50" fill="none" xmlns="http://www.w3.org/2000/svg">
<path d="M19.0709 13.4253V31.6879H16.9506L7.09138 17.3489H6.91471V31.6879H4.72375V13.4253H6.84406L16.7386 27.8H16.9153V13.4253H19.0709Z" fill="#100102"/>
<path d="M28.8617 31.9732C27.5542 31.9732 26.4264 31.6819 25.4781 31.0993C24.5358 30.5107 23.8084 29.6903 23.296 28.6381C22.7895 27.5799 22.5363 26.3493 22.5363 24.9464C22.5363 23.5434 22.7895 22.3068 23.296 21.2368C23.8084 20.1607 24.5211 19.3225 25.434 18.7221C26.3527 18.1157 27.4246 17.8125 28.6497 17.8125C29.3564 17.8125 30.0543 17.9314 30.7435 18.1692C31.4325 18.407 32.0598 18.7934 32.6252 19.3284C33.1906 19.8576 33.6412 20.5591 33.9768 21.433C34.3126 22.3068 34.4804 23.3828 34.4804 24.661V25.5528H24.0204V23.7336H32.3602C32.3602 22.9608 32.207 22.2711 31.9007 21.6648C31.6004 21.0584 31.1704 20.5799 30.6109 20.2291C30.0573 19.8784 29.4035 19.703 28.6497 19.703C27.8193 19.703 27.1007 19.9111 26.4941 20.3272C25.8933 20.7374 25.431 21.2724 25.1071 21.9323C24.7832 22.5922 24.6212 23.2997 24.6212 24.0547V25.2674C24.6212 26.3018 24.7979 27.1786 25.1513 27.898C25.5105 28.6114 26.0082 29.1553 26.6443 29.5299C27.2803 29.8984 28.0195 30.0827 28.8617 30.0827C29.4094 30.0827 29.9042 30.0054 30.3459 29.8509C30.7935 29.6903 31.1793 29.4526 31.5032 29.1375C31.8271 28.8165 32.0775 28.4182 32.2541 27.9426L34.2684 28.5132C34.0564 29.2029 33.7 29.8093 33.1994 30.3324C32.6988 30.8496 32.0804 31.2539 31.3442 31.5451C30.608 31.8305 29.7805 31.9732 28.8617 31.9732Z" fill="#100102"/>
<path d="M46.2037 26.0881V17.9912H48.2886V31.6882H46.2037V29.3697H46.0624C45.7443 30.0652 45.2496 30.6568 44.5782 31.1442C43.9067 31.6257 43.0587 31.8665 42.0339 31.8665C41.1858 31.8665 40.4319 31.6793 39.7722 31.3047C39.1126 30.9243 38.5943 30.3535 38.2173 29.5926C37.8405 28.8257 37.652 27.8597 37.652 26.6945V17.9912H39.7369V26.5518C39.7369 27.5505 40.0137 28.3472 40.5674 28.9416C41.1269 29.5361 41.8395 29.8334 42.7053 29.8334C43.2235 29.8334 43.7507 29.6996 44.2867 29.4321C44.8285 29.1646 45.282 28.7544 45.6472 28.2015C46.0182 27.6486 46.2037 26.9442 46.2037 26.0881Z" fill="#100102"/>
<path d="M52.3901 31.6879V13.4253H54.581V21.5579H64.2283V13.4253H66.4192V31.6879H64.2283V23.5197H54.581V31.6879H52.3901Z" fill="#100102"/>
<path d="M74.5162 32.0089C73.6558 32.0089 72.8757 31.8453 72.1746 31.5184C71.4741 31.1855 70.9174 30.707 70.505 30.0827C70.0927 29.4526 69.8869 28.6916 69.8869 27.7999C69.8869 27.0152 70.0401 26.3791 70.3458 25.8916C70.6521 25.3982 71.0618 25.0118 71.574 24.7324C72.0862 24.4529 72.6517 24.2449 73.2705 24.1081C73.8947 23.9655 74.5216 23.8525 75.1519 23.7693C75.9765 23.6623 76.6453 23.582 77.1575 23.5285C77.6757 23.4691 78.053 23.3709 78.2885 23.2343C78.5301 23.0975 78.6502 22.8597 78.6502 22.5209V22.4495C78.6502 21.5697 78.412 20.886 77.9349 20.3985C77.4638 19.9111 76.7478 19.6673 75.7882 19.6673C74.7929 19.6673 74.0121 19.8873 73.4473 20.3272C72.8818 20.7671 72.4843 21.2368 72.2542 21.7361L70.2756 21.0228C70.6285 20.1905 71.1002 19.5425 71.6887 19.0788C72.2839 18.6091 72.9317 18.2822 73.6322 18.0979C74.3394 17.9076 75.0345 17.8125 75.7174 17.8125C76.1533 17.8125 76.654 17.866 77.2196 17.973C77.7905 18.0741 78.3411 18.2851 78.8715 18.6061C79.4073 18.9272 79.852 19.4117 80.2056 20.0597C80.5586 20.7077 80.7354 21.5756 80.7354 22.6635V31.6878H78.6502V29.833H78.5442C78.4032 30.1303 78.1677 30.4483 77.8377 30.7872C77.5077 31.126 77.0691 31.4144 76.5211 31.6522C75.9738 31.8899 75.3051 32.0089 74.5162 32.0089ZM74.834 30.1184C75.6587 30.1184 76.3538 29.9549 76.9186 29.6279C77.4902 29.3009 77.92 28.8789 78.2088 28.3617C78.5031 27.8445 78.6502 27.3005 78.6502 26.7298V24.8037C78.5625 24.9107 78.3681 25.0088 78.0671 25.098C77.7729 25.1812 77.4314 25.2555 77.0427 25.3209C76.6594 25.3803 76.2856 25.4339 75.9205 25.4814C75.5615 25.523 75.27 25.5586 75.0459 25.5884C74.5041 25.6597 73.9979 25.7757 73.5262 25.9361C73.0613 26.0907 72.684 26.3255 72.3959 26.6407C72.1131 26.9498 71.9714 27.3719 71.9714 27.9069C71.9714 28.6381 72.2393 29.191 72.7758 29.5655C73.3177 29.9341 74.0033 30.1184 74.834 30.1184Z" fill="#100102"/>
<path d="M93.0928 26.0881V17.9912H95.1774V31.6882H93.0928V29.3697H92.9511C92.6333 30.0652 92.1386 30.6568 91.4672 31.1442C90.7957 31.6257 89.9475 31.8665 88.9231 31.8665C88.0748 31.8665 87.3211 31.6793 86.6611 31.3047C86.0018 30.9243 85.4835 30.3535 85.1063 29.5926C84.729 28.8257 84.5408 27.8597 84.5408 26.6945V17.9912H86.626V26.5518C86.626 27.5505 86.9027 28.3472 87.456 28.9416C88.0155 29.5361 88.7287 29.8334 89.5939 29.8334C90.1128 29.8334 90.6398 29.6996 91.1757 29.4321C91.7175 29.1646 92.171 28.7544 92.5361 28.2015C92.9073 27.6486 93.0928 26.9442 93.0928 26.0881Z" fill="#100102"/>
<path d="M108.608 21.0584L106.735 21.5934C106.618 21.2784 106.444 20.9722 106.214 20.675C105.99 20.3718 105.684 20.1221 105.295 19.9259C104.906 19.7297 104.409 19.6317 103.802 19.6317C102.972 19.6317 102.28 19.8249 101.726 20.2113C101.179 20.5918 100.905 21.0763 100.905 21.6648C100.905 22.188 101.093 22.6011 101.47 22.9043C101.847 23.2075 102.436 23.4601 103.237 23.6623L105.251 24.1616C106.464 24.4589 107.368 24.9137 107.963 25.526C108.558 26.1324 108.855 26.9141 108.855 27.8712C108.855 28.6559 108.632 29.3574 108.184 29.9757C107.743 30.594 107.124 31.0815 106.329 31.4382C105.534 31.7949 104.609 31.9732 103.555 31.9732C102.171 31.9732 101.025 31.67 100.118 31.0636C99.2114 30.4572 98.6372 29.5715 98.3956 28.4063L100.374 27.9069C100.563 28.6441 100.919 29.197 101.443 29.5655C101.973 29.9341 102.665 30.1184 103.52 30.1184C104.491 30.1184 105.263 29.9103 105.834 29.4942C106.411 29.0721 106.7 28.5668 106.7 27.9782C106.7 27.5026 106.535 27.1043 106.205 26.7833C105.875 26.4564 105.369 26.2126 104.686 26.0521L102.424 25.5171C101.181 25.2198 100.268 24.7591 99.6852 24.1349C99.1082 23.5047 98.8194 22.717 98.8194 21.7718C98.8194 20.999 99.0346 20.3153 99.4645 19.7208C99.9004 19.1264 100.492 18.6597 101.24 18.3208C101.994 17.982 102.848 17.8125 103.802 17.8125C105.145 17.8125 106.199 18.1098 106.965 18.7043C107.736 19.2987 108.284 20.0834 108.608 21.0584Z" fill="#100102"/>
<path d="M131.642 19.1325C131.447 18.5321 131.191 17.9941 130.873 17.5185C130.561 17.037 130.187 16.6268 129.751 16.2879C129.321 15.949 128.832 15.6904 128.285 15.5121C127.737 15.3338 127.136 15.2446 126.482 15.2446C125.41 15.2446 124.436 15.524 123.558 16.0828C122.681 16.6417 121.983 17.465 121.464 18.5529C120.946 19.6408 120.687 20.9754 120.687 22.5568C120.687 24.1381 120.949 25.4727 121.473 26.5606C121.998 27.6486 122.708 28.4719 123.602 29.0307C124.498 29.5896 125.505 29.869 126.624 29.869C127.66 29.869 128.573 29.646 129.363 29.2002C130.158 28.7483 130.776 28.1123 131.218 27.2919C131.665 26.4655 131.889 25.4935 131.889 24.3759L132.561 24.5186H127.119V22.5568H134.009V24.5186C134.009 26.0226 133.692 27.3305 133.055 28.4422C132.425 29.5539 131.553 30.4158 130.44 31.0282C129.333 31.6346 128.061 31.9377 126.624 31.9377C125.021 31.9377 123.614 31.5573 122.401 30.7963C121.193 30.0354 120.251 28.9534 119.574 27.5504C118.902 26.1475 118.567 24.4829 118.567 22.5568C118.567 21.1122 118.758 19.8132 119.141 18.6599C119.53 17.5006 120.078 16.5138 120.784 15.6994C121.491 14.8849 122.328 14.2607 123.293 13.8267C124.259 13.3927 125.322 13.1758 126.482 13.1758C127.437 13.1758 128.326 13.3215 129.151 13.6127C129.981 13.8981 130.72 14.3053 131.368 14.8344C132.021 15.3575 132.567 15.9847 133.002 16.7159C133.438 17.4412 133.738 18.2467 133.904 19.1325H131.642Z" fill="#100102"/>
<path d="M137.479 31.6878V17.9908H139.493V20.0596H139.635C139.882 19.3819 140.33 18.8321 140.978 18.41C141.626 17.9879 142.356 17.7769 143.168 17.7769C143.321 17.7769 143.513 17.7798 143.742 17.7858C143.973 17.7917 144.146 17.8006 144.264 17.8125V19.9527C144.193 19.9348 144.031 19.9081 143.778 19.8724C143.531 19.8308 143.269 19.81 142.992 19.81C142.332 19.81 141.743 19.9497 141.225 20.2291C140.713 20.5025 140.306 20.883 140.006 21.3705C139.711 21.8521 139.564 22.4019 139.564 23.0202V31.6878H137.479Z" fill="#100102"/>
<path d="M151.835 31.9732C150.61 31.9732 149.535 31.6789 148.611 31.0904C147.692 30.5018 146.974 29.6784 146.455 28.6203C145.942 27.5621 145.687 26.3255 145.687 24.9107C145.687 23.4839 145.942 22.2384 146.455 21.1743C146.974 20.1102 147.692 19.2839 148.611 18.6953C149.535 18.1068 150.61 17.8125 151.835 17.8125C153.06 17.8125 154.132 18.1068 155.051 18.6953C155.976 19.2839 156.694 20.1102 157.207 21.1743C157.725 22.2384 157.984 23.4839 157.984 24.9107C157.984 26.3255 157.725 27.5621 157.207 28.6203C156.694 29.6784 155.976 30.5018 155.051 31.0904C154.132 31.6789 153.06 31.9732 151.835 31.9732ZM151.835 30.0827C152.766 30.0827 153.531 29.842 154.132 29.3604C154.733 28.8789 155.177 28.2457 155.466 27.461C155.754 26.6763 155.899 25.8262 155.899 24.9107C155.899 23.9952 155.754 23.1421 155.466 22.3514C155.177 21.5607 154.733 20.9217 154.132 20.4342C153.531 19.9468 152.766 19.703 151.835 19.703C150.904 19.703 150.139 19.9468 149.538 20.4342C148.937 20.9217 148.493 21.5607 148.204 22.3514C147.916 23.1421 147.771 23.9952 147.771 24.9107C147.771 25.8262 147.916 26.6763 148.204 27.461C148.493 28.2457 148.937 28.8789 149.538 29.3604C150.139 29.842 150.904 30.0827 151.835 30.0827Z" fill="#100102"/>
<path d="M169.719 26.0881V17.9912H171.803V31.6882H169.719V29.3697H169.577C169.259 30.0652 168.764 30.6568 168.093 31.1442C167.421 31.6257 166.573 31.8665 165.548 31.8665C164.701 31.8665 163.946 31.6793 163.287 31.3047C162.627 30.9243 162.108 30.3535 161.732 29.5926C161.355 28.8257 161.166 27.8597 161.166 26.6945V17.9912H163.252V26.5518C163.252 27.5505 163.528 28.3472 164.082 28.9416C164.641 29.5361 165.354 29.8334 166.22 29.8334C166.738 29.8334 167.266 29.6996 167.801 29.4321C168.343 29.1646 168.797 28.7544 169.162 28.2015C169.533 27.6486 169.719 26.9442 169.719 26.0881Z" fill="#100102"/>
<path d="M175.622 36.8242V17.9909H177.636V20.1667H177.883C178.036 19.9289 178.248 19.6257 178.52 19.2572C178.796 18.8826 179.191 18.5497 179.703 18.2584C180.221 17.9611 180.923 17.8125 181.806 17.8125C182.948 17.8125 183.956 18.1009 184.827 18.6775C185.699 19.2542 186.379 20.0716 186.868 21.1297C187.357 22.188 187.601 23.4364 187.601 24.875C187.601 26.3255 187.357 27.5829 186.868 28.647C186.379 29.7052 185.702 30.5256 184.836 31.1082C183.97 31.6849 182.972 31.9732 181.841 31.9732C180.97 31.9732 180.271 31.8276 179.748 31.5362C179.223 31.239 178.82 30.9031 178.537 30.5286C178.254 30.1481 178.036 29.833 177.883 29.5834H177.707V36.8242H175.622ZM177.671 24.8393C177.671 25.8738 177.822 26.7863 178.122 27.577C178.422 28.3617 178.861 28.977 179.438 29.4228C180.016 29.8628 180.722 30.0827 181.558 30.0827C182.43 30.0827 183.158 29.8509 183.741 29.3872C184.33 28.9175 184.771 28.2874 185.066 27.4967C185.366 26.7001 185.516 25.8143 185.516 24.8393C185.516 23.8763 185.369 23.0083 185.075 22.2355C184.786 21.4568 184.347 20.8414 183.758 20.3896C183.175 19.9319 182.442 19.703 181.558 19.703C180.711 19.703 179.998 19.92 179.42 20.354C178.844 20.782 178.408 21.3824 178.113 22.1553C177.818 22.9222 177.671 23.8168 177.671 24.8393Z" fill="#100102"/>
</svg>
