<svg width="149" height="60" viewBox="0 0 149 60" fill="none" xmlns="http://www.w3.org/2000/svg">
<path fill-rule="evenodd" clip-rule="evenodd" d="M53.7352 26.2469V37.0887H56.3589H58.9826V26.2469V15.4053H56.3589H53.7352V26.2469ZM61.5014 26.2469V37.0887H64.1251H66.7488V26.2469V15.4053H64.1251H61.5014V26.2469ZM121.532 26.2469V37.0887H124.153H126.773L126.828 31.3029L126.884 25.5172H131.732C135.533 25.5172 136.656 25.5789 136.928 25.8033C137.234 26.0562 137.274 26.7303 137.274 31.589V37.0887H139.898H142.522L142.517 31.0945C142.513 25.6967 142.474 25.015 142.121 24.2444C141.632 23.1742 141.002 22.5662 139.793 21.9991C138.918 21.5886 138.407 21.5481 132.867 21.4516L126.884 21.3474L126.827 18.3763L126.768 15.4053H124.15H121.532V26.2469ZM5.66858 30.0955V44.5945H8.29227H10.9161V32.6061V20.6177H16.3786H21.8412L22.0612 21.191C22.1869 21.5183 22.2522 22.8675 22.2133 24.3357C22.1537 26.5949 22.096 26.9427 21.7381 27.2025C21.4269 27.4283 20.5354 27.4984 17.9599 27.4994C14.2566 27.5009 13.8323 27.6191 12.9935 28.8826C12.5274 29.5851 12.4682 31.3094 12.8846 32.0556C13.0357 32.3262 15.7953 35.255 19.0168 38.564L24.8742 44.5805L83.6984 44.5876L142.522 44.5945V42.0925V39.5906H84.9552H27.3888L23.4049 35.6292L19.421 31.6678L20.3635 31.6662C22.0038 31.6634 24.0038 31.2448 24.921 30.7121C25.4626 30.3977 26.0345 29.8139 26.3903 29.2124C26.9717 28.2302 26.9734 28.2167 27.0397 23.7436L27.1064 19.2597L26.5049 18.1159C25.9955 17.1472 25.7147 16.8762 24.6696 16.3452L23.4356 15.718L14.5521 15.6574L5.66858 15.5967V30.0955ZM69.2675 26.7682V37.0887H71.7864H74.3051V31.2509V25.413H75.7744H77.2436V23.4323V21.4516H75.7744H74.3051V18.9497V16.4477H71.7864H69.2675V26.7682ZM33.2701 21.8194C32.0496 22.2475 31.4438 22.6369 30.9023 23.3422C30.0626 24.436 29.9906 24.9731 30.0574 29.6371L30.1217 34.1352L30.7532 35.0271C31.1353 35.5667 31.7966 36.1296 32.4267 36.4517L33.4689 36.9844H40.5059H47.5432L48.6267 36.4169C50.7332 35.3134 51.0077 34.4775 51.0018 29.1869C50.9968 24.6816 50.8518 24.0211 49.6161 22.87C48.2646 21.6111 47.9399 21.5606 40.8264 21.5037C35.0584 21.4574 34.2004 21.4933 33.2701 21.8194ZM81.3031 21.7454C80.0255 22.1501 79.1359 22.8599 78.693 23.8286C78.3509 24.5772 78.3024 25.2395 78.3024 29.1659C78.3024 34.1061 78.4365 34.7625 79.6793 35.9074C80.8921 37.0245 81.4529 37.0887 89.9799 37.0887H97.8137V35.0037V32.9188L91.2545 32.9156C83.8612 32.9123 83.6871 32.8829 83.581 31.6251L83.517 30.8622L89.6681 30.7959C96.2646 30.7248 96.4889 30.6899 97.4995 29.5831C97.8631 29.184 97.9279 28.7722 97.987 26.4551C98.0648 23.4525 97.8996 22.881 96.7149 22.0414C96.0338 21.559 95.986 21.5557 89.1029 21.5123C83.8264 21.4793 81.9679 21.5348 81.3031 21.7454ZM104.845 21.5917C103.23 21.9449 101.978 22.8083 101.328 24.0178C100.902 24.8111 100.852 25.2387 100.786 28.6447C100.739 31.0313 100.803 32.8008 100.961 33.5052C101.248 34.7938 102.089 35.854 103.356 36.5276C104.188 36.9694 104.46 36.9865 111.719 37.0464L119.224 37.1082V35.0223V32.9363L112.909 32.8754C106.939 32.8178 106.579 32.7925 106.297 32.4098C105.872 31.8315 105.872 26.5003 106.297 25.9219C106.579 25.5394 106.941 25.5137 112.909 25.4537L119.224 25.3901V23.4209V21.4516L112.244 21.4758C108.406 21.4891 105.076 21.5412 104.845 21.5917ZM45.1294 25.6828L45.6541 25.9465V29.1659V32.3853L45.1294 32.6569C44.3909 33.0391 35.8294 32.9392 35.4316 32.5437C35.2472 32.3601 35.1359 31.4518 35.0868 29.7291C35.0009 26.7055 35.1806 25.7977 35.9054 25.5969C36.8801 25.3267 44.563 25.3982 45.1294 25.6828ZM92.5825 25.7622C92.9056 26.0841 92.8967 26.9978 92.5671 27.393C92.3493 27.6537 91.5646 27.7064 87.9109 27.7064H83.5162L83.581 26.8251C83.6798 25.4807 83.9891 25.395 88.5158 25.4614C91.0942 25.4991 92.4165 25.5969 92.5825 25.7622Z" fill="#100102"/>
</svg>
