<svg width="215" height="50" viewBox="0 0 215 50" fill="none" xmlns="http://www.w3.org/2000/svg">
<mask id="mask0_3443_58402" style="mask-type:luminance" maskUnits="userSpaceOnUse" x="4" y="13" width="206" height="24">
<path d="M209.591 13.1758H4.73291V36.8244H209.591V13.1758Z" fill="white"/>
</mask>
<g mask="url(#mask0_3443_58402)">
<path d="M28.1896 16.8742V13.1758H4.73291V36.8244H28.1896V21.7706H26.3813L27.1046 19.8432L28.1896 16.8742ZM27.1563 22.7602V35.7827H5.71457V14.1655H27.1563V16.6658C27.1563 17.2388 26.6912 17.6034 25.9679 17.6034H12.7929V32.3447H20.1296V22.7602H27.1563ZM42.0363 32.1885H39.8663V17.4471H48.3396V19.3744H42.0363V19.6349V32.1885ZM55.0047 20.5204C57.5363 20.5204 59.6029 21.8227 59.6029 24.8438C59.6029 27.24 57.7946 29.2715 55.0047 29.2715L53.2996 29.3236V32.2406H51.0263V20.5204H55.0047ZM53.2996 27.4483H54.4363C56.3997 27.4483 57.278 26.7191 57.278 24.7396C57.278 22.9686 56.2963 22.4477 54.5913 22.4477H53.2996V27.4483ZM71.0733 22.4477H66.0096V25.521H69.9361V27.3442H66.0096V30.3653H71.2281V32.1885H63.7363V20.5204H71.0733V22.4477ZM101.298 32.2406H99.1281V27.3963H93.083V32.2406H90.9128V20.5204H93.083V25.521H99.1281V20.5725H101.298V32.2406ZM171.772 20.4683H173.89V28.9068L180.245 20.5204H182.311V32.1885H179.986V23.8021L173.734 32.1885H171.772V20.4683ZM75.5166 20.5204H77.6862V28.9589L84.0416 20.5725H86.1077V32.2406H83.7833V23.9063L77.5314 32.2406H75.5166V20.5204ZM197.605 32.1885H195.383V27.2921H189.338V32.1885H187.168V20.5204H189.338V25.4689H195.383V20.5204H197.605V32.1885ZM132.557 20.3642C136.173 20.3642 138.808 22.9165 138.808 26.4065C138.808 29.584 136.224 32.3447 132.557 32.3447C128.991 32.3447 126.408 29.6361 126.408 26.4065C126.357 22.9165 129.043 20.3642 132.557 20.3642ZM132.557 30.4174C134.984 30.4174 136.483 28.8027 136.483 26.4065C136.483 23.8542 134.882 22.3436 132.557 22.3436C130.386 22.3436 128.681 24.0104 128.681 26.4065C128.681 28.8027 130.128 30.4174 132.557 30.4174ZM151.879 20.5204V32.1885H149.71V22.3436H146.403C146.403 22.3436 145.938 26.5107 145.628 28.438C145.267 30.3653 143.768 32.2927 141.598 32.2927C141.391 32.2927 141.029 32.2406 140.823 32.2406L140.461 30.157L141.133 30.2091C142.58 30.2091 143.148 28.7506 143.355 28.0213C143.716 26.6149 144.13 22.5519 144.285 20.5204H151.879ZM156.22 30.2611C157.666 28.2296 158.442 26.5628 158.442 21.7706V20.5204H166.295V30.3132H167.483V35.2617H165.468V32.2406H157.305V35.2617H155.238V30.3132H156.22V30.2611ZM164.125 30.2611V22.3956H160.611V22.6561C160.611 26.1461 159.578 28.8547 158.855 30.2611H164.125ZM204.838 32.1885H202.616V20.5204H209.591V22.3956H204.838V32.1885ZM122.068 32.1885L117.831 26.3544L117.625 26.094L113.388 32.1885H110.598L116.488 24.4792L116.281 24.2188L110.753 16.9783H113.647L117.573 22.5519L117.934 23.0207L122.12 16.9783H124.755L119.123 24.6875L119.278 24.8438L124.91 32.1885H122.068ZM83.473 18.1243C83.473 17.7596 82.233 17.4471 80.7861 17.4471C79.2879 17.4471 78.1 17.7596 78.1 18.1243C78.1 18.4889 79.2879 18.8015 80.7861 18.8015C82.2844 18.8015 83.473 18.4889 83.473 18.1243Z" fill="#100102"/>
</g>
</svg>
