<svg width="83" height="60" viewBox="0 0 83 60" fill="none" xmlns="http://www.w3.org/2000/svg">
<path d="M52.1341 12.3863L52.2407 5.27051L46.7473 12.3863H38.0312L43.3521 16.784L37.8586 23.8998L46.6406 19.502L51.9616 23.8998L52.0682 16.784L60.8501 12.3863H52.1341Z" fill="#100102"/>
<path d="M18.8132 17.8912C13.4404 18.8675 11.6495 23.1062 11.4256 25.1035H18.8132C18.8132 24.0827 19.7832 22.7178 20.3801 22.1631C22.7867 20.6651 24.5403 21.7562 24.8015 22.9397C25.5179 27.2893 20.9959 27.6185 18.8132 27.3227L18.0855 31.4281C19.1115 31.3171 21.2196 31.8276 21.4435 34.7569C21.6673 37.6862 18.925 38.6405 17.5258 38.7515C14.0335 39.0177 14.4289 35.6446 15.0632 33.9247H8.12353C5.7953 39.517 9.09366 42.1357 11.0338 42.7459H22.3951C25.2606 41.592 30.6036 36.9391 32.9169 34.7569L29.5589 42.7459H35.9391L41.6477 35.6446L39.9688 42.7459H46.349L60.9004 25.6582L53.8486 44.7432L29.5589 44.1884L25.977 54.7295H35.9391L36.8346 49.8473H61.6839L60.1169 54.7295H69.9671L73.6609 44.7432H64.0345L75.6757 12.4541H66.3851L49.5951 32.0939L51.8338 25.1035H45.3415L39.4091 32.0939L42.3194 25.1035H35.9391C33.839 27.5079 30.2006 31.6928 29.1844 32.926C29.5825 31.9792 28.5966 30.1082 27.9918 29.2089C35.3347 22.9065 31.0513 19.0377 27.9918 17.8912H18.8132Z" fill="#100102"/>
</svg>
