<svg width="123" height="80" viewBox="0 0 123 80" fill="none" xmlns="http://www.w3.org/2000/svg">
<g clip-path="url(#clip0_3443_58451)">
<mask id="mask0_3443_58451" style="mask-type:luminance" maskUnits="userSpaceOnUse" x="0" y="0" width="123" height="80">
<path d="M123 0H0V80H123V0Z" fill="white"/>
</mask>
<g mask="url(#mask0_3443_58451)">
<path fill-rule="evenodd" clip-rule="evenodd" d="M20.5615 52.1746C22.838 51.8149 24.9297 51.3353 26.7755 50.8557L27.0216 50.9756V52.834C28.6827 51.5751 30.344 50.9156 31.9435 50.9156C33.3587 50.9156 34.5276 51.3953 35.3274 52.2945C36.1273 53.1938 36.558 54.5126 36.558 56.1312V62.1261C36.558 63.5649 36.558 64.584 36.558 65.3034C36.558 65.6032 36.681 65.7831 36.9271 65.903L38.7113 66.5024L38.7728 67.3417C37.3578 67.2818 35.9427 67.2818 34.5276 67.2818C33.0511 67.2818 31.6975 67.2818 30.5285 67.3417L30.467 66.5623L31.9435 66.0229C32.1896 65.9629 32.3127 65.7831 32.3127 65.4833C32.3127 65.3034 32.3127 64.9437 32.3127 64.4042V57.2103C32.3127 55.8315 32.0666 54.8124 31.6359 54.2128C31.1437 53.6133 30.467 53.3137 29.5442 53.3137C28.7443 53.3137 27.8829 53.6133 27.0216 54.1529V61.5266C27.0216 62.9655 27.0216 64.2843 27.0216 65.4233C27.0216 65.7231 27.1447 65.903 27.3292 65.9629L28.8673 66.5024V67.2818C27.6368 67.2218 26.3449 67.2218 24.8682 67.2218C23.3917 67.2218 21.9765 67.2218 20.5615 67.2818L20.5 66.5024L22.4073 65.903C22.6534 65.843 22.7149 65.6631 22.7149 65.3634C22.7149 64.6439 22.7149 63.9246 22.7149 63.2651V57.63C22.7149 56.1312 22.7149 54.7524 22.6534 53.4934L20.5615 52.834V52.1746ZM61.7215 70.2792L61.9676 71.2384C59.9373 73.8162 58.2761 75.1351 56.9841 75.1351C55.3229 75.1351 53.8464 74.5356 52.6158 73.3966C51.3238 72.2576 50.3395 70.4591 49.6627 67.9412C46.3404 67.8812 43.8178 66.7422 41.9721 64.524C40.1264 62.3659 39.2034 59.3685 39.2034 55.5917C39.2034 51.6351 40.1879 48.5177 42.2182 46.1797C44.2485 43.9017 47.0171 42.7026 50.5856 42.7026C54.0309 42.7026 56.6765 43.7818 58.5222 45.9399C60.368 48.0981 61.3523 51.0355 61.3523 54.7524C61.3523 58.4692 60.491 61.4666 58.7683 63.7448C57.0456 66.0827 54.7692 67.4017 51.8775 67.7613C52.8004 69.9795 54.8923 71.1185 58.0915 71.1185C59.3835 71.1185 60.6141 70.8187 61.7215 70.2792ZM44.0639 55.0522C44.0639 58.709 44.6176 61.5266 45.6635 63.445C46.7095 65.3634 48.3091 66.3825 50.3395 66.3825C52.3697 66.3825 53.8464 65.4833 54.8307 63.7448C55.8151 62.0062 56.3074 59.1886 56.3074 55.4718C56.3074 51.9347 55.8151 49.1771 54.7692 47.3187C53.7233 45.4004 52.1236 44.4411 50.0319 44.4411C47.94 44.4411 46.4634 45.3404 45.479 47.079C44.5561 48.7574 44.0639 51.4552 44.0639 55.0522ZM74.7647 65.9629C73.2881 67.2218 71.75 67.8213 70.0274 67.8213C68.4277 67.8213 67.2587 67.3417 66.3973 66.4424C65.5975 65.5432 65.1669 64.2244 65.1669 62.6057V58.9488C65.1669 56.491 65.1669 54.6925 65.1053 53.5534L63.0135 52.894L62.9519 52.1746C65.3514 51.755 67.5048 51.2754 69.3505 50.8557L69.5351 50.9756C69.4736 52.4144 69.4736 54.1529 69.4736 56.3111V61.5866C69.4736 62.9655 69.7196 63.9246 70.1504 64.524C70.5811 65.1236 71.2578 65.4233 72.1191 65.4233C73.042 65.4233 73.9034 65.1835 74.7032 64.7039V57.4501C74.7032 55.8315 74.7032 54.5126 74.6417 53.4934L72.6728 52.894L72.6113 52.1746C74.9493 51.755 77.0412 51.2754 78.8253 50.8557L79.0099 50.9756C78.9484 52.4144 78.8868 54.2128 78.8868 56.3711C78.8868 60.5075 78.8868 63.0253 78.8868 63.9846C78.8868 64.4641 78.9484 64.8238 78.9484 65.0636C79.0099 65.3634 79.0714 65.5432 79.256 65.7231C79.379 65.843 79.6251 65.9629 79.8712 66.0229C80.1173 66.0827 80.5481 66.1427 81.0402 66.1427L81.1018 66.9221C79.6866 67.5216 78.4562 67.7613 77.4718 67.7613C76.0567 67.8212 75.1954 67.1619 74.7647 65.9629ZM96.7905 66.2026C94.9448 67.2818 93.0375 67.8213 91.0072 67.8213C88.6077 67.8213 86.6389 67.1019 85.1009 65.7831C83.5628 64.4042 82.8244 62.3659 82.8244 59.6683C82.8244 57.0904 83.5628 55.0522 85.0393 53.4336C86.5159 51.8149 88.3617 51.0355 90.6381 51.0355C92.6068 51.0355 94.145 51.6351 95.2524 52.894C96.3598 54.1529 96.852 55.8315 96.852 57.9897C96.852 58.2893 96.852 58.6491 96.7905 59.0088H87.3773C87.3773 61.3467 87.8695 62.9654 88.8538 63.9846C89.8382 65.0037 91.4379 65.4833 93.6527 65.4833C94.6987 65.4833 95.7446 65.3634 96.729 65.1835L96.7905 66.2026ZM92.3607 57.3302V56.9105C92.3607 55.3519 92.1762 54.2128 91.8686 53.5534C91.5609 52.894 91.0072 52.5343 90.3305 52.5343C89.4691 52.5343 88.8538 53.0139 88.3001 53.9131C87.808 54.8723 87.5003 55.9514 87.4388 57.2702H92.3607V57.3302ZM107.619 52.894C107.004 52.7141 106.327 52.6542 105.588 52.6542C104.666 52.6542 103.927 52.834 103.374 53.1938C102.82 53.5534 102.512 54.0929 102.512 54.7524C102.512 55.2919 102.635 55.6516 102.881 55.9514C103.128 56.2511 103.558 56.491 104.173 56.7307L106.511 57.6899C107.926 58.2295 108.973 58.9488 109.588 59.7282C110.264 60.5075 110.572 61.4666 110.572 62.4858C110.572 64.1644 109.957 65.4833 108.727 66.3825C107.496 67.3417 105.896 67.7613 103.927 67.7613C102.266 67.7613 100.667 67.3417 99.0669 66.5623C99.3745 65.0037 99.6822 63.5649 99.8667 62.1261L100.605 62.0062L101.651 65.7231C102.266 65.9629 103.005 66.0827 103.927 66.0827C104.789 66.0827 105.465 65.903 106.019 65.5432C106.573 65.1835 106.819 64.6439 106.819 63.9846C106.819 63.445 106.634 62.9654 106.327 62.5458C106.019 62.1861 105.342 61.7664 104.42 61.4067L102.635 60.6874C101.466 60.2077 100.605 59.6083 100.051 58.8889C99.4976 58.1694 99.19 57.2103 99.19 56.1312C99.19 54.4527 99.7437 53.1938 100.913 52.2945C102.02 51.3953 103.62 50.9756 105.588 50.9756C107.25 50.9756 108.727 51.2754 110.018 51.8149C109.711 53.3137 109.465 54.7524 109.28 56.0713L108.481 56.1912L107.619 52.894ZM118.508 53.4336C118.447 57.0304 118.447 60.0279 118.447 62.5458C118.447 63.6848 118.57 64.524 118.877 64.9437C119.186 65.3634 119.801 65.6032 120.662 65.6032C121.338 65.6032 122.078 65.5432 122.877 65.4833L123 66.5024C121.461 67.4017 119.985 67.8213 118.631 67.8213C117.278 67.8213 116.17 67.4616 115.432 66.8022C114.694 66.1427 114.325 65.1236 114.325 63.8047C114.325 61.4067 114.325 57.9297 114.387 53.3736L112.418 52.7741L112.295 51.8749L114.756 51.6351L116.17 47.6184C117.032 47.4386 117.77 47.2587 118.447 47.1389L118.631 47.2587C118.631 48.6376 118.57 50.1364 118.57 51.6351H122.693V53.4934H118.508V53.4336Z" fill="#100102"/>
<path fill-rule="evenodd" clip-rule="evenodd" d="M51.0343 59.2557C53.3645 56.9894 49.4998 51.4155 50.125 48.1079C48.2496 49.9454 46.8287 52.8855 46.4877 55.4581C45.7489 60.542 49.6136 60.6033 51.0343 59.2557Z" fill="#100102"/>
<path fill-rule="evenodd" clip-rule="evenodd" d="M13.295 6.10894C16.0991 9.10575 9.91735 14.9818 10.1723 18.9188C7.94174 16.4508 6.53968 12.8077 6.47596 9.81088C6.3485 3.69975 11.6381 4.28736 13.295 6.10894Z" fill="#100102"/>
<path fill-rule="evenodd" clip-rule="evenodd" d="M10.3584 43.7837C10.3584 44.2671 10.6552 45.2341 10.8334 45.6571C12.7924 49.2227 15.1079 52.4861 15.7015 55.8703C16.3546 59.2546 16.1171 61.0676 15.8796 63.2431H9.17106H6.85572H2.40316C2.16569 61.0676 1.92821 59.2546 2.58126 55.8703C3.2343 52.4861 5.54964 49.2227 7.4494 45.6571C7.68687 45.2341 7.92435 44.2671 7.92435 43.7837C7.92435 43.3002 7.6275 42.3333 7.4494 41.9103C5.49027 38.3447 3.17494 35.0813 2.58126 31.6971C1.92821 28.3128 2.16569 26.4998 2.40316 24.3242H9.17106H15.939C16.1764 26.4998 16.4139 28.3128 15.7608 31.6971C15.1079 35.0813 12.7924 38.3447 10.8927 41.9103C10.6552 42.3333 10.3584 43.3002 10.3584 43.7837Z" fill="#100102"/>
<path fill-rule="evenodd" clip-rule="evenodd" d="M4.3158 56.7566C5.2406 53.2369 8.20001 51.2343 9.24813 46.7436C9.55639 43.7701 9.06316 43.588 7.64511 40.8572C6.78196 39.0974 3.02106 31.3905 5.1173 27.5674C8.20001 27.5674 11.2211 27.5674 14.3037 27.5674C16.3384 31.3298 12.6391 39.0974 11.776 40.8572C10.4196 43.588 9.92632 43.7701 10.1729 46.7436C11.2211 51.2343 14.1805 53.2369 15.1053 56.7566C13.5639 56.1498 12.1458 54.5719 9.74136 54.0864C7.2752 54.5719 5.85715 56.2104 4.3158 56.7566Z" fill="#100102"/>
<path fill-rule="evenodd" clip-rule="evenodd" d="M14.5809 68.5916C12.8868 68.5916 1.63355 68.5916 0.0605018 68.6485L0 67.8519L2.29906 67.1122C2.54107 66.9984 2.66208 66.8277 2.66208 66.6002V66.4863H16.6984V66.6002C16.6984 66.8846 16.8195 67.0553 17.0615 67.1122L19.3605 67.8519L19.4211 68.6485C17.8481 68.5916 16.2144 68.5916 14.5809 68.5916Z" fill="#100102"/>
<path fill-rule="evenodd" clip-rule="evenodd" d="M14.5809 22.219C12.8868 22.219 1.63355 22.219 0.0605018 22.1621L0 22.9586L2.29906 23.6984C2.54107 23.8122 2.66208 23.9829 2.66208 24.2104V24.3243H16.6984V24.2104C16.6984 23.926 16.8195 23.7553 17.0615 23.6984L19.3605 22.9586L19.4211 22.1621C17.8481 22.1621 16.2144 22.219 14.5809 22.219Z" fill="#100102"/>
</g>
</g>
<defs>
<clipPath id="clip0_3443_58451">
<rect width="123" height="80" fill="white"/>
</clipPath>
</defs>
</svg>
