<svg width="197" height="60" viewBox="0 0 197 60" fill="none" xmlns="http://www.w3.org/2000/svg">
<path d="M32.428 46.2162C42.7259 46.2162 51.074 37.8669 51.074 27.5676C51.074 17.2683 42.7259 8.91895 32.428 8.91895C22.13 8.91895 13.7819 17.2683 13.7819 27.5676C13.7819 37.8669 22.13 46.2162 32.428 46.2162Z" fill="#100102"/>
<path d="M12.498 32.4326L10.5391 32.9185C11.1377 35.3663 12.1534 37.67 13.532 39.8117C13.8403 40.2977 14.185 40.7656 14.5296 41.2336C14.6384 41.3596 14.8199 41.3956 14.965 41.2876L16.0896 40.4597C16.2347 40.3517 16.2528 40.1717 16.144 40.0277C14.4389 37.796 13.1874 35.2043 12.498 32.4326Z" fill="#100102"/>
<path d="M42.9671 7.19429C41.3368 6.39996 39.598 5.80421 37.7866 5.40705C34.7436 4.73909 31.6462 4.68492 28.6032 5.26262C25.6688 5.80421 22.8975 6.90544 20.3616 8.51218C17.862 10.1369 15.7065 12.195 13.9676 14.614C12.1925 17.1415 10.9426 19.9577 10.2725 22.9906C9.60231 26.0235 9.54799 29.1106 10.1276 32.1435C10.1457 32.2337 10.1638 32.324 10.182 32.4323L12.1382 31.9449C11.5948 29.2008 11.5948 26.3124 12.2287 23.4239C14.7103 12.0866 27.6613 3.76423 38.1851 6.12917" fill="#100102"/>
<path d="M49.4527 11.9046C48.3573 10.7639 47.1297 9.73352 45.8077 8.81358C45.0145 8.26166 44.2024 7.78327 43.3526 7.3233C43.2581 7.2681 43.1448 7.3049 43.0881 7.39689L42.9937 7.54408C42.937 7.63608 42.9748 7.76487 43.0692 7.82007C43.7303 8.18804 44.3535 8.57439 44.9767 9.01604C46.3176 9.95439 47.5641 11.0031 48.6784 12.1622L49.4527 11.9046Z" fill="#100102"/>
<path d="M55.5583 23.4226C55.0204 20.5338 53.927 17.8056 52.3316 15.3091C51.8117 14.4889 51.2201 13.7043 50.6106 12.9731L49.8937 13.2406C50.4852 13.9539 51.0409 14.7207 51.5608 15.5052C53.1562 17.9839 54.2496 20.7121 54.7874 23.6187C55.3431 26.6144 55.3073 29.6458 54.644 32.6594C54.1421 34.924 53.3175 37.0638 52.1882 39.0431C52.1703 39.0609 52.0806 38.9361 52.0627 38.954L50.6466 40.4518C50.0012 40.3091 50.1267 39.899 50.3418 39.5068C50.4493 39.3284 50.2342 39.1323 50.0729 39.2571C48.4058 40.3983 50.5211 42.1636 51.489 40.9332C51.7938 40.5053 52.3853 39.8098 52.6543 39.3641C53.9449 37.2421 54.8591 34.924 55.3969 32.481C56.0602 29.4496 56.1139 26.4183 55.5583 23.4226Z" fill="#100102"/>
<path d="M21.3771 15.4457C23.1752 11.6401 29.2959 11.8025 32.1837 15.3014C30.5672 15.1391 26.7531 15.3736 24.1741 17.5559C24.5555 16.5459 25.1367 15.6441 24.5737 15.1391C24.0106 14.6161 22.8119 14.562 21.3771 15.4457ZM38.4134 39.9203C38.1046 40.2089 36.7606 39.9203 36.6698 39.6318C36.5608 39.3432 36.8151 38.7119 36.8151 38.7119C34.3813 40.5516 30.3311 44.3211 30.2948 47.8381C31.5299 46.7379 35.0896 43.0225 37.7595 42.283C40.5384 41.5075 46.4229 44.2309 47.44 45.6197C46.2776 40.3351 40.393 39.7039 39.0127 38.3512C38.9945 38.3512 38.7221 39.6498 38.4134 39.9203ZM29.423 20.7302C23.1389 21.5058 18.907 25.5097 17.8354 28.3955C19.4882 26.7181 22.9027 25.0588 27.2617 25.2572C28.3514 25.3113 30.658 20.5679 29.423 20.7302ZM32.565 26.7C34.1997 25.7803 35.4529 27.2592 36.5608 28.8824C36.4336 27.4576 35.1986 25.0588 33.8365 24.1209C32.7286 24.3734 32.2563 25.7442 32.565 26.7ZM30.204 31.3894C30.1858 32.6158 30.5672 36.0606 34.1633 37.215C32.1111 35.7721 31.9839 33.3553 33.8909 33.2651C32.22 32.0928 30.204 31.3894 30.204 31.3894ZM38.2862 39.3612C38.159 39.776 37.596 39.6318 37.3055 39.5777C37.1057 39.5416 37.1783 39.271 37.1783 39.271C38.9037 31.245 25.1549 30.3253 21.9219 26.4476C21.8493 26.3574 25.0822 25.5819 27.5704 25.7983C28.6965 25.9786 31.8386 20.3334 29.7862 20.2612C25.4273 20.135 21.6677 23.3093 21.0139 23.6701C21.1228 20.1531 24.9188 15.8245 31.5843 15.7342C32.4924 15.7162 36.1068 16.4557 36.4518 16.5819C37.142 16.4377 50.455 11.8746 53.5062 11.3516C51.9987 11.9468 42.8813 15.1571 38.7766 17.3034C38.7766 17.3034 36.2339 18.9086 36.8514 19.3054C37.4689 19.6841 39.9753 19.3775 39.939 19.9186C37.8685 19.9366 36.8695 22.4977 34.2905 23.3273C31.8567 24.1029 31.094 25.672 32.565 27.8543C35.362 31.9665 40.3204 32.4174 38.2862 39.3612ZM34.6901 17.4476C34.6174 17.7543 34.8172 18.0609 35.1441 18.133C35.4711 18.2052 35.7798 18.0068 35.8524 17.7002C35.9251 17.3936 35.7253 17.087 35.3984 17.0148C35.0715 16.9427 34.7445 17.1411 34.6901 17.4476ZM36.2702 35.8803C36.2702 35.8803 35.5437 36.5115 35.3984 37.4675C36.1612 36.6198 36.8514 37.0346 36.8514 37.0346C36.7606 36.8542 36.4518 36.2771 36.2702 35.8803ZM39.049 35.4114C39.049 35.4114 39.2669 36.2771 39.1035 36.9083C39.4668 36.5296 39.9572 36.4394 40.3748 36.7641C39.9935 35.8442 39.4849 35.4655 39.049 35.4114Z" fill="#ECECEC"/>
<path d="M51.8848 39.7295C52.3325 39.7295 52.6955 39.3665 52.6955 38.9187C52.6955 38.4709 52.3325 38.1079 51.8848 38.1079C51.437 38.1079 51.0741 38.4709 51.0741 38.9187C51.0741 39.3665 51.437 39.7295 51.8848 39.7295Z" fill="#100102"/>
<path d="M14.5926 33.2435C15.4881 33.2435 16.214 32.6989 16.214 32.0273C16.214 31.3556 15.4881 30.811 14.5926 30.811C13.6971 30.811 12.9712 31.3556 12.9712 32.0273C12.9712 32.6989 13.6971 33.2435 14.5926 33.2435Z" fill="#100102"/>
<path d="M73.0319 18.6484L78.6378 34.0538H75.6883L74.3084 30.2205H69.151L67.8055 34.0538H64.856L70.4963 18.6484H73.0319ZM71.7728 22.0499L69.6512 28.0968H73.8082L71.7728 22.0499Z" fill="#100102"/>
<path d="M83.9893 17.8379V30.2009C83.9893 30.621 84.0979 30.9497 84.2973 31.1871C84.4968 31.4245 84.787 31.534 85.1672 31.534C85.3488 31.534 85.5304 31.4975 85.7477 31.4427C85.9649 31.3879 86.1644 31.3149 86.346 31.2236L86.7448 33.4698C86.346 33.6524 85.8928 33.7985 85.3667 33.908C84.8413 34.0176 84.3695 34.0541 83.9528 34.0541C83.0278 34.0541 82.3209 33.8167 81.8312 33.3236C81.3237 32.8306 81.0699 32.1366 81.0699 31.2236V17.8379H83.9893Z" fill="#100102"/>
<path d="M90.3265 33.5715C89.5734 33.2558 88.9305 32.8102 88.3979 32.2717C87.8653 31.7147 87.4615 31.0834 87.1673 30.3406C86.8738 29.6164 86.7449 28.8366 86.7449 28.0382C86.7449 27.2026 86.8916 26.4227 87.1673 25.68C87.4429 24.9373 87.8474 24.2874 88.3801 23.7304C88.9127 23.1733 89.5556 22.7276 90.3087 22.3934C91.0619 22.0592 91.9252 21.8921 92.8616 21.8921C93.7988 21.8921 94.6435 22.0592 95.3967 22.3934C96.1498 22.7276 96.7748 23.1548 97.3075 23.7118C97.8401 24.2688 98.226 24.9001 98.5016 25.6429C98.7765 26.367 98.9054 27.1283 98.9054 27.9267C98.9054 28.1125 98.9054 28.2981 98.8867 28.4838C98.8867 28.6695 98.8689 28.818 98.8316 28.9294H89.8677C89.9042 29.3936 90.0144 29.8021 90.1985 30.1549C90.3817 30.5078 90.6022 30.8234 90.8778 31.0648C91.1535 31.3247 91.4842 31.5104 91.8328 31.6404C92.1822 31.7704 92.5495 31.8446 92.9354 31.8446C93.5231 31.8446 94.0744 31.6961 94.607 31.4176C95.1397 31.1205 95.4883 30.7491 95.6723 30.2663L98.226 30.9905C97.8028 31.8818 97.1235 32.6245 96.1871 33.2001C95.2499 33.7757 94.1295 34.0543 92.8251 34.0543C91.9252 34.0543 91.0797 33.8871 90.3265 33.5715ZM94.9005 24.863C94.3314 24.3245 93.652 24.0646 92.8251 24.0646C92.4214 24.0646 92.0533 24.1388 91.7047 24.2688C91.3553 24.3988 91.0432 24.603 90.7862 24.863C90.5292 25.1229 90.3087 25.42 90.1247 25.7729C89.9593 26.1257 89.849 26.5341 89.8312 26.9612H95.8563C95.7826 26.1071 95.4704 25.4014 94.9005 24.863Z" fill="#100102"/>
<path d="M104.382 26.2645L104.562 26.6603L104.778 26.2645L107.202 22.7026H110.183L106.143 28.4053L110.255 34.054H107.274L104.76 30.528L104.562 30.1683L104.382 30.528L101.886 34.054H98.9054L103 28.4053L98.9775 22.7026H101.941L104.382 26.2645Z" fill="#100102"/>
<path d="M117.551 18.6484H127.28V21.276H120.377V25.2533H126.129V27.6829H120.377V34.0538H117.568V18.6484H117.551Z" fill="#100102"/>
<path d="M130.913 17.8379C131.589 17.8379 132.129 18.5028 132.129 19.3154C132.129 20.1281 131.589 20.793 130.928 20.793H130.913C130.253 20.793 129.712 20.1281 129.712 19.3154C129.712 18.5028 130.253 17.8379 130.913 17.8379ZM129.802 22.4183H132.069C132.114 22.4183 132.144 22.4553 132.144 22.5107V33.9618C132.144 34.0171 132.114 34.0541 132.069 34.0541H129.802C129.757 34.0541 129.727 34.0171 129.727 33.9618V22.5107C129.712 22.4737 129.757 22.4183 129.802 22.4183Z" fill="#100102"/>
<path d="M136.922 33.6073C136.002 33.2916 135.226 32.8461 134.576 32.2705L135.659 30.3953C136.363 30.8966 137.031 31.2866 137.699 31.5464C138.366 31.8064 139.016 31.9363 139.666 31.9363C140.244 31.9363 140.695 31.8249 141.037 31.6021C141.363 31.3793 141.543 31.0637 141.543 30.6367C141.543 30.2097 141.345 29.9126 140.947 29.727C140.55 29.5413 139.919 29.3185 139.034 29.0586C138.294 28.8544 137.663 28.6501 137.139 28.4459C136.616 28.2603 136.201 28.0375 135.876 27.7775C135.551 27.5361 135.316 27.2391 135.172 26.9235C135.028 26.6078 134.956 26.218 134.956 25.7724C134.956 25.1783 135.063 24.6398 135.299 24.1572C135.515 23.6744 135.839 23.266 136.236 22.9318C136.634 22.5976 137.121 22.3377 137.663 22.152C138.204 21.9664 138.8 21.8921 139.431 21.8921C140.279 21.8921 141.092 22.0221 141.832 22.2634C142.572 22.5233 143.258 22.9318 143.889 23.4887L142.716 25.3083C142.138 24.8627 141.579 24.5284 141.037 24.3243C140.496 24.12 139.955 24.0086 139.414 24.0086C138.926 24.0086 138.51 24.12 138.168 24.3243C137.843 24.5284 137.663 24.8627 137.663 25.3268C137.663 25.531 137.699 25.6981 137.789 25.8467C137.861 25.9766 137.988 26.1066 138.168 26.1994C138.348 26.3108 138.565 26.4036 138.853 26.4964C139.143 26.5893 139.486 26.7007 139.901 26.7935C140.677 26.9978 141.363 27.202 141.904 27.4247C142.463 27.629 142.915 27.8704 143.276 28.1489C143.637 28.4087 143.889 28.7244 144.052 29.0772C144.215 29.4299 144.305 29.8569 144.305 30.3396C144.305 31.4907 143.889 32.4004 143.059 33.0503C142.229 33.7187 141.11 34.0529 139.684 34.0529C138.763 34.0714 137.825 33.9043 136.922 33.6073Z" fill="#100102"/>
<path d="M153.588 34.0357V27.5123C153.588 26.591 153.426 25.9091 153.084 25.4853C152.76 25.0431 152.274 24.8219 151.681 24.8219C151.429 24.8219 151.141 24.8772 150.854 25.0062C150.566 25.1168 150.296 25.2826 150.026 25.5037C149.774 25.7249 149.523 25.9829 149.307 26.2777C149.091 26.5725 148.93 26.9042 148.822 27.2543V34.0541H145.926V17.8379H148.822V24.564C149.235 23.8084 149.811 23.2372 150.53 22.8134C151.25 22.4079 152.041 22.2052 152.904 22.2052C153.641 22.2052 154.235 22.3342 154.703 22.5922C155.17 22.8502 155.529 23.2003 155.782 23.6242C156.034 24.048 156.213 24.5455 156.322 25.0983C156.429 25.6512 156.465 26.204 156.465 26.7937V34.0541L153.588 34.0357Z" fill="#100102"/>
<path d="M160.917 17.8379C161.596 17.8379 162.14 18.502 162.14 19.3138C162.14 20.1255 161.596 20.7896 160.931 20.7896H160.917C160.252 20.7896 159.708 20.1255 159.708 19.3138C159.708 18.502 160.252 17.8379 160.917 17.8379ZM159.708 22.4131H162.14V34.0541H159.708V22.4131Z" fill="#100102"/>
<path d="M172.234 33.2258V26.9861C172.234 26.0871 172.072 25.435 171.748 25.0296C171.424 24.6242 170.993 24.4127 170.435 24.4127C170.147 24.4127 169.842 24.4655 169.554 24.5889C169.248 24.6947 168.96 24.8533 168.69 25.0648C168.42 25.2763 168.187 25.5231 167.971 25.8051C167.756 26.0871 167.593 26.4044 167.486 26.7394V33.2434H164.572V22.086H167.198V24.1483C167.611 23.4432 168.223 22.8968 169.015 22.4914C169.806 22.1036 170.705 21.8921 171.694 21.8921C172.395 21.8921 172.971 22.0155 173.421 22.2799C173.87 22.5266 174.212 22.8616 174.463 23.2846C174.715 23.69 174.878 24.1658 174.968 24.6947C175.057 25.2235 175.111 25.7523 175.111 26.281V33.2258H172.234Z" fill="#100102"/>
<path d="M179.846 33.5117C179.198 33.1936 178.66 32.7632 178.179 32.2206C177.715 31.6779 177.345 31.0418 177.103 30.312C176.844 29.5823 176.733 28.8152 176.733 28.0106C176.733 27.1499 176.862 26.364 177.14 25.6156C177.4 24.8858 177.789 24.231 178.253 23.6696C178.735 23.1083 179.309 22.6779 179.977 22.3598C180.644 22.0418 181.385 21.8921 182.183 21.8921C183.091 21.8921 183.888 22.0979 184.574 22.5095C185.259 22.9212 185.816 23.4825 186.279 24.1748V22.0979H188.893V33.3433C188.893 34.2227 188.726 34.9898 188.393 35.6821C188.059 36.3744 187.614 36.9544 187.039 37.4409C186.465 37.9274 185.779 38.283 184.981 38.5449C184.184 38.8068 183.313 38.9191 182.386 38.9191C181.107 38.9191 180.032 38.7133 179.161 38.283C178.29 37.8526 177.548 37.2539 176.918 36.468L178.549 34.8588C178.994 35.4201 179.551 35.8505 180.236 36.1686C180.922 36.4867 181.627 36.6364 182.386 36.6364C182.85 36.6364 183.295 36.5803 183.721 36.4492C184.147 36.3183 184.519 36.1311 184.852 35.8505C185.186 35.5885 185.445 35.233 185.631 34.8214C185.816 34.4098 185.909 33.9046 185.909 33.3245V31.8276C185.519 32.5012 184.981 33.0252 184.277 33.3994C183.573 33.7735 182.831 33.9607 182.016 33.9607C181.2 33.9794 180.477 33.8297 179.846 33.5117ZM183.925 31.416C184.222 31.3037 184.5 31.1728 184.759 30.9857C185.019 30.7985 185.241 30.5927 185.426 30.3495C185.612 30.1063 185.76 29.8443 185.872 29.5823V26.757C185.612 26.0647 185.186 25.5033 184.611 25.0917C184.036 24.6801 183.443 24.4555 182.813 24.4555C182.349 24.4555 181.941 24.549 181.571 24.7549C181.2 24.9607 180.885 25.2227 180.607 25.5595C180.347 25.8963 180.125 26.2892 179.995 26.7195C179.846 27.1499 179.791 27.599 179.791 28.0667C179.791 28.5532 179.865 29.0023 180.032 29.4139C180.199 29.8256 180.421 30.1998 180.718 30.5179C181.015 30.836 181.349 31.0792 181.738 31.2663C182.127 31.4534 182.553 31.5283 183.017 31.5283C183.313 31.5657 183.628 31.5283 183.925 31.416Z" fill="#100102"/>
</svg>
