<svg width="16" height="16" viewBox="0 0 16 16" fill="none" xmlns="http://www.w3.org/2000/svg">
<path d="M14.5 13.3332C14.5 13.4658 14.4473 13.593 14.3535 13.6867C14.2598 13.7805 14.1326 13.8332 14 13.8332H2.99997C2.7983 13.852 2.59495 13.8261 2.40442 13.7574C2.21389 13.6886 2.04085 13.5787 1.89763 13.4355C1.7544 13.2923 1.64451 13.1193 1.57578 12.9287C1.50705 12.7382 1.48116 12.5348 1.49997 12.3332V2.6665C1.49997 2.5339 1.55265 2.40672 1.64642 2.31295C1.74019 2.21918 1.86736 2.1665 1.99997 2.1665C2.13258 2.1665 2.25976 2.21918 2.35353 2.31295C2.44729 2.40672 2.49997 2.5339 2.49997 2.6665V12.3332C2.49997 12.7258 2.60731 12.8332 2.99997 12.8332H14C14.1326 12.8332 14.2598 12.8858 14.3535 12.9796C14.4473 13.0734 14.5 13.2006 14.5 13.3332ZM4.66664 9.83317C4.73231 9.83333 4.79736 9.82045 4.85801 9.79527C4.91867 9.7701 4.97372 9.73312 5.01997 9.6865L7.21997 7.48984C7.25121 7.45869 7.29353 7.44121 7.33764 7.44121C7.38175 7.44121 7.42406 7.45869 7.45531 7.48984L8.52597 8.5565C8.74547 8.77377 9.04209 8.89525 9.35094 8.89438C9.65978 8.8935 9.9557 8.77034 10.174 8.55184L12.8333 5.8765V6.6665C12.8333 6.79911 12.886 6.92629 12.9798 7.02006C13.0735 7.11383 13.2007 7.1665 13.3333 7.1665C13.4659 7.1665 13.5931 7.11383 13.6869 7.02006C13.7806 6.92629 13.8333 6.79911 13.8333 6.6665V4.6665C13.8323 4.53411 13.7797 4.40734 13.6866 4.31317C13.682 4.30784 13.6753 4.3065 13.6706 4.30184C13.6279 4.26166 13.5785 4.22918 13.5246 4.20584C13.4709 4.18466 13.4138 4.17315 13.356 4.17184C13.3485 4.16965 13.341 4.16787 13.3333 4.1665H11.3333C11.2007 4.1665 11.0735 4.21918 10.9798 4.31295C10.886 4.40672 10.8333 4.5339 10.8333 4.6665C10.8333 4.79911 10.886 4.92629 10.9798 5.02006C11.0735 5.11383 11.2007 5.1665 11.3333 5.1665H12.1293L9.46264 7.8425C9.43112 7.87337 9.38876 7.89065 9.34464 7.89065C9.30052 7.89065 9.25816 7.87337 9.22664 7.8425L8.15997 6.77584C7.94086 6.55864 7.64483 6.43678 7.33631 6.43678C7.02779 6.43678 6.73175 6.55864 6.51264 6.77584L4.31264 8.97584C4.24137 9.04558 4.19259 9.13504 4.17255 9.23272C4.15251 9.33041 4.16214 9.43185 4.2002 9.52402C4.23826 9.61618 4.303 9.69487 4.38612 9.74996C4.46924 9.80505 4.56693 9.83403 4.66664 9.83317Z" fill="#F8FEFF"/>
</svg>
