<svg width="16" height="16" viewBox="0 0 16 16" fill="none" xmlns="http://www.w3.org/2000/svg">
<g clip-path="url(#clip0_4382_1473)">
<path d="M15.5312 0H13.6562C13.3974 0 13.1875 0.209875 13.1875 0.46875V0.9375H9.32563C9.13213 0.391937 8.61109 0 8 0C7.38891 0 6.86788 0.391937 6.67438 0.9375H2.8125V0.46875C2.8125 0.209875 2.60262 0 2.34375 0H0.46875C0.209875 0 0 0.209875 0 0.46875V2.34375C0 2.60262 0.209875 2.8125 0.46875 2.8125H2.34375C2.60262 2.8125 2.8125 2.60262 2.8125 2.34375V1.86875H4.76178C3.07066 2.93981 2.04266 4.74922 1.919 6.67006C1.36681 6.85994 0.96875 7.38419 0.96875 8C0.96875 8.77541 1.59959 9.40625 2.375 9.40625C3.15041 9.40625 3.78125 8.77541 3.78125 8C3.78125 7.39437 3.39641 6.87694 2.85844 6.67938C3.02488 4.47166 4.61462 2.57019 6.7405 2.03069C6.97094 2.49356 7.44878 2.8125 8 2.8125C8.55122 2.8125 9.02906 2.49356 9.2595 2.03072C11.3854 2.57022 12.9751 4.47169 13.1416 6.67941C12.6036 6.87694 12.2188 7.39437 12.2188 8C12.2188 8.77541 12.8496 9.40625 13.625 9.40625C14.4004 9.40625 15.0312 8.77541 15.0312 8C15.0312 7.38419 14.6332 6.85994 14.081 6.67006C13.9571 4.74538 12.926 2.94397 11.2382 1.875H13.1875V2.34375C13.1875 2.60262 13.3974 2.8125 13.6562 2.8125H15.5312C15.7901 2.8125 16 2.60262 16 2.34375V0.46875C16 0.209875 15.7901 0 15.5312 0ZM1.875 1.875H0.9375V0.9375H1.875V1.875ZM2.375 8.46875C2.11653 8.46875 1.90625 8.25847 1.90625 8C1.90625 7.74153 2.11653 7.53125 2.375 7.53125C2.63347 7.53125 2.84375 7.74153 2.84375 8C2.84375 8.25847 2.63347 8.46875 2.375 8.46875ZM8 1.875C7.74153 1.875 7.53125 1.66472 7.53125 1.40625C7.53125 1.14778 7.74153 0.9375 8 0.9375C8.25847 0.9375 8.46875 1.14778 8.46875 1.40625C8.46875 1.66472 8.25847 1.875 8 1.875ZM13.625 7.53125C13.8835 7.53125 14.0938 7.74153 14.0938 8C14.0938 8.25847 13.8835 8.46875 13.625 8.46875C13.3665 8.46875 13.1562 8.25847 13.1562 8C13.1562 7.74153 13.3665 7.53125 13.625 7.53125ZM15.0625 1.875H14.125V0.9375H15.0625V1.875Z" fill="#F8FEFF"/>
<path d="M12.14 9.61513L8.38999 3.99017L8.38958 3.98957C8.38824 3.98757 8.38677 3.98567 8.38539 3.9837C8.37897 3.97441 8.3722 3.96536 8.36511 3.95657C8.16758 3.71113 7.79146 3.7277 7.61458 3.9837C7.61321 3.98567 7.61174 3.98757 7.61039 3.98957L7.60999 3.99017L3.85999 9.61516C3.79987 9.70533 3.77285 9.81353 3.78353 9.92137C3.79421 10.0292 3.84192 10.13 3.91855 10.2066C4.85377 11.1419 5.44902 12.3644 5.61117 13.6723C5.53763 13.7315 5.46761 13.7949 5.40149 13.8623C4.96121 14.3127 4.71874 14.9055 4.71874 15.5314C4.71874 15.7903 4.92861 16.0002 5.18749 16.0002H10.8125C11.0714 16.0002 11.2812 15.7903 11.2812 15.5314C11.2812 14.9055 11.0388 14.3127 10.5985 13.8623C10.5324 13.7949 10.4624 13.7315 10.3888 13.6723C10.5509 12.3643 11.1462 11.1418 12.0814 10.2066C12.158 10.13 12.2057 10.0292 12.2164 9.92136C12.2271 9.81352 12.2001 9.7053 12.14 9.61513ZM7.99999 9.40641C8.25846 9.40641 8.46874 9.6167 8.46874 9.87516C8.46874 10.1336 8.25846 10.3439 7.99999 10.3439C7.74152 10.3439 7.53124 10.1336 7.53124 9.87516C7.53124 9.6167 7.74152 9.40641 7.99999 9.40641ZM5.73617 15.0627C5.93121 14.5054 6.45989 14.0939 7.06249 14.0939H8.93749C9.54008 14.0939 10.0688 14.5054 10.2638 15.0627H5.73617ZM9.50764 13.2278C9.32131 13.1803 9.12977 13.1563 8.93749 13.1564H7.06249C6.86783 13.1564 6.67671 13.1807 6.49233 13.2278C6.27296 11.9644 5.70324 10.7834 4.84702 9.8247L7.53124 5.79835V8.54957C6.98564 8.74307 6.59374 9.2641 6.59374 9.8752C6.59374 10.6506 7.22458 11.2814 7.99999 11.2814C8.77539 11.2814 9.40624 10.6506 9.40624 9.8752C9.40624 9.2641 9.01433 8.74307 8.46874 8.54957V5.79835L11.153 9.8247C10.2967 10.7833 9.72699 11.9643 9.50764 13.2278Z" fill="#F8FEFF"/>
</g>
<defs>
<clipPath id="clip0_4382_1473">
<rect width="16" height="16" fill="white"/>
</clipPath>
</defs>
</svg>
