<svg width="16" height="16" viewBox="0 0 16 16" fill="none" xmlns="http://www.w3.org/2000/svg">
<path d="M15.5467 10.9124C15.3942 10.4996 14.9368 10.2865 14.524 10.4392L8.0056 12.8292L1.4872 10.4392C1.47716 10.4368 1.46743 10.4333 1.45824 10.4286C1.25809 10.3599 1.03887 10.3734 0.848636 10.4661C0.658401 10.5588 0.512664 10.7231 0.44336 10.923C0.30128 11.3384 0.51952 11.7932 0.93776 11.9352L7.72944 14.4305C7.90674 14.4963 8.10174 14.4963 8.27904 14.4305L15.0709 11.9352C15.4862 11.7854 15.6966 11.3252 15.5467 10.9124ZM15.5467 7.72285C15.3942 7.31005 14.9368 7.09725 14.524 7.24957L8.0056 9.64236L1.4872 7.24957C1.47664 7.24701 1.4688 7.24428 1.45824 7.24156C1.25843 7.17238 1.03933 7.18531 0.849048 7.27753C0.658767 7.36974 0.512858 7.5337 0.44336 7.73341C0.374691 7.93356 0.388169 8.15277 0.480842 8.34301C0.573515 8.53324 0.737824 8.67898 0.93776 8.74828L7.72944 11.2411C7.90674 11.3068 8.10174 11.3068 8.27904 11.2411L15.0709 8.74828C15.2698 8.67523 15.4317 8.52622 15.5209 8.33398C15.6101 8.14173 15.6194 7.92194 15.5467 7.72285ZM15.0736 4.06013L8.2816 1.56733C8.103 1.50425 7.90819 1.50425 7.7296 1.56733L0.9376 4.06013C0.78412 4.11605 0.651695 4.21807 0.558484 4.35222C0.465273 4.48636 0.415839 4.64606 0.41696 4.80941C0.415806 4.97278 0.465224 5.13251 0.558438 5.26669C0.651651 5.40086 0.784094 5.50292 0.9376 5.55885L7.7296 8.05165C7.90819 8.11472 8.103 8.11472 8.2816 8.05165L15.0736 5.55885C15.1834 5.51952 15.2832 5.45648 15.3659 5.37421C15.4486 5.29194 15.5121 5.19246 15.552 5.08284C15.5878 4.98429 15.6039 4.87963 15.5993 4.77486C15.5946 4.67009 15.5693 4.56726 15.5249 4.47227C15.4805 4.37727 15.4177 4.29197 15.3403 4.22125C15.2629 4.15053 15.1722 4.09578 15.0736 4.06013ZM0.9376 5.55885L7.7296 8.05165C7.90819 8.11472 8.103 8.11472 8.2816 8.05165L15.0736 5.55885C15.1834 5.51952 15.2832 5.45648 15.3659 5.37421C15.4486 5.29194 15.5121 5.19246 15.552 5.08284C15.5878 4.98429 15.6039 4.87963 15.5993 4.77486C15.5946 4.67009 15.5693 4.56726 15.5249 4.47227C15.4805 4.37727 15.4177 4.29197 15.3403 4.22125C15.2629 4.15053 15.1722 4.09578 15.0736 4.06013L8.2816 1.56733C8.103 1.50425 7.90819 1.50425 7.7296 1.56733L0.9376 4.06013C0.78412 4.11605 0.651695 4.21807 0.558484 4.35222C0.465273 4.48636 0.415839 4.64606 0.41696 4.80941C0.415806 4.97278 0.465224 5.13251 0.558438 5.26669C0.651651 5.40086 0.784094 5.50292 0.9376 5.55885ZM14.524 7.24957L8.0056 9.64236L1.4872 7.24957C1.47664 7.24701 1.4688 7.24428 1.45824 7.24156C1.25843 7.17238 1.03933 7.18531 0.849048 7.27753C0.658767 7.36974 0.512858 7.5337 0.44336 7.73341C0.374691 7.93356 0.388169 8.15277 0.480842 8.34301C0.573515 8.53324 0.737824 8.67898 0.93776 8.74828L7.72944 11.2411C7.90674 11.3068 8.10174 11.3068 8.27904 11.2411L15.0709 8.74828C15.2698 8.67523 15.4317 8.52622 15.5209 8.33398C15.6101 8.14173 15.6194 7.92194 15.5467 7.72285C15.3942 7.31005 14.9368 7.09725 14.524 7.24957ZM14.524 10.4392L8.0056 12.8292L1.4872 10.4392C1.47716 10.4368 1.46743 10.4333 1.45824 10.4286C1.25809 10.3599 1.03887 10.3734 0.848636 10.4661C0.658401 10.5588 0.512664 10.7231 0.44336 10.923C0.30128 11.3384 0.51952 11.7932 0.93776 11.9352L7.72944 14.4305C7.90674 14.4963 8.10174 14.4963 8.27904 14.4305L15.0709 11.9352C15.4862 11.7854 15.6966 11.3252 15.5467 10.9124C15.3942 10.4996 14.9368 10.2865 14.524 10.4392ZM0.9376 5.55885L7.7296 8.05165C7.90819 8.11472 8.103 8.11472 8.2816 8.05165L15.0736 5.55885C15.1834 5.51952 15.2832 5.45648 15.3659 5.37421C15.4486 5.29194 15.5121 5.19246 15.552 5.08284C15.5878 4.98429 15.6039 4.87963 15.5993 4.77486C15.5946 4.67009 15.5693 4.56726 15.5249 4.47227C15.4805 4.37727 15.4177 4.29197 15.3403 4.22125C15.2629 4.15053 15.1722 4.09578 15.0736 4.06013L8.2816 1.56733C8.103 1.50425 7.90819 1.50425 7.7296 1.56733L0.9376 4.06013C0.78412 4.11605 0.651695 4.21807 0.558484 4.35222C0.465273 4.48636 0.415839 4.64606 0.41696 4.80941C0.415806 4.97278 0.465224 5.13251 0.558438 5.26669C0.651651 5.40086 0.784094 5.50292 0.9376 5.55885ZM14.524 7.24957L8.0056 9.64236L1.4872 7.24957C1.47664 7.24701 1.4688 7.24428 1.45824 7.24156C1.25843 7.17238 1.03933 7.18531 0.849048 7.27753C0.658767 7.36974 0.512858 7.5337 0.44336 7.73341C0.374691 7.93356 0.388169 8.15277 0.480842 8.34301C0.573515 8.53324 0.737824 8.67898 0.93776 8.74828L7.72944 11.2411C7.90674 11.3068 8.10174 11.3068 8.27904 11.2411L15.0709 8.74828C15.2698 8.67523 15.4317 8.52622 15.5209 8.33398C15.6101 8.14173 15.6194 7.92194 15.5467 7.72285C15.3942 7.31005 14.9368 7.09725 14.524 7.24957ZM14.524 10.4392L8.0056 12.8292L1.4872 10.4392C1.47716 10.4368 1.46743 10.4333 1.45824 10.4286C1.25809 10.3599 1.03887 10.3734 0.848636 10.4661C0.658401 10.5588 0.512664 10.7231 0.44336 10.923C0.30128 11.3384 0.51952 11.7932 0.93776 11.9352L7.72944 14.4305C7.90674 14.4963 8.10174 14.4963 8.27904 14.4305L15.0709 11.9352C15.4862 11.7854 15.6966 11.3252 15.5467 10.9124C15.3942 10.4996 14.9368 10.2865 14.524 10.4392Z" fill="#F8FEFF"/>
</svg>
