<svg width="240" height="240" viewBox="0 0 240 240" fill="none" xmlns="http://www.w3.org/2000/svg">
<path fill-rule="evenodd" clip-rule="evenodd" d="M120.604 122.288C129.288 150.831 155.819 171.6 187.201 171.6C205.422 171.6 222.008 164.598 234.414 153.138C235.78 151.877 238.035 152.46 238.425 154.278C239.457 159.089 240.001 164.081 240.001 169.2C240.001 208.302 208.302 240 169.201 240C130.099 240 98.4007 208.302 98.4007 169.2C98.4007 150.385 105.74 133.284 117.712 120.604C89.1695 129.288 68.4003 155.819 68.4003 187.201C68.4003 205.422 75.4022 222.008 86.8622 234.414C88.1239 235.78 87.5405 238.035 85.7226 238.425C80.9117 239.457 75.9195 240.001 70.8004 240.001C31.6987 240.001 0.000421131 208.302 0.000417713 169.201C0.000414294 130.099 31.6986 98.4007 70.8004 98.4007C89.6156 98.4007 106.717 105.74 119.397 117.712C110.713 89.1695 84.1817 68.4003 52.8 68.4003C34.5788 68.4003 17.993 75.4022 5.58651 86.8622C4.22069 88.1239 1.96538 87.5405 1.57536 85.7226C0.543292 80.9117 0 75.9195 0 70.8004C-3.96469e-06 31.6987 31.6982 0.000417376 70.8 0.000415667C109.902 0.000413958 141.6 31.6986 141.6 70.8004C141.6 89.6156 134.261 106.717 122.288 119.397C150.831 110.713 171.6 84.1817 171.6 52.8C171.6 34.5788 164.598 17.993 153.138 5.58652C151.877 4.2207 152.46 1.96538 154.278 1.57536C159.089 0.543293 164.081 0 169.2 0C208.302 0 240 31.6982 240 70.8C240 109.902 208.302 141.6 169.2 141.6C150.385 141.6 133.284 134.26 120.604 122.288Z" fill="#F74251"/>
<path fill-rule="evenodd" clip-rule="evenodd" d="M120.604 122.288C129.288 150.831 155.819 171.6 187.201 171.6C205.422 171.6 222.008 164.598 234.414 153.138C235.78 151.877 238.035 152.46 238.425 154.278C239.457 159.089 240.001 164.081 240.001 169.2C240.001 208.302 208.302 240 169.201 240C130.099 240 98.4007 208.302 98.4007 169.2C98.4007 150.385 105.74 133.284 117.712 120.604C89.1695 129.288 68.4003 155.819 68.4003 187.201C68.4003 205.422 75.4022 222.008 86.8622 234.414C88.1239 235.78 87.5405 238.035 85.7226 238.425C80.9117 239.457 75.9195 240.001 70.8004 240.001C31.6987 240.001 0.000421131 208.302 0.000417713 169.201C0.000414294 130.099 31.6986 98.4007 70.8004 98.4007C89.6156 98.4007 106.717 105.74 119.397 117.712C110.713 89.1695 84.1817 68.4003 52.8 68.4003C34.5788 68.4003 17.993 75.4022 5.58651 86.8622C4.22069 88.1239 1.96538 87.5405 1.57536 85.7226C0.543292 80.9117 0 75.9195 0 70.8004C-3.96469e-06 31.6987 31.6982 0.000417376 70.8 0.000415667C109.902 0.000413958 141.6 31.6986 141.6 70.8004C141.6 89.6156 134.261 106.717 122.288 119.397C150.831 110.713 171.6 84.1817 171.6 52.8C171.6 34.5788 164.598 17.993 153.138 5.58652C151.877 4.2207 152.46 1.96538 154.278 1.57536C159.089 0.543293 164.081 0 169.2 0C208.302 0 240 31.6982 240 70.8C240 109.902 208.302 141.6 169.2 141.6C150.385 141.6 133.284 134.26 120.604 122.288Z" fill="url(#paint0_linear_3383_40933)"/>
<defs>
<linearGradient id="paint0_linear_3383_40933" x1="120" y1="0" x2="120" y2="240.001" gradientUnits="userSpaceOnUse">
<stop stop-color="#E13847"/>
<stop offset="1" stop-color="#EB5665"/>
</linearGradient>
</defs>
</svg>
