<svg width="200" height="100" viewBox="0 0 200 100" fill="none" xmlns="http://www.w3.org/2000/svg">
<path d="M0 0C-2.41411e-06 55.2285 44.7715 100 100 100C44.7715 100 0 144.772 0 200C55.2285 200 100 155.228 100 100C100 155.228 144.772 200 200 200C200 144.78 155.242 100.013 100.024 100C155.242 99.987 200 55.2204 200 4.37114e-06C144.772 4.37114e-06 100 44.7715 100 100C100 44.7715 55.2285 2.41411e-06 0 0Z" fill="#4251F7"/>
<path d="M0 0C-2.41411e-06 55.2285 44.7715 100 100 100C44.7715 100 0 144.772 0 200C55.2285 200 100 155.228 100 100C100 155.228 144.772 200 200 200C200 144.78 155.242 100.013 100.024 100C155.242 99.987 200 55.2204 200 4.37114e-06C144.772 4.37114e-06 100 44.7715 100 100C100 44.7715 55.2285 2.41411e-06 0 0Z" fill="url(#paint0_linear_3151_3801)"/>
<defs>
<linearGradient id="paint0_linear_3151_3801" x1="100" y1="0" x2="100" y2="200" gradientUnits="userSpaceOnUse">
<stop stop-color="#4251C3"/>
<stop offset="1" stop-color="#7483F5"/>
</linearGradient>
</defs>
</svg>
