<svg width="200" height="100" viewBox="0 0 200 100" fill="none" xmlns="http://www.w3.org/2000/svg">
<path fill-rule="evenodd" clip-rule="evenodd" d="M100.503 101.907C107.74 125.693 129.849 143 156.001 143C171.185 143 185.006 137.165 195.345 127.615C196.483 126.564 198.363 127.05 198.688 128.565C199.548 132.574 200.001 136.734 200.001 141C200.001 173.585 173.585 200 141.001 200C108.416 200 82.0006 173.585 82.0006 141C82.0006 125.321 88.1168 111.07 98.0936 100.503C74.308 107.74 57.0003 129.849 57.0003 156.001C57.0003 171.185 62.8352 185.006 72.3852 195.345C73.4366 196.483 72.9505 198.363 71.4355 198.688C67.4265 199.548 63.2663 200.001 59.0004 200.001C26.4156 200.001 0.000350943 173.585 0.000348094 141.001C0.000345245 108.416 26.4156 82.0006 59.0003 82.0006C74.6797 82.0006 88.9306 88.1168 99.4973 98.0936C92.2605 74.308 70.1515 57.0002 44 57.0002C28.8157 57.0002 14.9942 62.8352 4.65543 72.3852C3.51725 73.4366 1.63781 72.9505 1.3128 71.4355C0.452743 67.4265 0 63.2663 0 59.0004C-3.30391e-06 26.4156 26.4152 0.000347814 59 0.000346389C91.5848 0.000344965 118 26.4156 118 59.0003C118 74.6797 111.884 88.9306 101.907 99.4973C125.693 92.2605 143 70.1515 143 44C143 28.8157 137.165 14.9942 127.615 4.65543C126.564 3.51725 127.05 1.63782 128.565 1.3128C132.574 0.452744 136.734 0 141 0C173.585 0 200 26.4152 200 59C200 91.5848 173.585 118 141 118C125.321 118 111.07 111.884 100.503 101.907Z" fill="#F74251"/>
<path fill-rule="evenodd" clip-rule="evenodd" d="M100.503 101.907C107.74 125.693 129.849 143 156.001 143C171.185 143 185.006 137.165 195.345 127.615C196.483 126.564 198.363 127.05 198.688 128.565C199.548 132.574 200.001 136.734 200.001 141C200.001 173.585 173.585 200 141.001 200C108.416 200 82.0006 173.585 82.0006 141C82.0006 125.321 88.1168 111.07 98.0936 100.503C74.308 107.74 57.0003 129.849 57.0003 156.001C57.0003 171.185 62.8352 185.006 72.3852 195.345C73.4366 196.483 72.9505 198.363 71.4355 198.688C67.4265 199.548 63.2663 200.001 59.0004 200.001C26.4156 200.001 0.000350943 173.585 0.000348094 141.001C0.000345245 108.416 26.4156 82.0006 59.0003 82.0006C74.6797 82.0006 88.9306 88.1168 99.4973 98.0936C92.2605 74.308 70.1515 57.0002 44 57.0002C28.8157 57.0002 14.9942 62.8352 4.65543 72.3852C3.51725 73.4366 1.63781 72.9505 1.3128 71.4355C0.452743 67.4265 0 63.2663 0 59.0004C-3.30391e-06 26.4156 26.4152 0.000347814 59 0.000346389C91.5848 0.000344965 118 26.4156 118 59.0003C118 74.6797 111.884 88.9306 101.907 99.4973C125.693 92.2605 143 70.1515 143 44C143 28.8157 137.165 14.9942 127.615 4.65543C126.564 3.51725 127.05 1.63782 128.565 1.3128C132.574 0.452744 136.734 0 141 0C173.585 0 200 26.4152 200 59C200 91.5848 173.585 118 141 118C125.321 118 111.07 111.884 100.503 101.907Z" fill="url(#paint0_linear_3151_2340)"/>
<defs>
<linearGradient id="paint0_linear_3151_2340" x1="100" y1="0" x2="100" y2="200.001" gradientUnits="userSpaceOnUse">
<stop stop-color="#E13847"/>
<stop offset="1" stop-color="#EB5665"/>
</linearGradient>
</defs>
</svg>
