<svg width="32" height="32" viewBox="0 0 32 32" fill="none" xmlns="http://www.w3.org/2000/svg">
<rect width="32" height="32" rx="16" fill="#F8FEFF"/>
<path d="M5.4965 20.1924C5.01678 20.1924 4.58927 20.1093 4.21398 19.943C3.83869 19.7734 3.54172 19.5239 3.32308 19.1945C3.10769 18.8619 3 18.4477 3 17.952C3 17.5346 3.07669 17.184 3.23007 16.9003C3.38345 16.6165 3.59231 16.3883 3.85664 16.2154C4.12098 16.0426 4.42121 15.9121 4.75734 15.8241C5.09673 15.736 5.45244 15.6741 5.82447 15.6382C6.26177 15.5925 6.61421 15.5501 6.88181 15.511C7.14941 15.4686 7.34358 15.4066 7.46433 15.3251C7.58507 15.2436 7.64545 15.1229 7.64545 14.9631V14.9338C7.64545 14.624 7.54755 14.3843 7.35174 14.2147C7.1592 14.0451 6.88508 13.9603 6.52936 13.9603C6.15407 13.9603 5.85547 14.0435 5.63356 14.2098C5.41165 14.3728 5.2648 14.5783 5.193 14.8262L3.26434 14.6696C3.36224 14.2131 3.55478 13.8184 3.84196 13.4858C4.12914 13.1499 4.49953 12.8923 4.95314 12.7129C5.41002 12.5303 5.93869 12.439 6.53916 12.439C6.95687 12.439 7.35664 12.4879 7.73845 12.5857C8.12353 12.6836 8.46456 12.8352 8.76153 13.0407C9.06176 13.2461 9.29836 13.5103 9.47132 13.8331C9.64428 14.1527 9.73076 14.5359 9.73076 14.9827V20.0506H7.75314V19.0086H7.6944C7.57365 19.2434 7.41211 19.4505 7.20978 19.6299C7.00745 19.806 6.76433 19.9446 6.48041 20.0457C6.1965 20.1435 5.86853 20.1924 5.4965 20.1924ZM6.0937 18.7543C6.40046 18.7543 6.67132 18.6939 6.90629 18.5733C7.14125 18.4493 7.32563 18.283 7.45943 18.0743C7.59323 17.8656 7.66013 17.6291 7.66013 17.365V16.5676C7.59486 16.61 7.50512 16.6492 7.3909 16.685C7.27995 16.7176 7.15431 16.7486 7.01398 16.778C6.87365 16.8041 6.73333 16.8285 6.593 16.8514C6.45267 16.8709 6.3254 16.8889 6.21118 16.9052C5.96643 16.941 5.75268 16.9981 5.56993 17.0764C5.38718 17.1546 5.24522 17.2606 5.14405 17.3943C5.04289 17.5248 4.9923 17.6878 4.9923 17.8835C4.9923 18.1672 5.0951 18.3841 5.3007 18.5341C5.50955 18.6809 5.77389 18.7543 6.0937 18.7543Z" fill="#F74251"/>
<path d="M24.7215 20.1407C24.1504 20.1407 23.6332 19.9939 23.1698 19.7004C22.7096 19.4036 22.3441 18.9683 22.0733 18.3943C21.8057 17.8171 21.6719 17.1094 21.6719 16.2713C21.6719 15.4103 21.8106 14.6945 22.088 14.1238C22.3653 13.5498 22.7341 13.121 23.1943 12.8372C23.6577 12.5502 24.1651 12.4068 24.7166 12.4068C25.1376 12.4068 25.4884 12.4785 25.7691 12.622C26.053 12.7622 26.2814 12.9383 26.4544 13.1503C26.6306 13.359 26.7644 13.5645 26.8558 13.7667H26.9194V10H28.9998V20.0184H26.9439V18.815H26.8558C26.7579 19.0237 26.6192 19.2308 26.4397 19.4362C26.2635 19.6384 26.0334 19.8064 25.7495 19.9401C25.4688 20.0738 25.1262 20.1407 24.7215 20.1407ZM25.3824 18.4823C25.7185 18.4823 26.0024 18.391 26.2341 18.2084C26.4691 18.0225 26.6486 17.7633 26.7726 17.4306C26.8998 17.098 26.9635 16.7083 26.9635 16.2615C26.9635 15.8147 26.9015 15.4266 26.7775 15.0972C26.6535 14.7679 26.474 14.5135 26.239 14.3341C26.004 14.1548 25.7185 14.0651 25.3824 14.0651C25.0397 14.0651 24.7509 14.158 24.5159 14.3439C24.281 14.5298 24.1031 14.7874 23.9824 15.1168C23.8616 15.4462 23.8012 15.8277 23.8012 16.2615C23.8012 16.6985 23.8616 17.0849 23.9824 17.4208C24.1064 17.7535 24.2842 18.0144 24.5159 18.2035C24.7509 18.3894 25.0397 18.4823 25.3824 18.4823Z" fill="#F74251"/>
<path d="M10.2935 20.0506V12.5368H12.2809V13.8625H12.369C12.5256 13.4222 12.7867 13.0749 13.1522 12.8205C13.5177 12.5662 13.955 12.439 14.4641 12.439C14.9797 12.439 15.4186 12.5678 15.7809 12.8254C16.1431 13.0798 16.3846 13.4255 16.5053 13.8625H16.5837C16.737 13.432 17.0144 13.0879 17.4158 12.8303C17.8205 12.5694 18.2986 12.439 18.8501 12.439C19.5517 12.439 20.1212 12.6624 20.5585 13.1091C20.999 13.5527 21.2193 14.1821 21.2193 14.9974V20.0506H19.1389V15.4083C19.1389 14.9908 19.0279 14.6778 18.806 14.4691C18.5841 14.2603 18.3067 14.156 17.9739 14.156C17.5953 14.156 17.3 14.2766 17.0879 14.518C16.8757 14.756 16.7697 15.0707 16.7697 15.4621V20.0506H14.748V15.3642C14.748 14.9957 14.6419 14.7022 14.4298 14.4837C14.221 14.2652 13.9452 14.156 13.6025 14.156C13.3708 14.156 13.162 14.2147 12.976 14.3321C12.7932 14.4462 12.648 14.6077 12.5403 14.8164C12.4326 15.0218 12.3788 15.2632 12.3788 15.5404V20.0506H10.2935Z" fill="#F74251"/>
</svg>
