<svg width="373" height="239" viewBox="0 0 373 239" fill="none" xmlns="http://www.w3.org/2000/svg">
<g clip-path="url(#clip0_3828_5412)">
<path fill-rule="evenodd" clip-rule="evenodd" d="M75.7947 208.417C74.4004 208.425 73.0399 208.852 71.8848 209.643C70.73 210.433 69.8321 211.553 69.3053 212.86C68.7785 214.167 68.6458 215.603 68.9246 216.987C69.2034 218.37 69.8806 219.639 70.8712 220.633C71.8613 221.626 73.1203 222.3 74.4889 222.569C75.8574 222.839 77.2741 222.691 78.56 222.146C79.8458 221.6 80.9429 220.68 81.7131 219.503C82.483 218.326 82.891 216.944 82.886 215.532C82.886 213.639 82.1431 211.822 80.8206 210.483C79.4982 209.143 77.7044 208.391 75.834 208.391L75.7947 208.417ZM362.779 203.181C364.756 203.241 366.697 203.74 368.466 204.645C370.231 205.55 371.781 206.838 373 208.417V195.76C369.478 193.444 365.359 192.23 361.16 192.269C349.463 192.269 339.307 200.743 339.307 215.319C339.307 229.296 348.517 238.397 361.345 238.397C365.459 238.562 369.524 237.426 372.973 235.145V222.741C371.669 224.182 370.093 225.344 368.336 226.159C366.582 226.974 364.682 227.424 362.752 227.484C355.857 227.484 351.739 222.315 351.739 215.706C351.739 208.537 356.107 203.181 362.752 203.181H362.779ZM340.649 193.521L324.283 214.64L341.083 237.144H326.006L313.505 218.384V237.144H301.453V193.521H313.505V211.842L326.506 193.521H340.649ZM265.827 219.69V193.521H254.197V237.144H266.037L282.72 210.962V237.144H294.35V193.521H282.509L265.827 219.69ZM230.87 213.148H227.437V203.115H230.87C236.041 203.115 236.778 205.913 236.778 208.098C236.778 209.963 236.225 213.148 230.87 213.148ZM233.501 193.521H215.346V237.144H227.423V222.741H233.501C245.698 222.741 249.197 214.147 249.197 208.084C249.197 202.022 245.75 193.508 233.501 193.508V193.521ZM179.415 203.981H188.888V237.144H200.952V203.981H210.504V193.521H179.428V203.981H179.415ZM146.037 219.69V193.521H134.407V237.144H146.248L162.917 210.962V237.144H174.547V193.521H162.706L146.037 219.69ZM110.093 228.417H104.936V219.25H110.093C113.922 219.25 116.133 220.383 116.133 223.807C116.133 227.231 113.857 228.417 110.093 228.417ZM111.278 210.523H104.936V203.981H124.671V193.521H92.8324V237.144H111.251C114.383 237.144 128.17 237.264 128.17 223.62C128.17 210.469 114.501 210.523 111.251 210.523H111.278ZM25.3525 215.319C25.3525 229.296 34.5621 238.397 47.3898 238.397C51.5059 238.563 55.5708 237.426 59.0201 235.145V222.741C57.7146 224.182 56.138 225.344 54.3822 226.159C52.6265 226.974 50.7276 227.424 48.7976 227.484C41.9033 227.484 37.7853 222.315 37.7853 215.706C37.7853 208.537 42.1536 203.181 48.7976 203.181C50.7764 203.241 52.7184 203.74 54.4849 204.645C56.2519 205.55 57.8 206.838 59.0201 208.417V195.76C55.4974 193.444 51.379 192.23 47.1791 192.269C35.4831 192.269 25.3263 200.743 25.3263 215.319H25.3525ZM0 203.541H6.57826V237.131H17.7217V193.521H0V203.541Z" fill="#1F1A17"/>
<path fill-rule="evenodd" clip-rule="evenodd" d="M188.437 0C183.675 0.00269175 178.927 0.525284 174.278 1.55776V65.4023C174.265 68.1752 175.063 70.8915 176.575 73.216C178.087 75.541 180.246 77.3725 182.787 78.485C185.327 79.5974 188.137 79.942 190.871 79.4767C193.605 79.0114 196.143 77.7563 198.172 75.8659C200.201 73.9755 201.633 71.5329 202.29 68.8389C202.947 66.1448 202.802 63.3177 201.871 60.7052C200.941 58.093 199.267 55.81 197.054 54.1377C194.842 52.4657 192.189 51.4775 189.421 51.2948V39.9295C194.436 40.1175 199.284 41.7775 203.361 44.7019C207.439 47.6263 210.565 51.6863 212.351 56.3753C214.137 61.0639 214.503 66.1748 213.404 71.0703C212.304 75.9659 209.789 80.4299 206.17 83.9054C202.551 87.3812 197.989 89.715 193.053 90.6163C188.116 91.5173 183.024 90.9458 178.41 88.9728C173.796 86.9997 169.866 83.7131 167.107 79.5217C164.349 75.3302 162.886 70.4197 162.899 65.4023V5.18431C161.279 5.88225 159.709 6.64248 158.163 7.45231V65.4146C158.169 71.3676 159.927 77.1871 163.219 82.1473C166.511 87.107 171.191 90.9882 176.675 93.3054C182.159 95.6226 188.204 96.2736 194.056 95.1777C199.907 94.0814 205.307 91.2866 209.58 87.1416C213.853 82.9967 216.811 77.6851 218.084 71.8698C219.357 66.0548 218.89 59.9934 216.74 54.4422C214.59 48.8911 210.853 44.0959 205.994 40.6551C201.136 37.2142 195.372 35.28 189.421 35.0939V23.7282C197.617 23.917 205.574 26.5195 212.297 31.2101C219.019 35.9003 224.208 42.4697 227.214 50.0954C230.219 57.7212 230.908 66.0644 229.193 74.0797C227.478 82.0946 223.436 89.4258 217.573 95.1546C211.71 100.883 204.287 104.755 196.234 106.284C188.18 107.814 179.854 106.933 172.299 103.752C164.745 100.572 158.296 95.233 153.761 88.4045C149.227 81.5759 146.809 73.5614 146.809 65.365V14.9673C134.939 24.7641 126.907 38.434 124.127 53.5705C121.347 68.707 123.997 84.3388 131.611 97.7133C139.225 111.088 151.314 121.347 165.75 126.685C180.185 132.022 196.042 132.096 210.526 126.892C225.011 121.689 237.194 111.542 244.932 98.2386C252.669 84.9356 255.465 69.3288 252.825 54.1673C250.186 39.0058 242.281 25.2617 230.502 15.3553C218.724 5.44888 203.828 0.015768 188.437 0.0123072V0Z" fill="#C92433"/>
</g>
<defs>
<clipPath id="clip0_3828_5412">
<rect width="373" height="238.412" fill="white"/>
</clipPath>
</defs>
</svg>
