<svg width="140" height="106" viewBox="0 0 140 106" fill="none" xmlns="http://www.w3.org/2000/svg">
<path d="M109.623 98H123.803V94.7464H114.458C115.746 89.4074 123.643 88.2395 123.643 82.3166C123.643 79.1466 121.548 76.8107 117.116 76.8107C114.377 76.8107 111.96 77.645 110.347 78.4791L111.315 81.4825C112.766 80.7316 114.458 80.0642 116.552 80.0642C118.163 80.0642 119.694 80.815 119.694 82.7337C119.694 87.0717 110.429 87.4053 109.623 98ZM124.207 92.8278H133.311V98H136.938V92.8278H140V89.6576H136.938V76.8107H134.279L124.207 90.3252V92.8278ZM128.316 89.8245L133.473 82.6503C133.473 83.2343 133.311 85.0696 133.311 86.7379V89.7412H130.894C130.17 89.7412 128.8 89.8245 128.316 89.8245Z" fill="#005893"/>
<path d="M3.87086 94.1927V87.8059H5.43552C6.83566 87.8059 7.98862 87.9675 8.81214 88.4525C9.6358 88.9377 10.1299 89.7462 10.1299 91.0397C10.1299 93.2225 8.81214 94.1927 5.68269 94.1927H3.87086ZM0.0823923 97.2647H5.6003C11.7771 97.2647 14.0006 94.5968 14.0006 90.8779C14.0006 88.3717 12.93 86.6739 11.0358 85.7038C9.55342 84.8954 7.65919 84.6527 5.35326 84.6527H3.87086V79.8021H12.1888L13.1771 76.8107H0V97.2647H0.0823923ZM16.5537 97.2647H20.1774L24.8717 90.6354C25.7776 89.4227 26.4364 88.21 26.8483 87.5631H26.9307C26.8483 88.4525 26.7659 89.5844 26.7659 90.7164V97.1839H30.472V82.6316H26.8483L22.1539 89.2611C21.3304 90.4737 20.5891 91.6864 20.1774 92.3331H20.095C20.1774 91.4439 20.2599 90.312 20.2599 89.1802V82.7125H16.5537V97.2647ZM36.8134 97.2647H40.6019V85.7038H45.049L46.0374 82.6316H32.2839V85.7038H36.8134V97.2647ZM47.355 104.622H51.061V97.2647C51.8023 97.5072 52.5434 97.5882 53.3671 97.5882C58.0614 97.5882 61.1086 94.4352 61.1086 89.9077C61.1086 85.2187 58.3084 82.2275 52.9553 82.2275C50.8964 82.2275 48.9197 82.6317 47.2727 83.1169V104.622H47.355ZM51.061 94.1118V85.5421C51.6376 85.3804 52.1317 85.2996 52.7906 85.2996C55.5083 85.2996 57.2379 86.7548 57.2379 89.9077C57.2379 92.7375 55.8377 94.516 53.0377 94.516C52.2964 94.516 51.7199 94.3543 51.061 94.1118ZM63.3323 97.2647H66.9559L71.6502 90.6354C72.5562 89.4227 73.215 88.21 73.6267 87.5631H73.709C73.6267 88.4525 73.5444 89.5844 73.5444 90.7164V97.1839H77.2504V82.6316H73.6267L68.9324 89.2611C68.1089 90.4737 67.3676 91.6864 66.9559 92.3331H66.8736C66.9559 91.4439 67.0382 90.312 67.0382 89.1802V82.7125H63.3323V97.2647ZM80.2153 97.2647H84.0037V91.2014H86.2273C86.6392 91.2014 87.0509 91.6056 87.545 92.5757L89.4393 97.2647H93.4746L90.7569 91.6864C90.2627 90.7164 89.7687 90.1504 89.0274 89.9077V89.827C90.2627 89.0993 90.4274 86.9973 91.1687 85.9464C91.4157 85.6229 91.7452 85.4613 92.2393 85.4613C92.4864 85.4613 92.8159 85.4613 93.0629 85.6229V82.47C92.6512 82.3083 91.91 82.2275 91.4982 82.2275C90.1804 82.2275 89.3569 82.7125 88.7804 83.521C87.545 85.2996 87.545 88.3718 85.7332 88.3718H84.0037V82.6316H80.2153V97.2647ZM101.875 97.5882C103.934 97.5882 105.828 96.9413 106.981 96.133L105.91 93.6268C104.84 94.1927 103.852 94.5968 102.452 94.5968C99.8985 94.5968 98.2514 92.98 98.2514 89.9887C98.2514 87.3206 99.8984 85.2187 102.699 85.2187C104.181 85.2187 105.252 85.6229 106.322 86.3506V83.1975C105.499 82.7125 104.181 82.2275 102.287 82.2275C97.8396 82.2275 94.3806 85.4613 94.3806 90.0695C94.3806 94.2734 97.016 97.5882 101.875 97.5882Z" fill="#0BBBEF"/>
<path fill-rule="evenodd" clip-rule="evenodd" d="M44.5744 8.04779C40.8881 12.0193 38.873 17.0094 38.876 22.1594C38.8756 22.7705 38.9033 23.3813 38.959 23.9904C34.4706 25.861 30.8334 29.0368 28.6478 32.9939C26.4621 36.9509 25.8588 41.4526 26.9373 45.7556C28.0157 50.0588 30.7114 53.9062 34.5797 56.6629C38.4478 59.4197 43.2571 60.9211 48.214 60.9189H94.9032C99.0335 60.9201 103.048 59.7035 106.318 57.4593C109.588 55.2151 111.929 52.0701 112.976 48.5162C114.022 44.9623 113.714 41.2003 112.101 37.8186C110.488 34.4368 107.659 31.6262 104.059 29.8264C104.428 27.7203 104.245 25.5668 103.524 23.5336C102.804 21.5007 101.566 19.6431 99.9052 18.1058C98.2452 16.5684 96.2084 15.3928 93.9534 14.6705C91.6987 13.9486 89.2868 13.6993 86.906 13.9425C84.7607 9.15889 80.8083 5.18976 75.7287 2.71791C70.649 0.246059 64.7595 -0.574095 59.0737 0.398755C53.3877 1.37147 48.2606 4.07627 44.5744 8.04779ZM52.8304 35.7568C52.8304 26.248 60.5171 18.5405 70.0001 18.5405C79.4831 18.5405 87.17 26.248 87.17 35.7568C87.17 45.2654 79.4831 52.9729 70.0001 52.9729C60.5171 52.9729 52.8304 45.2654 52.8304 35.7568ZM70.9341 24.2257C71.1817 24.4741 71.321 24.811 71.321 25.1621V34.4324H77.9247C78.275 34.4324 78.611 34.572 78.8585 34.8203C79.1063 35.0687 79.2454 35.4056 79.2454 35.7568C79.2454 36.1079 79.1063 36.4448 78.8585 36.6932C78.611 36.9414 78.275 37.0811 77.9247 37.0811H70.0001C69.2711 37.0811 68.6794 36.4878 68.6794 35.7568V25.1621C68.6794 24.811 68.8185 24.4741 69.0663 24.2257C69.3138 23.9775 69.6498 23.8378 70.0001 23.8378C70.3504 23.8378 70.6864 23.9775 70.9341 24.2257Z" fill="#1CACEB"/>
</svg>
