<svg width="373" height="282" viewBox="0 0 373 282" fill="none" xmlns="http://www.w3.org/2000/svg">
<g clip-path="url(#clip0_3828_5404)">
<path d="M292.066 260.396H329.848V251.751H304.948C308.381 237.565 329.421 234.462 329.421 218.724C329.421 210.301 323.837 204.094 312.03 204.094C304.732 204.094 298.293 206.311 293.997 208.527L296.574 216.507C300.44 214.512 304.948 212.739 310.529 212.739C314.821 212.739 318.9 214.734 318.9 219.832C318.9 231.359 294.214 232.245 292.066 260.396ZM330.923 246.653H355.18V260.396H364.842V246.653H373V238.23H364.842V204.094H357.757L330.923 240.003V246.653ZM341.871 238.673L355.609 219.611C355.609 221.162 355.18 226.039 355.18 230.472V238.452H348.74C346.809 238.452 343.16 238.673 341.871 238.673Z" fill="#005893"/>
<path d="M10.3131 250.28V233.31H14.4818C18.2121 233.31 21.284 233.739 23.4781 235.028C25.6725 236.317 26.9889 238.465 26.9889 241.902C26.9889 247.702 23.4781 250.28 15.1403 250.28H10.3131ZM0.219517 258.443H14.9208C31.3775 258.443 37.3016 251.354 37.3016 241.472C37.3016 234.813 34.4493 230.302 29.4026 227.724C25.453 225.576 20.4063 224.931 14.2626 224.931H10.3131V212.043H32.4744L35.1075 204.094H0V258.443H0.219517ZM44.1038 258.443H53.7584L66.2654 240.828C68.6788 237.606 70.4342 234.383 71.5315 232.664H71.7511C71.5315 235.028 71.3119 238.035 71.3119 241.043V258.228H81.1861V219.561H71.5315L59.0242 237.176C56.8304 240.398 54.8554 243.62 53.7584 245.339H53.5388C53.7584 242.976 53.9781 239.968 53.9781 236.961V219.776H44.1038V258.443ZM98.0815 258.443H108.175V227.724H120.023L122.657 219.561H86.0134V227.724H98.0815V258.443ZM126.167 277.99H136.041V258.443C138.016 259.087 139.991 259.302 142.185 259.302C154.692 259.302 162.811 250.924 162.811 238.894C162.811 226.435 155.35 218.487 141.088 218.487C135.603 218.487 130.336 219.561 125.948 220.85V277.99H126.167ZM136.041 250.065V227.294C137.577 226.865 138.894 226.65 140.649 226.65C147.89 226.65 152.498 230.517 152.498 238.894C152.498 246.413 148.768 251.139 141.308 251.139C139.333 251.139 137.796 250.709 136.041 250.065ZM168.735 258.443H178.39L190.896 240.828C193.31 237.606 195.066 234.383 196.163 232.664H196.382C196.163 235.028 195.943 238.035 195.943 241.043V258.228H205.817V219.561H196.163L183.656 237.176C181.461 240.398 179.486 243.62 178.39 245.339H178.17C178.39 242.976 178.609 239.968 178.609 236.961V219.776H168.735V258.443ZM213.716 258.443H223.81V242.332H229.734C230.831 242.332 231.928 243.406 233.245 245.983L238.292 258.443H249.043L241.802 243.62C240.486 241.043 239.17 239.539 237.195 238.894V238.68C240.486 236.746 240.925 231.161 242.9 228.368C243.558 227.509 244.435 227.08 245.752 227.08C246.41 227.08 247.288 227.08 247.946 227.509V219.131C246.849 218.702 244.874 218.487 243.777 218.487C240.266 218.487 238.072 219.776 236.536 221.924C233.245 226.65 233.245 234.813 228.418 234.813H223.81V219.561H213.716V258.443ZM271.424 259.302C276.91 259.302 281.956 257.583 285.028 255.435L282.176 248.776C279.323 250.28 276.69 251.354 272.96 251.354C266.158 251.354 261.77 247.058 261.77 239.109C261.77 232.02 266.158 226.435 273.618 226.435C277.568 226.435 280.421 227.509 283.273 229.443V221.065C281.079 219.776 277.568 218.487 272.521 218.487C260.673 218.487 251.457 227.08 251.457 239.324C251.457 250.494 258.478 259.302 271.424 259.302Z" fill="#0BBBEF"/>
<path fill-rule="evenodd" clip-rule="evenodd" d="M118.759 21.3838C108.938 31.9365 103.569 45.1958 103.577 58.88C103.576 60.5037 103.649 62.1266 103.798 63.7449C91.8395 68.7154 82.1491 77.1539 76.3261 87.6683C70.5027 98.1824 68.8954 110.144 71.7686 121.577C74.6419 133.011 81.824 143.234 92.1302 150.559C102.436 157.884 115.249 161.874 128.456 161.868H252.849C263.854 161.871 274.549 158.638 283.261 152.675C291.975 146.712 298.21 138.356 301.001 128.913C303.787 119.47 302.968 109.474 298.668 100.488C294.371 91.5022 286.835 84.0342 277.242 79.2519C278.225 73.6557 277.738 67.9336 275.819 62.5312C273.899 57.1295 270.6 52.1937 266.176 48.109C261.753 44.0239 256.327 40.9002 250.319 38.9812C244.312 37.0628 237.886 36.4006 231.542 37.0466C225.827 24.3361 215.296 13.7897 201.763 7.22178C188.229 0.653804 172.538 -1.52543 157.389 1.05953C142.24 3.64414 128.58 10.8311 118.759 21.3838ZM140.755 95.0096C140.755 69.7438 161.235 49.2642 186.5 49.2642C211.766 49.2642 232.246 69.7438 232.246 95.0096C232.246 120.275 211.766 140.755 186.5 140.755C161.235 140.755 140.755 120.275 140.755 95.0096ZM188.989 64.3703C189.648 65.0303 190.019 65.9255 190.019 66.8584V91.4904H207.614C208.547 91.4904 209.442 91.8615 210.102 92.5211C210.762 93.1811 211.132 94.0763 211.132 95.0096C211.132 95.9425 210.762 96.8377 210.102 97.4976C209.442 98.1572 208.547 98.5284 207.614 98.5284H186.5C184.558 98.5284 182.982 96.9518 182.982 95.0096V66.8584C182.982 65.9255 183.352 65.0303 184.012 64.3703C184.672 63.7107 185.567 63.3396 186.5 63.3396C187.434 63.3396 188.329 63.7107 188.989 64.3703Z" fill="#1CACEB"/>
</g>
<defs>
<clipPath id="clip0_3828_5404">
<rect width="373" height="281.653" fill="white"/>
</clipPath>
</defs>
</svg>
