<svg width="160" height="39" viewBox="0 0 160 39" fill="none" xmlns="http://www.w3.org/2000/svg">
<path d="M64.553 26.8376H68.2105C67.7951 29.0272 66.8042 30.8017 65.2688 32.0552C63.7333 33.3088 61.7572 33.944 59.3993 33.944C57.4849 33.944 55.7754 33.5122 54.3214 32.6625C52.8646 31.8101 51.7193 30.6011 50.9137 29.0662C50.1137 27.5396 49.7067 25.8041 49.7067 23.8346C49.7067 21.8651 50.1137 20.1296 50.9137 18.603C51.7193 17.0709 52.8646 15.8591 54.3214 15.0095C55.7754 14.1598 57.4821 13.728 59.3993 13.728C61.7572 13.728 63.7333 14.3632 65.2688 15.6167C66.8042 16.8703 67.7951 18.6448 68.2105 20.8344H64.553C64.2891 19.6254 63.6997 18.7507 62.7958 18.0654C61.8891 17.3801 60.7467 17.0291 59.3993 17.0291C57.6449 17.0291 56.2021 17.6642 55.113 18.9122C54.0098 20.1714 53.454 21.8038 53.454 23.8346C53.454 25.8654 54.0126 27.495 55.113 28.757C56.2021 30.005 57.6449 30.6401 59.3993 30.6401C60.7467 30.6401 61.8891 30.2919 62.7958 29.6038C63.6997 28.9213 64.2891 28.0466 64.553 26.8376Z" fill="#1B2032"/>
<path d="M79.2842 33.9439C76.7045 33.9439 74.5964 33.3422 73.0245 32.1555C71.4301 30.9521 70.6077 29.2556 70.5796 27.1189L70.5768 26.8376H74.2371L74.2484 27.1022C74.2961 28.1803 74.762 29.0355 75.6743 29.718C76.595 30.4061 77.8077 30.7543 79.2813 30.7543C80.5866 30.7543 81.6533 30.498 82.4505 29.9882C83.2196 29.4979 83.5929 28.8795 83.5929 28.0939C83.5929 27.4198 83.4161 26.9044 83.068 26.5562C82.7031 26.1941 82.2175 25.9406 81.6252 25.8013C80.9936 25.6537 80.0757 25.5032 78.9024 25.3556C77.2266 25.155 75.8315 24.8848 74.7564 24.5533C73.6505 24.2134 72.741 23.6619 72.0533 22.9125C71.3515 22.1464 70.995 21.0907 70.995 19.7702C70.995 18.5863 71.3375 17.5166 72.0168 16.5945C72.6877 15.6808 73.614 14.9593 74.7677 14.4523C75.9101 13.9481 77.2126 13.6946 78.6385 13.6946C80.9656 13.6946 82.8912 14.2462 84.3649 15.3298C85.8554 16.4302 86.6919 18.018 86.8491 20.0488L86.8715 20.8372H83.2112L83.1803 20.1045C83.0624 19.1685 82.6133 18.4164 81.8077 17.8035C81.002 17.1907 79.9719 16.8814 78.7508 16.8814C77.4989 16.8814 76.4771 17.1377 75.7192 17.6447C74.9838 18.135 74.6273 18.7562 74.6273 19.5418C74.6273 20.1184 74.7845 20.5474 75.1073 20.8455C75.447 21.1603 75.8933 21.3776 76.435 21.4918C77.0189 21.6144 77.9256 21.7537 79.1242 21.9013C80.828 22.1019 82.2568 22.386 83.3684 22.7398C84.5136 23.1047 85.4512 23.7037 86.1501 24.5171C86.8631 25.3444 87.2224 26.4671 87.2224 27.8599C87.2224 29.0717 86.8575 30.1554 86.1389 31.0802C85.4287 31.9939 84.4575 32.7071 83.2533 33.2002C82.0687 33.696 80.7298 33.9439 79.2842 33.9439Z" fill="#1B2032"/>
<path d="M110.192 26.8375H113.85C113.434 29.0271 112.443 30.8016 110.908 32.0552C109.373 33.3088 107.396 33.9439 105.039 33.9439C103.124 33.9439 101.415 33.5121 99.9607 32.6625C98.5038 31.81 97.3586 30.601 96.553 29.0661C95.753 27.5395 95.3459 25.804 95.3459 23.8345C95.3459 21.865 95.753 20.1295 96.553 18.603C97.3586 17.0708 98.5038 15.859 99.9607 15.0094C101.415 14.1598 103.121 13.728 105.039 13.728C107.396 13.728 109.373 14.3631 110.908 15.6167C112.443 16.8703 113.434 18.6448 113.85 20.8343H110.192C109.928 19.6253 109.339 18.7506 108.435 18.0653C107.528 17.38 106.386 17.029 105.039 17.029C103.284 17.029 101.841 17.6642 100.752 18.9122C99.6491 20.1713 99.0933 21.8038 99.0933 23.8345C99.0933 25.8653 99.6519 27.495 100.752 28.7569C101.841 30.0049 103.284 30.64 105.039 30.64C106.386 30.64 107.528 30.2918 108.435 29.6037C109.339 28.9212 109.928 28.0465 110.192 26.8375Z" fill="#1B2032"/>
<path d="M123.481 33.9439C121.277 33.9439 119.475 33.4174 118.131 32.3783C116.764 31.3226 116.067 29.8684 116.067 28.0549C116.067 24.3026 119.234 22.0043 123.22 22.0043H129.538V20.748C129.538 19.5668 129.157 18.6754 128.368 18.0236C127.576 17.3661 126.442 17.0346 124.999 17.0346C123.722 17.0346 122.658 17.316 121.836 17.8703C121.019 18.4219 120.528 19.1378 120.34 20.0516L120.295 20.8371H116.64L116.677 19.9624C116.912 18.0096 117.799 16.4636 119.312 15.366C120.808 14.2823 122.773 13.7308 125.151 13.7308C127.688 13.7308 129.684 14.3548 131.085 15.5888C132.494 16.8313 133.21 18.6308 133.21 20.9374V29.2221C133.21 29.9938 133.521 30.3392 134.22 30.3392H135.447V33.7183H133.46C132.152 33.7183 131.194 33.4397 130.611 32.8881C130.17 32.4703 129.884 31.9048 129.76 31.1972C128.241 33.0218 126.133 33.9439 123.481 33.9439ZM123.823 25.1578C121.1 25.1578 119.775 25.8988 119.775 27.8683C119.775 28.7402 120.112 29.4199 120.806 29.9464C121.51 30.4841 122.487 30.7543 123.711 30.7543C125.527 30.7543 126.97 30.2779 128 29.3391C129.022 28.4059 129.541 27.1523 129.541 25.6063V25.155H123.823V25.1578Z" fill="#1B2032"/>
<path d="M137.28 33.7183V13.9564H140.949V16.4023C141.46 15.7532 141.976 15.2128 142.689 14.7866C143.615 14.235 144.901 13.9564 146.515 13.9564H147.666V17.5221H145.83C144.067 17.5221 142.849 18.0848 142.1 19.2409C141.336 20.4193 140.949 21.9041 140.949 23.6479V33.7155H137.28V33.7183Z" fill="#1B2032"/>
<path d="M155.281 33.7183C153.389 33.7183 152.011 33.2837 151.189 32.4285C150.369 31.576 149.954 30.2305 149.954 28.4338V9.3739H153.622V13.9564H158.877V17.3355H153.622V28.3948C153.622 29.1218 153.757 29.6344 154.024 29.9213C154.285 30.1999 154.77 30.342 155.469 30.342H158.88V33.721H155.281V33.7183Z" fill="#1B2032"/>
<path d="M38.9053 13.7558V33.9188C38.9053 36.3396 36.9291 38.3008 34.4898 38.3008H14.1726C11.7333 38.3008 9.7572 36.3396 9.7572 33.9188V13.7558C9.7572 11.3351 11.7333 9.37391 14.1726 9.37391H34.4898C36.9291 9.37391 38.9053 11.3351 38.9053 13.7558ZM5.60843 0.874695C3.16913 0.874695 1.19299 2.83584 1.19299 5.25662C1.19299 7.67741 3.16913 9.63855 5.60843 9.63855C8.04773 9.63855 10.0239 7.67741 10.0239 5.25662C10.0239 2.83584 8.04773 0.874695 5.60843 0.874695Z" fill="url(#paint0_linear_2584_17107)"/>
<defs>
<linearGradient id="paint0_linear_2584_17107" x1="6.76902" y1="32.768" x2="33.1284" y2="6.20706" gradientUnits="userSpaceOnUse">
<stop stop-color="#7381FD"/>
<stop offset="1" stop-color="#76C7FF"/>
</linearGradient>
</defs>
</svg>
