<svg width="400" height="96" viewBox="0 0 400 96" fill="none" xmlns="http://www.w3.org/2000/svg">
<path d="M381.169 58.9332C378.697 58.9332 376.436 58.4364 374.386 57.4428C372.336 56.4493 370.693 55.0015 369.457 53.0995C368.25 51.1975 367.646 48.8697 367.646 46.1161C367.646 44.3276 367.955 42.7379 368.572 41.3469C369.218 39.9275 370.201 38.7068 371.521 37.6849C372.841 36.6345 374.527 35.7687 376.577 35.0874C378.655 34.4061 381.113 33.8951 383.949 33.5545C386.224 33.299 388.204 33.0435 389.889 32.788C391.574 32.5325 392.866 32.1351 393.765 31.5957C394.692 31.0563 395.155 30.2331 395.155 29.1259V27.4227C395.155 24.4987 394.214 22.1709 392.333 20.4393C390.451 18.7076 387.909 17.8418 384.707 17.8418C381.955 17.8418 379.554 18.4663 377.504 19.7154C375.481 20.9644 374.105 22.6393 373.375 24.74L368.867 23.8458C369.963 20.6947 371.929 18.2392 374.765 16.4791C377.602 14.7191 380.902 13.8391 384.665 13.8391C387.502 13.8391 390.072 14.3643 392.375 15.4146C394.706 16.465 396.559 18.0121 397.936 20.056C399.312 22.0999 400 24.6123 400 27.593V58.0816H395.324V50.2891H395.113C393.933 52.7872 392.136 54.8595 389.721 56.506C387.333 58.1241 384.483 58.9332 381.169 58.9332ZM382.096 55.186C384.623 55.186 386.87 54.5615 388.836 53.3124C390.83 52.0349 392.389 50.3033 393.512 48.1174C394.664 45.9032 395.239 43.3908 395.239 40.5804V34.4061C394.509 34.9455 393.582 35.3855 392.459 35.7261C391.364 36.0668 390.142 36.3507 388.794 36.5778C387.474 36.8049 386.14 36.9894 384.792 37.1313C380.326 37.6707 377.11 38.6785 375.144 40.1546C373.178 41.6308 372.195 43.6321 372.195 46.1587C372.195 48.8839 373.15 51.0698 375.06 52.7163C376.998 54.3628 379.343 55.186 382.096 55.186Z" fill="#100102"/>
<path d="M354.275 58.0816V17.2402H358.951V58.0816H354.275ZM356.718 12.6786C355.792 12.6786 355.005 12.3663 354.359 11.7418C353.713 11.0889 353.39 10.3366 353.39 9.48496C353.39 8.63332 353.713 7.89523 354.359 7.2707C355.005 6.64617 355.792 6.3339 356.718 6.3339C357.561 6.3339 358.291 6.64617 358.909 7.2707C359.527 7.89523 359.836 8.63332 359.836 9.48496C359.836 10.365 359.527 11.1173 358.909 11.7418C358.291 12.3663 357.561 12.6786 356.718 12.6786Z" fill="#100102"/>
<path d="M345.606 58.0816H341.014V48.5858H340.635C339.961 50.4878 338.992 52.2195 337.728 53.7808C336.492 55.3421 334.962 56.5912 333.136 57.528C331.311 58.4648 329.204 58.9332 326.817 58.9332C323.419 58.9332 320.442 57.9822 317.886 56.0802C315.33 54.1498 313.336 51.4956 311.904 48.1174C310.499 44.7393 309.797 40.8501 309.797 36.45C309.797 31.9931 310.513 28.0614 311.946 24.6549C313.406 21.2483 315.414 18.594 317.97 16.6921C320.526 14.7901 323.475 13.8391 326.817 13.8391C329.204 13.8391 331.311 14.3075 333.136 15.2443C334.962 16.1811 336.492 17.4301 337.728 18.9915C338.992 20.5528 339.961 22.2845 340.635 24.1865H340.846V0H345.606V58.0816ZM341.014 36.4074C341.014 31.1557 339.834 26.7839 337.475 23.2922C335.116 19.7721 331.872 18.0121 327.744 18.0121C323.615 18.0121 320.371 19.7721 318.012 23.2922C315.681 26.8123 314.516 31.1841 314.516 36.4074C314.516 39.8424 315.035 42.9508 316.074 45.7328C317.142 48.5148 318.658 50.7291 320.624 52.3756C322.618 54.0221 324.991 54.8453 327.744 54.8453C330.496 54.8453 332.855 54.0363 334.821 52.4182C336.815 50.8001 338.346 48.6 339.413 45.818C340.48 43.036 341.014 39.8991 341.014 36.4074Z" fill="#100102"/>
<path d="M286.032 58.9332C282.1 58.9332 278.659 57.9822 275.71 56.0802C272.789 54.1498 270.514 51.4956 268.886 48.1174C267.285 44.7109 266.484 40.8217 266.484 36.45C266.484 32.1067 267.285 28.2317 268.886 24.8252C270.514 21.4186 272.733 18.736 275.542 16.7772C278.378 14.8185 281.594 13.8391 285.189 13.8391C288.615 13.8391 291.705 14.7333 294.457 16.5217C297.238 18.2818 299.442 20.7515 301.071 23.931C302.728 27.082 303.557 30.7866 303.557 35.0448V37.2591H268.801V33.7248H298.965C298.965 30.7724 298.361 28.104 297.153 25.7194C295.974 23.3064 294.345 21.4044 292.267 20.0134C290.188 18.594 287.857 17.8843 285.273 17.8843C282.633 17.8843 280.246 18.6508 278.112 20.1838C276.005 21.6883 274.334 23.7323 273.098 26.3155C271.891 28.8705 271.287 31.7234 271.287 34.8745V37.1313C271.231 42.3263 272.537 46.6129 275.205 49.991C277.901 53.3408 281.538 55.0157 286.116 55.0157C288.306 55.0157 290.202 54.6324 291.803 53.866C293.404 53.0995 294.71 52.1769 295.721 51.0981C296.732 49.991 297.49 48.9549 297.996 47.9897L302.209 48.9265C301.282 51.3962 299.442 53.6814 296.69 55.7821C293.966 57.8829 290.413 58.9332 286.032 58.9332Z" fill="#100102"/>
<path d="M203.834 58.0816V14.4778H208.384V21.3335H208.721C209.536 19.0624 210.982 17.274 213.06 15.9682C215.139 14.6339 217.568 13.9668 220.349 13.9668C223.466 13.9668 226.022 14.7475 228.016 16.3088C230.01 17.8418 231.372 19.9141 232.102 22.5258H232.481C233.268 19.9141 234.77 17.8418 236.989 16.3088C239.208 14.7475 241.904 13.9668 245.078 13.9668C249.234 13.9668 252.436 15.3011 254.683 17.9695C256.93 20.6096 258.053 24.2148 258.053 28.7853V58.0816H253.293V29.2963C253.293 25.8613 252.478 23.1645 250.849 21.2057C249.22 19.2186 246.833 18.225 243.687 18.225C240.317 18.225 237.733 19.3037 235.936 21.4612C234.138 23.5903 233.24 26.273 233.24 29.5092V58.0816H228.69V29.2537C228.69 25.9607 227.875 23.3064 226.247 21.2909C224.618 19.247 222.188 18.225 218.958 18.225C215.785 18.225 213.243 19.3037 211.333 21.4612C209.452 23.6187 208.511 26.3865 208.511 29.7647V58.0816H203.834Z" fill="#100102"/>
<path d="M20.0255 96.0005C16.1774 96.0005 12.7482 95.3334 9.73787 93.9993C6.72751 92.639 4.34539 90.6378 2.59153 87.9957C0.863843 85.3275 0 82.0052 0 78.029C0 74.6806 0.615161 71.8685 1.84548 69.5926C3.07581 67.3168 4.75114 65.4856 6.87148 64.0992C8.99182 62.7127 11.4001 61.6663 14.0963 60.96C16.8188 60.2537 19.6721 59.7567 22.6562 59.469C26.164 59.1027 28.9911 58.7626 31.1376 58.4487C33.2841 58.1087 34.8417 57.6116 35.8102 56.9577C36.7788 56.3037 37.2631 55.3358 37.2631 54.054V53.8185C37.2631 51.3334 36.4777 49.4107 34.9071 48.0504C33.3627 46.6901 31.1638 46.01 28.3105 46.01C25.3001 46.01 22.9049 46.677 21.1249 48.0112C19.3449 49.3191 18.1669 50.9672 17.591 52.9553L2.12034 51.6996C2.90565 48.0373 4.4501 44.872 6.75368 42.2038C9.05726 39.5094 12.0284 37.4428 15.667 36.004C19.3318 34.5391 23.5724 33.8066 28.389 33.8066C31.7397 33.8066 34.9464 34.199 38.0091 34.9838C41.098 35.7686 43.8335 36.985 46.2156 38.633C48.6239 40.2811 50.5217 42.4 51.9091 44.9898C53.2965 47.5534 53.9902 50.6271 53.9902 54.2109V94.8625H38.1269V86.5046H37.6557C36.6872 88.3881 35.3914 90.0492 33.7684 91.488C32.1454 92.9006 30.1952 94.0124 27.9178 94.8233C25.6404 95.6081 23.0096 96.0005 20.0255 96.0005ZM24.8159 84.4642C27.2765 84.4642 29.4492 83.9803 31.3339 83.0124C33.2187 82.0183 34.6977 80.6842 35.771 79.01C36.8442 77.3358 37.3808 75.4392 37.3808 73.3203V66.9244C36.8573 67.2644 36.1374 67.5783 35.2212 67.8661C34.3312 68.1277 33.3234 68.3762 32.1978 68.6116C31.0722 68.8209 29.9466 69.0171 28.8209 69.2002C27.6953 69.3572 26.6744 69.5011 25.7582 69.6319C23.795 69.9196 22.0804 70.3774 20.6144 71.0052C19.1485 71.633 18.0098 72.4832 17.1983 73.5558C16.3868 74.6021 15.9811 75.9101 15.9811 77.4797C15.9811 79.7555 16.8057 81.4951 18.4548 82.6984C20.1302 83.8756 22.2505 84.4642 24.8159 84.4642Z" fill="#F8FEFF"/>
<path d="M174.237 95.5866C169.656 95.5866 165.507 94.4094 161.79 92.0551C158.099 89.6746 155.167 86.1823 152.994 81.5783C150.848 76.9481 149.774 71.2715 149.774 64.5485C149.774 57.6425 150.887 51.9005 153.112 47.3226C155.337 42.7186 158.295 39.2786 161.986 37.0028C165.703 34.7007 169.774 33.5497 174.198 33.5497C177.574 33.5497 180.388 34.1252 182.64 35.2763C184.917 36.4011 186.75 37.8137 188.137 39.5141C189.55 41.1883 190.624 42.8363 191.357 44.4582H191.867V14.2441H208.555V94.6056H192.063V84.9528H191.357C190.571 86.627 189.459 88.2881 188.019 89.9362C186.606 91.5581 184.76 92.9053 182.483 93.9778C180.231 95.0503 177.483 95.5866 174.237 95.5866ZM179.538 82.2846C182.234 82.2846 184.511 81.5521 186.37 80.0872C188.255 78.5961 189.694 76.5164 190.689 73.8482C191.71 71.1799 192.221 68.0539 192.221 64.4701C192.221 60.8862 191.723 57.7733 190.728 55.1312C189.734 52.4891 188.294 50.4487 186.409 49.0099C184.524 47.5711 182.234 46.8518 179.538 46.8518C176.789 46.8518 174.472 47.5973 172.588 49.0884C170.703 50.5795 169.276 52.646 168.308 55.2881C167.339 57.9302 166.855 60.9909 166.855 64.4701C166.855 67.9754 167.339 71.0753 168.308 73.7697C169.303 76.438 170.729 78.5307 172.588 80.048C174.472 81.539 176.789 82.2846 179.538 82.2846Z" fill="#F8FEFF"/>
<path d="M58.5039 94.8625V34.5914H74.4457V45.2252H75.1525C76.409 41.6937 78.5032 38.9077 81.435 36.8673C84.3668 34.8269 87.8746 33.8066 91.9582 33.8066C96.0942 33.8066 99.615 34.8399 102.521 36.9065C105.426 38.9469 107.363 41.7198 108.332 45.2252H108.96C110.191 41.7722 112.416 39.0123 115.635 36.9458C118.881 34.853 122.716 33.8066 127.14 33.8066C132.768 33.8066 137.336 35.5986 140.844 39.1824C144.378 42.7401 146.145 47.7888 146.145 54.3286V94.8625H129.457V57.6247C129.457 54.2763 128.567 51.765 126.787 50.0908C125.007 48.4166 122.782 47.5795 120.112 47.5795C117.075 47.5795 114.706 48.5474 113.005 50.4832C111.303 52.3928 110.452 54.9172 110.452 58.0563V94.8625H94.2356V57.2716C94.2356 54.3156 93.3848 51.9612 91.6833 50.2085C90.008 48.4559 87.796 47.5795 85.0474 47.5795C83.1889 47.5795 81.5135 48.0504 80.0215 48.9921C78.5555 49.9077 77.3907 51.2026 76.5268 52.8768C75.663 54.5248 75.2311 56.4606 75.2311 58.6842V94.8625H58.5039Z" fill="#F8FEFF"/>
</svg>
